solid body
   facet normal -1.000000e+00 0.000000e+00 -5.782412e-17
      outer loop
         vertex -2.000000e-01 -2.500000e-01 5.000000e-02
         vertex -2.000000e-01 2.500000e-01 5.000000e-02
         vertex -2.000000e-01 -2.500000e-01 -5.000000e-02
      endloop
   endfacet
   facet normal -1.000000e+00 0.000000e+00 -5.782412e-17
      outer loop
         vertex -2.000000e-01 -2.500000e-01 -5.000000e-02
         vertex -2.000000e-01 2.500000e-01 5.000000e-02
         vertex -2.000000e-01 2.500000e-01 -5.000000e-02
      endloop
   endfacet
   facet normal 0.000000e+00 -1.000000e+00 0.000000e+00
      outer loop
         vertex 4.000000e-01 -2.500000e-01 5.000000e-02
         vertex -2.000000e-01 -2.500000e-01 5.000000e-02
         vertex 4.000000e-01 -2.500000e-01 -5.000000e-02
      endloop
   endfacet
   facet normal 0.000000e+00 -1.000000e+00 0.000000e+00
      outer loop
         vertex 4.000000e-01 -2.500000e-01 -5.000000e-02
         vertex -2.000000e-01 -2.500000e-01 5.000000e-02
         vertex -2.000000e-01 -2.500000e-01 -5.000000e-02
      endloop
   endfacet
   facet normal 1.000000e+00 0.000000e+00 5.782412e-17
      outer loop
         vertex 4.000000e-01 2.500000e-01 5.000000e-02
         vertex 4.000000e-01 -2.500000e-01 5.000000e-02
         vertex 4.000000e-01 2.500000e-01 -5.000000e-02
      endloop
   endfacet
   facet normal 1.000000e+00 -0.000000e+00 5.782412e-17
      outer loop
         vertex 4.000000e-01 2.500000e-01 -5.000000e-02
         vertex 4.000000e-01 -2.500000e-01 5.000000e-02
         vertex 4.000000e-01 -2.500000e-01 -5.000000e-02
      endloop
   endfacet
   facet normal 0.000000e+00 1.000000e+00 0.000000e+00
      outer loop
         vertex -2.000000e-01 2.500000e-01 5.000000e-02
         vertex 4.000000e-01 2.500000e-01 5.000000e-02
         vertex -2.000000e-01 2.500000e-01 -5.000000e-02
      endloop
   endfacet
   facet normal 0.000000e+00 1.000000e+00 0.000000e+00
      outer loop
         vertex -2.000000e-01 2.500000e-01 -5.000000e-02
         vertex 4.000000e-01 2.500000e-01 5.000000e-02
         vertex 4.000000e-01 2.500000e-01 -5.000000e-02
      endloop
   endfacet
   facet normal -5.782412e-17 -0.000000e+00 1.000000e+00
      outer loop
         vertex 4.000000e-01 -2.500000e-01 5.000000e-02
         vertex 4.000000e-01 2.500000e-01 5.000000e-02
         vertex -2.000000e-01 -2.500000e-01 5.000000e-02
      endloop
   endfacet
   facet normal -5.782412e-17 -0.000000e+00 1.000000e+00
      outer loop
         vertex -2.000000e-01 -2.500000e-01 5.000000e-02
         vertex 4.000000e-01 2.500000e-01 5.000000e-02
         vertex -2.000000e-01 2.500000e-01 5.000000e-02
      endloop
   endfacet
   facet normal 5.782412e-17 0.000000e+00 -1.000000e+00
      outer loop
         vertex 4.000000e-01 2.500000e-01 -5.000000e-02
         vertex 4.000000e-01 -2.500000e-01 -5.000000e-02
         vertex -2.000000e-01 2.500000e-01 -5.000000e-02
      endloop
   endfacet
   facet normal 5.782412e-17 0.000000e+00 -1.000000e+00
      outer loop
         vertex -2.000000e-01 2.500000e-01 -5.000000e-02
         vertex 4.000000e-01 -2.500000e-01 -5.000000e-02
         vertex -2.000000e-01 -2.500000e-01 -5.000000e-02
      endloop
   endfacet
endsolid