<?xml version="1.0" encoding="utf-8" standalone="no"?>
<!DOCTYPE svg PUBLIC "-//W3C//DTD SVG 1.1//EN"
  "http://www.w3.org/Graphics/SVG/1.1/DTD/svg11.dtd">
<!-- Created with matplotlib (https://matplotlib.org/) -->
<svg height="694.08pt" version="1.1" viewBox="0 0 1334.16 694.08" width="1334.16pt" xmlns="http://www.w3.org/2000/svg" xmlns:xlink="http://www.w3.org/1999/xlink">
 <defs>
  <style type="text/css">
*{stroke-linecap:butt;stroke-linejoin:round;}
  </style>
 </defs>
 <g id="figure_1">
  <g id="patch_1">
   <path d="M 0 694.08 
L 1334.16 694.08 
L 1334.16 0 
L 0 0 
z
" style="fill:#ffffff;"/>
  </g>
  <g id="axes_1">
   <g id="patch_2">
    <path d="M 179.335656 554.862333 
L 1279.28782 554.862333 
L 1279.28782 77.12 
L 179.335656 77.12 
z
" style="fill:#ffffff;"/>
   </g>
   <g id="PathCollection_1">
    <defs>
     <path d="M 0 3.162278 
C 0.838646 3.162278 1.643056 2.82908 2.236068 2.236068 
C 2.82908 1.643056 3.162278 0.838646 3.162278 0 
C 3.162278 -0.838646 2.82908 -1.643056 2.236068 -2.236068 
C 1.643056 -2.82908 0.838646 -3.162278 0 -3.162278 
C -0.838646 -3.162278 -1.643056 -2.82908 -2.236068 -2.236068 
C -2.82908 -1.643056 -3.162278 -0.838646 -3.162278 0 
C -3.162278 0.838646 -2.82908 1.643056 -2.236068 2.236068 
C -1.643056 2.82908 -0.838646 3.162278 0 3.162278 
z
" id="m76b20f90c8" style="stroke:#000000;"/>
    </defs>
    <g clip-path="url(#p107efce6d9)">
     <use style="stroke:#000000;" x="244.938334" xlink:href="#m76b20f90c8" y="471.755251"/>
     <use style="stroke:#000000;" x="261.227323" xlink:href="#m76b20f90c8" y="451.559785"/>
     <use style="stroke:#000000;" x="277.516313" xlink:href="#m76b20f90c8" y="212.69234"/>
     <use style="stroke:#000000;" x="293.805302" xlink:href="#m76b20f90c8" y="145.632705"/>
     <use style="stroke:#000000;" x="310.094291" xlink:href="#m76b20f90c8" y="258.880109"/>
     <use style="stroke:#000000;" x="326.383281" xlink:href="#m76b20f90c8" y="218.013747"/>
     <use style="stroke:#000000;" x="342.67227" xlink:href="#m76b20f90c8" y="171.375829"/>
     <use style="stroke:#000000;" x="358.961259" xlink:href="#m76b20f90c8" y="128.604149"/>
     <use style="stroke:#000000;" x="375.250249" xlink:href="#m76b20f90c8" y="185.646501"/>
     <use style="stroke:#000000;" x="391.539238" xlink:href="#m76b20f90c8" y="139.141198"/>
     <use style="stroke:#000000;" x="407.828228" xlink:href="#m76b20f90c8" y="132.092292"/>
     <use style="stroke:#000000;" x="424.117217" xlink:href="#m76b20f90c8" y="139.594584"/>
     <use style="stroke:#000000;" x="440.406206" xlink:href="#m76b20f90c8" y="135.767255"/>
     <use style="stroke:#000000;" x="456.695196" xlink:href="#m76b20f90c8" y="155.454704"/>
     <use style="stroke:#000000;" x="472.984185" xlink:href="#m76b20f90c8" y="128.668986"/>
     <use style="stroke:#000000;" x="489.273175" xlink:href="#m76b20f90c8" y="137.961118"/>
     <use style="stroke:#000000;" x="505.562164" xlink:href="#m76b20f90c8" y="142.073874"/>
     <use style="stroke:#000000;" x="521.851153" xlink:href="#m76b20f90c8" y="128.876328"/>
     <use style="stroke:#000000;" x="538.140143" xlink:href="#m76b20f90c8" y="138.199647"/>
     <use style="stroke:#000000;" x="554.429132" xlink:href="#m76b20f90c8" y="138.890195"/>
     <use style="stroke:#000000;" x="570.718122" xlink:href="#m76b20f90c8" y="143.249261"/>
     <use style="stroke:#000000;" x="587.007111" xlink:href="#m76b20f90c8" y="136.161417"/>
     <use style="stroke:#000000;" x="603.2961" xlink:href="#m76b20f90c8" y="138.902343"/>
     <use style="stroke:#000000;" x="619.58509" xlink:href="#m76b20f90c8" y="128.404231"/>
     <use style="stroke:#000000;" x="635.874079" xlink:href="#m76b20f90c8" y="159.836579"/>
     <use style="stroke:#000000;" x="652.163068" xlink:href="#m76b20f90c8" y="182.392134"/>
     <use style="stroke:#000000;" x="668.452058" xlink:href="#m76b20f90c8" y="143.919137"/>
     <use style="stroke:#000000;" x="684.741047" xlink:href="#m76b20f90c8" y="131.723822"/>
     <use style="stroke:#000000;" x="701.030037" xlink:href="#m76b20f90c8" y="154.462007"/>
     <use style="stroke:#000000;" x="717.319026" xlink:href="#m76b20f90c8" y="119.601036"/>
     <use style="stroke:#000000;" x="733.608015" xlink:href="#m76b20f90c8" y="120.828519"/>
     <use style="stroke:#000000;" x="749.897005" xlink:href="#m76b20f90c8" y="149.257503"/>
     <use style="stroke:#000000;" x="766.185994" xlink:href="#m76b20f90c8" y="154.581197"/>
     <use style="stroke:#000000;" x="782.474984" xlink:href="#m76b20f90c8" y="110.590648"/>
     <use style="stroke:#000000;" x="798.763973" xlink:href="#m76b20f90c8" y="105.502928"/>
     <use style="stroke:#000000;" x="815.052962" xlink:href="#m76b20f90c8" y="121.456398"/>
     <use style="stroke:#000000;" x="831.341952" xlink:href="#m76b20f90c8" y="149.563661"/>
     <use style="stroke:#000000;" x="847.630941" xlink:href="#m76b20f90c8" y="119.968616"/>
     <use style="stroke:#000000;" x="863.919931" xlink:href="#m76b20f90c8" y="110.868678"/>
     <use style="stroke:#000000;" x="880.20892" xlink:href="#m76b20f90c8" y="122.06901"/>
     <use style="stroke:#000000;" x="896.497909" xlink:href="#m76b20f90c8" y="118.633319"/>
     <use style="stroke:#000000;" x="912.786899" xlink:href="#m76b20f90c8" y="116.967717"/>
     <use style="stroke:#000000;" x="929.075888" xlink:href="#m76b20f90c8" y="152.896587"/>
     <use style="stroke:#000000;" x="945.364877" xlink:href="#m76b20f90c8" y="132.594476"/>
     <use style="stroke:#000000;" x="961.653867" xlink:href="#m76b20f90c8" y="114.297747"/>
     <use style="stroke:#000000;" x="977.942856" xlink:href="#m76b20f90c8" y="104.303037"/>
     <use style="stroke:#000000;" x="994.231846" xlink:href="#m76b20f90c8" y="109.970045"/>
     <use style="stroke:#000000;" x="1010.520835" xlink:href="#m76b20f90c8" y="127.37334"/>
     <use style="stroke:#000000;" x="1026.809824" xlink:href="#m76b20f90c8" y="126.765034"/>
     <use style="stroke:#000000;" x="1043.098814" xlink:href="#m76b20f90c8" y="115.128008"/>
     <use style="stroke:#000000;" x="1059.387803" xlink:href="#m76b20f90c8" y="131.810459"/>
     <use style="stroke:#000000;" x="1075.676793" xlink:href="#m76b20f90c8" y="125.079651"/>
     <use style="stroke:#000000;" x="1091.965782" xlink:href="#m76b20f90c8" y="124.892446"/>
     <use style="stroke:#000000;" x="1108.254771" xlink:href="#m76b20f90c8" y="103.076565"/>
     <use style="stroke:#000000;" x="1124.543761" xlink:href="#m76b20f90c8" y="121.553669"/>
     <use style="stroke:#000000;" x="1140.83275" xlink:href="#m76b20f90c8" y="109.845598"/>
     <use style="stroke:#000000;" x="1157.12174" xlink:href="#m76b20f90c8" y="132.689668"/>
     <use style="stroke:#000000;" x="1173.410729" xlink:href="#m76b20f90c8" y="115.886898"/>
     <use style="stroke:#000000;" x="1189.699718" xlink:href="#m76b20f90c8" y="105.20963"/>
     <use style="stroke:#000000;" x="1205.988708" xlink:href="#m76b20f90c8" y="108.039362"/>
     <use style="stroke:#000000;" x="1222.277697" xlink:href="#m76b20f90c8" y="120.193571"/>
    </g>
   </g>
   <g id="matplotlib.axis_1">
    <g id="xtick_1">
     <g id="line2d_1">
      <path clip-path="url(#p107efce6d9)" d="M 228.649344 554.862333 
L 228.649344 77.12 
" style="fill:none;stroke:#b0b0b0;stroke-linecap:square;stroke-width:0.8;"/>
     </g>
     <g id="line2d_2">
      <defs>
       <path d="M 0 0 
L 0 3.5 
" id="mcacab6d920" style="stroke:#000000;stroke-width:0.8;"/>
      </defs>
      <g>
       <use style="stroke:#000000;stroke-width:0.8;" x="228.649344" xlink:href="#mcacab6d920" y="554.862333"/>
      </g>
     </g>
     <g id="text_1">
      <!-- 0 -->
      <defs>
       <path d="M 31.78125 66.40625 
Q 24.171875 66.40625 20.328125 58.90625 
Q 16.5 51.421875 16.5 36.375 
Q 16.5 21.390625 20.328125 13.890625 
Q 24.171875 6.390625 31.78125 6.390625 
Q 39.453125 6.390625 43.28125 13.890625 
Q 47.125 21.390625 47.125 36.375 
Q 47.125 51.421875 43.28125 58.90625 
Q 39.453125 66.40625 31.78125 66.40625 
z
M 31.78125 74.21875 
Q 44.046875 74.21875 50.515625 64.515625 
Q 56.984375 54.828125 56.984375 36.375 
Q 56.984375 17.96875 50.515625 8.265625 
Q 44.046875 -1.421875 31.78125 -1.421875 
Q 19.53125 -1.421875 13.0625 8.265625 
Q 6.59375 17.96875 6.59375 36.375 
Q 6.59375 54.828125 13.0625 64.515625 
Q 19.53125 74.21875 31.78125 74.21875 
z
" id="DejaVuSans-48"/>
      </defs>
      <g transform="translate(222.286844 577.059208)scale(0.2 -0.2)">
       <use xlink:href="#DejaVuSans-48"/>
      </g>
     </g>
    </g>
    <g id="xtick_2">
     <g id="line2d_3">
      <path clip-path="url(#p107efce6d9)" d="M 391.539238 554.862333 
L 391.539238 77.12 
" style="fill:none;stroke:#b0b0b0;stroke-linecap:square;stroke-width:0.8;"/>
     </g>
     <g id="line2d_4">
      <g>
       <use style="stroke:#000000;stroke-width:0.8;" x="391.539238" xlink:href="#mcacab6d920" y="554.862333"/>
      </g>
     </g>
     <g id="text_2">
      <!-- 5000 -->
      <defs>
       <path d="M 10.796875 72.90625 
L 49.515625 72.90625 
L 49.515625 64.59375 
L 19.828125 64.59375 
L 19.828125 46.734375 
Q 21.96875 47.46875 24.109375 47.828125 
Q 26.265625 48.1875 28.421875 48.1875 
Q 40.625 48.1875 47.75 41.5 
Q 54.890625 34.8125 54.890625 23.390625 
Q 54.890625 11.625 47.5625 5.09375 
Q 40.234375 -1.421875 26.90625 -1.421875 
Q 22.3125 -1.421875 17.546875 -0.640625 
Q 12.796875 0.140625 7.71875 1.703125 
L 7.71875 11.625 
Q 12.109375 9.234375 16.796875 8.0625 
Q 21.484375 6.890625 26.703125 6.890625 
Q 35.15625 6.890625 40.078125 11.328125 
Q 45.015625 15.765625 45.015625 23.390625 
Q 45.015625 31 40.078125 35.4375 
Q 35.15625 39.890625 26.703125 39.890625 
Q 22.75 39.890625 18.8125 39.015625 
Q 14.890625 38.140625 10.796875 36.28125 
z
" id="DejaVuSans-53"/>
      </defs>
      <g transform="translate(366.089238 577.059208)scale(0.2 -0.2)">
       <use xlink:href="#DejaVuSans-53"/>
       <use x="63.623047" xlink:href="#DejaVuSans-48"/>
       <use x="127.246094" xlink:href="#DejaVuSans-48"/>
       <use x="190.869141" xlink:href="#DejaVuSans-48"/>
      </g>
     </g>
    </g>
    <g id="xtick_3">
     <g id="line2d_5">
      <path clip-path="url(#p107efce6d9)" d="M 554.429132 554.862333 
L 554.429132 77.12 
" style="fill:none;stroke:#b0b0b0;stroke-linecap:square;stroke-width:0.8;"/>
     </g>
     <g id="line2d_6">
      <g>
       <use style="stroke:#000000;stroke-width:0.8;" x="554.429132" xlink:href="#mcacab6d920" y="554.862333"/>
      </g>
     </g>
     <g id="text_3">
      <!-- 10000 -->
      <defs>
       <path d="M 12.40625 8.296875 
L 28.515625 8.296875 
L 28.515625 63.921875 
L 10.984375 60.40625 
L 10.984375 69.390625 
L 28.421875 72.90625 
L 38.28125 72.90625 
L 38.28125 8.296875 
L 54.390625 8.296875 
L 54.390625 0 
L 12.40625 0 
z
" id="DejaVuSans-49"/>
      </defs>
      <g transform="translate(522.616632 577.059208)scale(0.2 -0.2)">
       <use xlink:href="#DejaVuSans-49"/>
       <use x="63.623047" xlink:href="#DejaVuSans-48"/>
       <use x="127.246094" xlink:href="#DejaVuSans-48"/>
       <use x="190.869141" xlink:href="#DejaVuSans-48"/>
       <use x="254.492188" xlink:href="#DejaVuSans-48"/>
      </g>
     </g>
    </g>
    <g id="xtick_4">
     <g id="line2d_7">
      <path clip-path="url(#p107efce6d9)" d="M 717.319026 554.862333 
L 717.319026 77.12 
" style="fill:none;stroke:#b0b0b0;stroke-linecap:square;stroke-width:0.8;"/>
     </g>
     <g id="line2d_8">
      <g>
       <use style="stroke:#000000;stroke-width:0.8;" x="717.319026" xlink:href="#mcacab6d920" y="554.862333"/>
      </g>
     </g>
     <g id="text_4">
      <!-- 15000 -->
      <g transform="translate(685.506526 577.059208)scale(0.2 -0.2)">
       <use xlink:href="#DejaVuSans-49"/>
       <use x="63.623047" xlink:href="#DejaVuSans-53"/>
       <use x="127.246094" xlink:href="#DejaVuSans-48"/>
       <use x="190.869141" xlink:href="#DejaVuSans-48"/>
       <use x="254.492188" xlink:href="#DejaVuSans-48"/>
      </g>
     </g>
    </g>
    <g id="xtick_5">
     <g id="line2d_9">
      <path clip-path="url(#p107efce6d9)" d="M 880.20892 554.862333 
L 880.20892 77.12 
" style="fill:none;stroke:#b0b0b0;stroke-linecap:square;stroke-width:0.8;"/>
     </g>
     <g id="line2d_10">
      <g>
       <use style="stroke:#000000;stroke-width:0.8;" x="880.20892" xlink:href="#mcacab6d920" y="554.862333"/>
      </g>
     </g>
     <g id="text_5">
      <!-- 20000 -->
      <defs>
       <path d="M 19.1875 8.296875 
L 53.609375 8.296875 
L 53.609375 0 
L 7.328125 0 
L 7.328125 8.296875 
Q 12.9375 14.109375 22.625 23.890625 
Q 32.328125 33.6875 34.8125 36.53125 
Q 39.546875 41.84375 41.421875 45.53125 
Q 43.3125 49.21875 43.3125 52.78125 
Q 43.3125 58.59375 39.234375 62.25 
Q 35.15625 65.921875 28.609375 65.921875 
Q 23.96875 65.921875 18.8125 64.3125 
Q 13.671875 62.703125 7.8125 59.421875 
L 7.8125 69.390625 
Q 13.765625 71.78125 18.9375 73 
Q 24.125 74.21875 28.421875 74.21875 
Q 39.75 74.21875 46.484375 68.546875 
Q 53.21875 62.890625 53.21875 53.421875 
Q 53.21875 48.921875 51.53125 44.890625 
Q 49.859375 40.875 45.40625 35.40625 
Q 44.1875 33.984375 37.640625 27.21875 
Q 31.109375 20.453125 19.1875 8.296875 
z
" id="DejaVuSans-50"/>
      </defs>
      <g transform="translate(848.39642 577.059208)scale(0.2 -0.2)">
       <use xlink:href="#DejaVuSans-50"/>
       <use x="63.623047" xlink:href="#DejaVuSans-48"/>
       <use x="127.246094" xlink:href="#DejaVuSans-48"/>
       <use x="190.869141" xlink:href="#DejaVuSans-48"/>
       <use x="254.492188" xlink:href="#DejaVuSans-48"/>
      </g>
     </g>
    </g>
    <g id="xtick_6">
     <g id="line2d_11">
      <path clip-path="url(#p107efce6d9)" d="M 1043.098814 554.862333 
L 1043.098814 77.12 
" style="fill:none;stroke:#b0b0b0;stroke-linecap:square;stroke-width:0.8;"/>
     </g>
     <g id="line2d_12">
      <g>
       <use style="stroke:#000000;stroke-width:0.8;" x="1043.098814" xlink:href="#mcacab6d920" y="554.862333"/>
      </g>
     </g>
     <g id="text_6">
      <!-- 25000 -->
      <g transform="translate(1011.286314 577.059208)scale(0.2 -0.2)">
       <use xlink:href="#DejaVuSans-50"/>
       <use x="63.623047" xlink:href="#DejaVuSans-53"/>
       <use x="127.246094" xlink:href="#DejaVuSans-48"/>
       <use x="190.869141" xlink:href="#DejaVuSans-48"/>
       <use x="254.492188" xlink:href="#DejaVuSans-48"/>
      </g>
     </g>
    </g>
    <g id="xtick_7">
     <g id="line2d_13">
      <path clip-path="url(#p107efce6d9)" d="M 1205.988708 554.862333 
L 1205.988708 77.12 
" style="fill:none;stroke:#b0b0b0;stroke-linecap:square;stroke-width:0.8;"/>
     </g>
     <g id="line2d_14">
      <g>
       <use style="stroke:#000000;stroke-width:0.8;" x="1205.988708" xlink:href="#mcacab6d920" y="554.862333"/>
      </g>
     </g>
     <g id="text_7">
      <!-- 30000 -->
      <defs>
       <path d="M 40.578125 39.3125 
Q 47.65625 37.796875 51.625 33 
Q 55.609375 28.21875 55.609375 21.1875 
Q 55.609375 10.40625 48.1875 4.484375 
Q 40.765625 -1.421875 27.09375 -1.421875 
Q 22.515625 -1.421875 17.65625 -0.515625 
Q 12.796875 0.390625 7.625 2.203125 
L 7.625 11.71875 
Q 11.71875 9.328125 16.59375 8.109375 
Q 21.484375 6.890625 26.8125 6.890625 
Q 36.078125 6.890625 40.9375 10.546875 
Q 45.796875 14.203125 45.796875 21.1875 
Q 45.796875 27.640625 41.28125 31.265625 
Q 36.765625 34.90625 28.71875 34.90625 
L 20.21875 34.90625 
L 20.21875 43.015625 
L 29.109375 43.015625 
Q 36.375 43.015625 40.234375 45.921875 
Q 44.09375 48.828125 44.09375 54.296875 
Q 44.09375 59.90625 40.109375 62.90625 
Q 36.140625 65.921875 28.71875 65.921875 
Q 24.65625 65.921875 20.015625 65.03125 
Q 15.375 64.15625 9.8125 62.3125 
L 9.8125 71.09375 
Q 15.4375 72.65625 20.34375 73.4375 
Q 25.25 74.21875 29.59375 74.21875 
Q 40.828125 74.21875 47.359375 69.109375 
Q 53.90625 64.015625 53.90625 55.328125 
Q 53.90625 49.265625 50.4375 45.09375 
Q 46.96875 40.921875 40.578125 39.3125 
z
" id="DejaVuSans-51"/>
      </defs>
      <g transform="translate(1174.176208 577.059208)scale(0.2 -0.2)">
       <use xlink:href="#DejaVuSans-51"/>
       <use x="63.623047" xlink:href="#DejaVuSans-48"/>
       <use x="127.246094" xlink:href="#DejaVuSans-48"/>
       <use x="190.869141" xlink:href="#DejaVuSans-48"/>
       <use x="254.492188" xlink:href="#DejaVuSans-48"/>
      </g>
     </g>
    </g>
    <g id="text_8">
     <!-- Steps -->
     <defs>
      <path d="M 53.515625 70.515625 
L 53.515625 60.890625 
Q 47.90625 63.578125 42.921875 64.890625 
Q 37.9375 66.21875 33.296875 66.21875 
Q 25.25 66.21875 20.875 63.09375 
Q 16.5 59.96875 16.5 54.203125 
Q 16.5 49.359375 19.40625 46.890625 
Q 22.3125 44.4375 30.421875 42.921875 
L 36.375 41.703125 
Q 47.40625 39.59375 52.65625 34.296875 
Q 57.90625 29 57.90625 20.125 
Q 57.90625 9.515625 50.796875 4.046875 
Q 43.703125 -1.421875 29.984375 -1.421875 
Q 24.8125 -1.421875 18.96875 -0.25 
Q 13.140625 0.921875 6.890625 3.21875 
L 6.890625 13.375 
Q 12.890625 10.015625 18.65625 8.296875 
Q 24.421875 6.59375 29.984375 6.59375 
Q 38.421875 6.59375 43.015625 9.90625 
Q 47.609375 13.234375 47.609375 19.390625 
Q 47.609375 24.75 44.3125 27.78125 
Q 41.015625 30.8125 33.5 32.328125 
L 27.484375 33.5 
Q 16.453125 35.6875 11.515625 40.375 
Q 6.59375 45.0625 6.59375 53.421875 
Q 6.59375 63.09375 13.40625 68.65625 
Q 20.21875 74.21875 32.171875 74.21875 
Q 37.3125 74.21875 42.625 73.28125 
Q 47.953125 72.359375 53.515625 70.515625 
z
" id="DejaVuSans-83"/>
      <path d="M 18.3125 70.21875 
L 18.3125 54.6875 
L 36.8125 54.6875 
L 36.8125 47.703125 
L 18.3125 47.703125 
L 18.3125 18.015625 
Q 18.3125 11.328125 20.140625 9.421875 
Q 21.96875 7.515625 27.59375 7.515625 
L 36.8125 7.515625 
L 36.8125 0 
L 27.59375 0 
Q 17.1875 0 13.234375 3.875 
Q 9.28125 7.765625 9.28125 18.015625 
L 9.28125 47.703125 
L 2.6875 47.703125 
L 2.6875 54.6875 
L 9.28125 54.6875 
L 9.28125 70.21875 
z
" id="DejaVuSans-116"/>
      <path d="M 56.203125 29.59375 
L 56.203125 25.203125 
L 14.890625 25.203125 
Q 15.484375 15.921875 20.484375 11.0625 
Q 25.484375 6.203125 34.421875 6.203125 
Q 39.59375 6.203125 44.453125 7.46875 
Q 49.3125 8.734375 54.109375 11.28125 
L 54.109375 2.78125 
Q 49.265625 0.734375 44.1875 -0.34375 
Q 39.109375 -1.421875 33.890625 -1.421875 
Q 20.796875 -1.421875 13.15625 6.1875 
Q 5.515625 13.8125 5.515625 26.8125 
Q 5.515625 40.234375 12.765625 48.109375 
Q 20.015625 56 32.328125 56 
Q 43.359375 56 49.78125 48.890625 
Q 56.203125 41.796875 56.203125 29.59375 
z
M 47.21875 32.234375 
Q 47.125 39.59375 43.09375 43.984375 
Q 39.0625 48.390625 32.421875 48.390625 
Q 24.90625 48.390625 20.390625 44.140625 
Q 15.875 39.890625 15.1875 32.171875 
z
" id="DejaVuSans-101"/>
      <path d="M 18.109375 8.203125 
L 18.109375 -20.796875 
L 9.078125 -20.796875 
L 9.078125 54.6875 
L 18.109375 54.6875 
L 18.109375 46.390625 
Q 20.953125 51.265625 25.265625 53.625 
Q 29.59375 56 35.59375 56 
Q 45.5625 56 51.78125 48.09375 
Q 58.015625 40.1875 58.015625 27.296875 
Q 58.015625 14.40625 51.78125 6.484375 
Q 45.5625 -1.421875 35.59375 -1.421875 
Q 29.59375 -1.421875 25.265625 0.953125 
Q 20.953125 3.328125 18.109375 8.203125 
z
M 48.6875 27.296875 
Q 48.6875 37.203125 44.609375 42.84375 
Q 40.53125 48.484375 33.40625 48.484375 
Q 26.265625 48.484375 22.1875 42.84375 
Q 18.109375 37.203125 18.109375 27.296875 
Q 18.109375 17.390625 22.1875 11.75 
Q 26.265625 6.109375 33.40625 6.109375 
Q 40.53125 6.109375 44.609375 11.75 
Q 48.6875 17.390625 48.6875 27.296875 
z
" id="DejaVuSans-112"/>
      <path d="M 44.28125 53.078125 
L 44.28125 44.578125 
Q 40.484375 46.53125 36.375 47.5 
Q 32.28125 48.484375 27.875 48.484375 
Q 21.1875 48.484375 17.84375 46.4375 
Q 14.5 44.390625 14.5 40.28125 
Q 14.5 37.15625 16.890625 35.375 
Q 19.28125 33.59375 26.515625 31.984375 
L 29.59375 31.296875 
Q 39.15625 29.25 43.1875 25.515625 
Q 47.21875 21.78125 47.21875 15.09375 
Q 47.21875 7.46875 41.1875 3.015625 
Q 35.15625 -1.421875 24.609375 -1.421875 
Q 20.21875 -1.421875 15.453125 -0.5625 
Q 10.6875 0.296875 5.421875 2 
L 5.421875 11.28125 
Q 10.40625 8.6875 15.234375 7.390625 
Q 20.0625 6.109375 24.8125 6.109375 
Q 31.15625 6.109375 34.5625 8.28125 
Q 37.984375 10.453125 37.984375 14.40625 
Q 37.984375 18.0625 35.515625 20.015625 
Q 33.0625 21.96875 24.703125 23.78125 
L 21.578125 24.515625 
Q 13.234375 26.265625 9.515625 29.90625 
Q 5.8125 33.546875 5.8125 39.890625 
Q 5.8125 47.609375 11.28125 51.796875 
Q 16.75 56 26.8125 56 
Q 31.78125 56 36.171875 55.265625 
Q 40.578125 54.546875 44.28125 53.078125 
z
" id="DejaVuSans-115"/>
     </defs>
     <g transform="translate(690.140176 606.494208)scale(0.28 -0.28)">
      <use xlink:href="#DejaVuSans-83"/>
      <use x="63.476562" xlink:href="#DejaVuSans-116"/>
      <use x="102.685547" xlink:href="#DejaVuSans-101"/>
      <use x="164.208984" xlink:href="#DejaVuSans-112"/>
      <use x="227.685547" xlink:href="#DejaVuSans-115"/>
     </g>
    </g>
   </g>
   <g id="matplotlib.axis_2">
    <g id="ytick_1">
     <g id="line2d_15">
      <path clip-path="url(#p107efce6d9)" d="M 179.335656 508.150794 
L 1279.28782 508.150794 
" style="fill:none;stroke:#b0b0b0;stroke-linecap:square;stroke-width:0.8;"/>
     </g>
     <g id="line2d_16">
      <defs>
       <path d="M 0 0 
L -3.5 0 
" id="m09c1ec0c77" style="stroke:#000000;stroke-width:0.8;"/>
      </defs>
      <g>
       <use style="stroke:#000000;stroke-width:0.8;" x="179.335656" xlink:href="#m09c1ec0c77" y="508.150794"/>
      </g>
     </g>
     <g id="text_9">
      <!-- 0.0 -->
      <defs>
       <path d="M 10.6875 12.40625 
L 21 12.40625 
L 21 0 
L 10.6875 0 
z
" id="DejaVuSans-46"/>
      </defs>
      <g transform="translate(140.529406 515.749231)scale(0.2 -0.2)">
       <use xlink:href="#DejaVuSans-48"/>
       <use x="63.623047" xlink:href="#DejaVuSans-46"/>
       <use x="95.410156" xlink:href="#DejaVuSans-48"/>
      </g>
     </g>
    </g>
    <g id="ytick_2">
     <g id="line2d_17">
      <path clip-path="url(#p107efce6d9)" d="M 179.335656 445.863306 
L 1279.28782 445.863306 
" style="fill:none;stroke:#b0b0b0;stroke-linecap:square;stroke-width:0.8;"/>
     </g>
     <g id="line2d_18">
      <g>
       <use style="stroke:#000000;stroke-width:0.8;" x="179.335656" xlink:href="#m09c1ec0c77" y="445.863306"/>
      </g>
     </g>
     <g id="text_10">
      <!-- 0.5 -->
      <g transform="translate(140.529406 453.461744)scale(0.2 -0.2)">
       <use xlink:href="#DejaVuSans-48"/>
       <use x="63.623047" xlink:href="#DejaVuSans-46"/>
       <use x="95.410156" xlink:href="#DejaVuSans-53"/>
      </g>
     </g>
    </g>
    <g id="ytick_3">
     <g id="line2d_19">
      <path clip-path="url(#p107efce6d9)" d="M 179.335656 383.575819 
L 1279.28782 383.575819 
" style="fill:none;stroke:#b0b0b0;stroke-linecap:square;stroke-width:0.8;"/>
     </g>
     <g id="line2d_20">
      <g>
       <use style="stroke:#000000;stroke-width:0.8;" x="179.335656" xlink:href="#m09c1ec0c77" y="383.575819"/>
      </g>
     </g>
     <g id="text_11">
      <!-- 1.0 -->
      <g transform="translate(140.529406 391.174256)scale(0.2 -0.2)">
       <use xlink:href="#DejaVuSans-49"/>
       <use x="63.623047" xlink:href="#DejaVuSans-46"/>
       <use x="95.410156" xlink:href="#DejaVuSans-48"/>
      </g>
     </g>
    </g>
    <g id="ytick_4">
     <g id="line2d_21">
      <path clip-path="url(#p107efce6d9)" d="M 179.335656 321.288331 
L 1279.28782 321.288331 
" style="fill:none;stroke:#b0b0b0;stroke-linecap:square;stroke-width:0.8;"/>
     </g>
     <g id="line2d_22">
      <g>
       <use style="stroke:#000000;stroke-width:0.8;" x="179.335656" xlink:href="#m09c1ec0c77" y="321.288331"/>
      </g>
     </g>
     <g id="text_12">
      <!-- 1.5 -->
      <g transform="translate(140.529406 328.886769)scale(0.2 -0.2)">
       <use xlink:href="#DejaVuSans-49"/>
       <use x="63.623047" xlink:href="#DejaVuSans-46"/>
       <use x="95.410156" xlink:href="#DejaVuSans-53"/>
      </g>
     </g>
    </g>
    <g id="ytick_5">
     <g id="line2d_23">
      <path clip-path="url(#p107efce6d9)" d="M 179.335656 259.000844 
L 1279.28782 259.000844 
" style="fill:none;stroke:#b0b0b0;stroke-linecap:square;stroke-width:0.8;"/>
     </g>
     <g id="line2d_24">
      <g>
       <use style="stroke:#000000;stroke-width:0.8;" x="179.335656" xlink:href="#m09c1ec0c77" y="259.000844"/>
      </g>
     </g>
     <g id="text_13">
      <!-- 2.0 -->
      <g transform="translate(140.529406 266.599281)scale(0.2 -0.2)">
       <use xlink:href="#DejaVuSans-50"/>
       <use x="63.623047" xlink:href="#DejaVuSans-46"/>
       <use x="95.410156" xlink:href="#DejaVuSans-48"/>
      </g>
     </g>
    </g>
    <g id="ytick_6">
     <g id="line2d_25">
      <path clip-path="url(#p107efce6d9)" d="M 179.335656 196.713357 
L 1279.28782 196.713357 
" style="fill:none;stroke:#b0b0b0;stroke-linecap:square;stroke-width:0.8;"/>
     </g>
     <g id="line2d_26">
      <g>
       <use style="stroke:#000000;stroke-width:0.8;" x="179.335656" xlink:href="#m09c1ec0c77" y="196.713357"/>
      </g>
     </g>
     <g id="text_14">
      <!-- 2.5 -->
      <g transform="translate(140.529406 204.311794)scale(0.2 -0.2)">
       <use xlink:href="#DejaVuSans-50"/>
       <use x="63.623047" xlink:href="#DejaVuSans-46"/>
       <use x="95.410156" xlink:href="#DejaVuSans-53"/>
      </g>
     </g>
    </g>
    <g id="ytick_7">
     <g id="line2d_27">
      <path clip-path="url(#p107efce6d9)" d="M 179.335656 134.425869 
L 1279.28782 134.425869 
" style="fill:none;stroke:#b0b0b0;stroke-linecap:square;stroke-width:0.8;"/>
     </g>
     <g id="line2d_28">
      <g>
       <use style="stroke:#000000;stroke-width:0.8;" x="179.335656" xlink:href="#m09c1ec0c77" y="134.425869"/>
      </g>
     </g>
     <g id="text_15">
      <!-- 3.0 -->
      <g transform="translate(140.529406 142.024307)scale(0.2 -0.2)">
       <use xlink:href="#DejaVuSans-51"/>
       <use x="63.623047" xlink:href="#DejaVuSans-46"/>
       <use x="95.410156" xlink:href="#DejaVuSans-48"/>
      </g>
     </g>
    </g>
    <g id="text_16">
     <!-- Reward values -->
     <defs>
      <path d="M 44.390625 34.1875 
Q 47.5625 33.109375 50.5625 29.59375 
Q 53.5625 26.078125 56.59375 19.921875 
L 66.609375 0 
L 56 0 
L 46.6875 18.703125 
Q 43.0625 26.03125 39.671875 28.421875 
Q 36.28125 30.8125 30.421875 30.8125 
L 19.671875 30.8125 
L 19.671875 0 
L 9.8125 0 
L 9.8125 72.90625 
L 32.078125 72.90625 
Q 44.578125 72.90625 50.734375 67.671875 
Q 56.890625 62.453125 56.890625 51.90625 
Q 56.890625 45.015625 53.6875 40.46875 
Q 50.484375 35.9375 44.390625 34.1875 
z
M 19.671875 64.796875 
L 19.671875 38.921875 
L 32.078125 38.921875 
Q 39.203125 38.921875 42.84375 42.21875 
Q 46.484375 45.515625 46.484375 51.90625 
Q 46.484375 58.296875 42.84375 61.546875 
Q 39.203125 64.796875 32.078125 64.796875 
z
" id="DejaVuSans-82"/>
      <path d="M 4.203125 54.6875 
L 13.1875 54.6875 
L 24.421875 12.015625 
L 35.59375 54.6875 
L 46.1875 54.6875 
L 57.421875 12.015625 
L 68.609375 54.6875 
L 77.59375 54.6875 
L 63.28125 0 
L 52.6875 0 
L 40.921875 44.828125 
L 29.109375 0 
L 18.5 0 
z
" id="DejaVuSans-119"/>
      <path d="M 34.28125 27.484375 
Q 23.390625 27.484375 19.1875 25 
Q 14.984375 22.515625 14.984375 16.5 
Q 14.984375 11.71875 18.140625 8.90625 
Q 21.296875 6.109375 26.703125 6.109375 
Q 34.1875 6.109375 38.703125 11.40625 
Q 43.21875 16.703125 43.21875 25.484375 
L 43.21875 27.484375 
z
M 52.203125 31.203125 
L 52.203125 0 
L 43.21875 0 
L 43.21875 8.296875 
Q 40.140625 3.328125 35.546875 0.953125 
Q 30.953125 -1.421875 24.3125 -1.421875 
Q 15.921875 -1.421875 10.953125 3.296875 
Q 6 8.015625 6 15.921875 
Q 6 25.140625 12.171875 29.828125 
Q 18.359375 34.515625 30.609375 34.515625 
L 43.21875 34.515625 
L 43.21875 35.40625 
Q 43.21875 41.609375 39.140625 45 
Q 35.0625 48.390625 27.6875 48.390625 
Q 23 48.390625 18.546875 47.265625 
Q 14.109375 46.140625 10.015625 43.890625 
L 10.015625 52.203125 
Q 14.9375 54.109375 19.578125 55.046875 
Q 24.21875 56 28.609375 56 
Q 40.484375 56 46.34375 49.84375 
Q 52.203125 43.703125 52.203125 31.203125 
z
" id="DejaVuSans-97"/>
      <path d="M 41.109375 46.296875 
Q 39.59375 47.171875 37.8125 47.578125 
Q 36.03125 48 33.890625 48 
Q 26.265625 48 22.1875 43.046875 
Q 18.109375 38.09375 18.109375 28.8125 
L 18.109375 0 
L 9.078125 0 
L 9.078125 54.6875 
L 18.109375 54.6875 
L 18.109375 46.1875 
Q 20.953125 51.171875 25.484375 53.578125 
Q 30.03125 56 36.53125 56 
Q 37.453125 56 38.578125 55.875 
Q 39.703125 55.765625 41.0625 55.515625 
z
" id="DejaVuSans-114"/>
      <path d="M 45.40625 46.390625 
L 45.40625 75.984375 
L 54.390625 75.984375 
L 54.390625 0 
L 45.40625 0 
L 45.40625 8.203125 
Q 42.578125 3.328125 38.25 0.953125 
Q 33.9375 -1.421875 27.875 -1.421875 
Q 17.96875 -1.421875 11.734375 6.484375 
Q 5.515625 14.40625 5.515625 27.296875 
Q 5.515625 40.1875 11.734375 48.09375 
Q 17.96875 56 27.875 56 
Q 33.9375 56 38.25 53.625 
Q 42.578125 51.265625 45.40625 46.390625 
z
M 14.796875 27.296875 
Q 14.796875 17.390625 18.875 11.75 
Q 22.953125 6.109375 30.078125 6.109375 
Q 37.203125 6.109375 41.296875 11.75 
Q 45.40625 17.390625 45.40625 27.296875 
Q 45.40625 37.203125 41.296875 42.84375 
Q 37.203125 48.484375 30.078125 48.484375 
Q 22.953125 48.484375 18.875 42.84375 
Q 14.796875 37.203125 14.796875 27.296875 
z
" id="DejaVuSans-100"/>
      <path id="DejaVuSans-32"/>
      <path d="M 2.984375 54.6875 
L 12.5 54.6875 
L 29.59375 8.796875 
L 46.6875 54.6875 
L 56.203125 54.6875 
L 35.6875 0 
L 23.484375 0 
z
" id="DejaVuSans-118"/>
      <path d="M 9.421875 75.984375 
L 18.40625 75.984375 
L 18.40625 0 
L 9.421875 0 
z
" id="DejaVuSans-108"/>
      <path d="M 8.5 21.578125 
L 8.5 54.6875 
L 17.484375 54.6875 
L 17.484375 21.921875 
Q 17.484375 14.15625 20.5 10.265625 
Q 23.53125 6.390625 29.59375 6.390625 
Q 36.859375 6.390625 41.078125 11.03125 
Q 45.3125 15.671875 45.3125 23.6875 
L 45.3125 54.6875 
L 54.296875 54.6875 
L 54.296875 0 
L 45.3125 0 
L 45.3125 8.40625 
Q 42.046875 3.421875 37.71875 1 
Q 33.40625 -1.421875 27.6875 -1.421875 
Q 18.265625 -1.421875 13.375 4.4375 
Q 8.5 10.296875 8.5 21.578125 
z
M 31.109375 56 
z
" id="DejaVuSans-117"/>
     </defs>
     <g transform="translate(130.706281 418.978667)rotate(-90)scale(0.28 -0.28)">
      <use xlink:href="#DejaVuSans-82"/>
      <use x="69.419922" xlink:href="#DejaVuSans-101"/>
      <use x="130.943359" xlink:href="#DejaVuSans-119"/>
      <use x="212.730469" xlink:href="#DejaVuSans-97"/>
      <use x="274.009766" xlink:href="#DejaVuSans-114"/>
      <use x="315.107422" xlink:href="#DejaVuSans-100"/>
      <use x="378.583984" xlink:href="#DejaVuSans-32"/>
      <use x="410.371094" xlink:href="#DejaVuSans-118"/>
      <use x="469.550781" xlink:href="#DejaVuSans-97"/>
      <use x="530.830078" xlink:href="#DejaVuSans-108"/>
      <use x="558.613281" xlink:href="#DejaVuSans-117"/>
      <use x="621.992188" xlink:href="#DejaVuSans-101"/>
      <use x="683.515625" xlink:href="#DejaVuSans-115"/>
     </g>
    </g>
   </g>
   <g id="line2d_29">
    <path clip-path="url(#p107efce6d9)" d="M 229.333482 406.962719 
L 229.919886 411.324725 
L 230.278243 406.328981 
L 230.375977 414.871743 
L 230.766913 411.251074 
L 231.516206 405.398487 
L 232.949638 403.114436 
L 233.242839 399.979215 
L 234.252757 392.64728 
L 235.099784 394.965027 
L 235.197518 394.688919 
L 235.555876 394.127325 
L 235.946812 392.351845 
L 237.087041 390.282421 
L 237.217353 390.689154 
L 238.781096 384.65891 
L 239.334921 385.181447 
L 240.116793 388.645525 
L 242.10405 414.124422 
L 243.016233 429.646686 
L 244.091306 458.69619 
L 244.417086 460.705325 
L 244.710288 467.126456 
L 245.16638 466.14845 
L 245.752783 469.939425 
L 246.111141 471.189492 
L 246.827856 476.92509 
L 246.92559 476.904288 
L 246.990746 476.477548 
L 247.544572 474.348853 
L 248.749957 470.671057 
L 249.792453 457.979505 
L 250.183388 454.909181 
L 250.541746 450.76247 
L 251.714553 440.042017 
L 252.691893 431.40413 
L 254.060168 422.992164 
L 255.819379 410.003476 
L 258.099837 391.078541 
L 258.718819 388.215893 
L 258.979443 391.461075 
L 259.402956 392.12311 
L 260.15225 392.478757 
L 260.934121 397.911053 
L 265.527616 391.833518 
L 266.472378 384.291308 
L 266.504956 385.404086 
L 266.76558 386.233738 
L 267.742919 374.579286 
L 268.459634 373.579595 
L 269.599864 361.805351 
L 271.326497 342.681003 
L 273.672111 311.545279 
L 273.965313 308.26026 
L 274.97523 295.104519 
L 275.95257 283.888372 
L 276.441239 280.980496 
L 277.744358 265.22479 
L 279.308101 256.7027 
L 281.26278 250.893989 
L 282.500743 246.534567 
L 284.097064 242.145533 
L 285.172138 244.935258 
L 285.432761 244.970305 
L 285.856275 251.885348 
L 286.572991 247.399757 
L 287.029082 247.188583 
L 287.973844 253.458729 
L 289.309541 253.01755 
L 289.570165 251.540876 
L 290.645238 259.16959 
L 291.589999 264.057794 
L 296.150916 267.613329 
L 296.509274 267.370375 
L 297.291146 269.499965 
L 298.496531 267.07727 
L 298.724577 267.577881 
L 302.275576 267.685799 
L 302.438466 265.976656 
L 303.578696 258.367411 
L 303.676429 259.600269 
L 304.914393 260.786883 
L 305.59853 259.236581 
L 305.76142 257.87984 
L 306.608448 255.377591 
L 307.292585 255.624465 
L 307.520631 256.279313 
L 307.976723 256.577808 
L 309.182108 261.041302 
L 310.257181 261.080715 
L 310.387493 260.117482 
L 311.071631 261.017749 
L 311.690612 261.015314 
L 312.407328 260.810733 
L 312.570218 259.161898 
L 313.775603 258.585297 
L 314.752942 257.238566 
L 315.404502 256.973276 
L 317.196291 254.812143 
L 317.652382 254.084558 
L 318.857768 252.58347 
L 321.268538 251.267241 
L 321.757208 251.970472 
L 322.636813 246.554467 
L 327.262886 235.776631 
L 327.6864 233.795278 
L 330.292638 226.486014 
L 331.954115 224.592605 
L 332.214739 225.813286 
L 332.670831 221.26161 
L 336.352142 217.999996 
L 336.87339 219.591642 
L 337.19917 218.081168 
L 337.524949 220.7073 
L 338.762913 220.62788 
L 338.925803 220.39538 
L 339.153848 223.213885 
L 340.196344 219.996348 
L 341.075949 218.803972 
L 341.694931 216.648244 
L 343.877655 217.599329 
L 349.513646 224.865943 
L 349.839425 224.388114 
L 352.641132 215.7358 
L 352.966911 216.123754 
L 353.292691 214.854958 
L 354.400342 214.847147 
L 355.051902 216.224797 
L 355.964085 213.120747 
L 357.234627 212.729585 
L 358.668058 208.244676 
L 359.612819 209.543471 
L 360.88336 207.489677 
L 361.502342 208.210787 
L 362.414525 207.003234 
L 364.238892 208.883307 
L 364.988186 211.89469 
L 365.281387 212.319622 
L 365.574589 213.370205 
L 366.095837 215.74376 
L 366.323883 215.105605 
L 366.389039 218.527069 
L 367.040598 221.758121 
L 368.734653 214.821633 
L 370.168084 217.613705 
L 370.624176 216.327177 
L 371.796983 218.278264 
L 374.11002 211.66127 
L 375.054781 212.318315 
L 375.804074 208.390775 
L 377.693597 211.68209 
L 378.149689 211.98213 
L 381.440065 202.45334 
L 384.925909 197.350888 
L 388.900422 196.009413 
L 390.301275 194.712965 
L 390.627055 195.060675 
L 391.115725 193.354383 
L 391.34377 195.339656 
L 391.930174 191.373416 
L 392.255954 190.259926 
L 395.448596 185.342095 
L 397.175229 188.252733 
L 397.696476 188.754977 
L 398.934439 189.437773 
L 400.237559 186.311714 
L 400.400448 185.212807 
L 400.563338 185.512787 
L 401.377788 187.350447 
L 402.029347 182.568053 
L 405.221989 179.159152 
L 406.459953 182.868033 
L 407.893384 182.699628 
L 409.978374 181.234627 
L 410.108686 181.684508 
L 410.271576 180.1029 
L 410.69509 185.561645 
L 414.669603 183.09581 
L 414.995383 183.347912 
L 416.103034 181.648867 
L 417.959979 189.992854 
L 418.546383 189.327582 
L 421.022309 194.202583 
L 421.348089 190.044059 
L 421.478401 190.654385 
L 421.804181 187.008677 
L 421.934492 188.14774 
L 422.390584 189.019731 
L 422.683786 189.834251 
L 423.27019 189.923562 
L 424.508153 199.94925 
L 424.801355 201.360819 
L 425.583226 198.261639 
L 426.202208 195.555077 
L 426.853767 197.576645 
L 426.984079 199.513744 
L 427.733373 199.161817 
L 433.173895 203.751273 
L 435.910445 212.302811 
L 438.451528 218.417859 
L 438.875041 217.05096 
L 440.047849 219.252902 
L 440.797142 225.59142 
L 442.230573 225.461211 
L 443.142757 229.492793 
L 443.696582 228.62196 
L 444.21783 223.947559 
L 444.38072 223.966687 
L 444.641344 226.742274 
L 445.130013 225.612478 
L 445.455793 226.133552 
L 446.758912 229.927378 
L 447.410472 229.634229 
L 448.583279 223.897929 
L 449.039371 225.362752 
L 449.332573 222.661358 
L 449.495462 223.639768 
L 449.918976 221.6509 
L 452.394903 213.848778 
L 454.382159 210.17723 
L 454.675361 204.944332 
L 456.760352 203.542594 
L 457.444489 197.840895 
L 458.193783 196.286197 
L 459.69237 198.165586 
L 461.614471 201.196483 
L 461.77736 201.081481 
L 462.070562 202.935743 
L 462.363764 199.987356 
L 462.722122 203.17742 
L 464.188131 212.360015 
L 466.696635 214.443183 
L 467.511085 219.212063 
L 468.488424 221.605369 
L 470.312791 216.730011 
L 470.605993 216.86717 
L 472.984185 213.578617 
L 473.896369 208.616236 
L 474.124414 209.783395 
L 474.938864 207.842347 
L 475.101754 206.804356 
L 477.545102 193.30894 
L 478.326974 193.752584 
L 479.630093 192.832774 
L 482.073441 185.616176 
L 483.409138 187.70873 
L 483.800074 190.997045 
L 484.972881 192.413663 
L 487.123028 191.409176 
L 488.067789 192.067676 
L 488.719349 192.121346 
L 489.273175 193.412092 
L 489.696688 193.404132 
L 489.892156 197.086282 
L 492.009725 197.28516 
L 492.335505 194.360177 
L 496.11455 185.770503 
L 497.873761 184.60958 
L 500.708045 178.98552 
L 502.108898 178.216412 
L 502.271788 178.411132 
L 502.923348 176.745501 
L 503.183972 179.597627 
L 504.324201 179.818514 
L 504.487091 179.675949 
L 504.747714 181.917007 
L 505.040916 178.541371 
L 505.203806 178.387045 
L 506.637237 181.325274 
L 508.950274 188.181837 
L 509.569255 188.787885 
L 510.220815 186.767297 
L 512.696741 194.123906 
L 513.967282 195.269978 
L 515.433292 203.223694 
L 515.596181 203.277899 
L 516.052273 202.435252 
L 516.182585 202.878836 
L 517.06219 206.368613 
L 517.22508 205.803849 
L 518.788823 204.805242 
L 521.232172 201.126211 
L 521.395062 200.330878 
L 521.948887 195.990434 
L 522.242089 201.448793 
L 523.67552 199.004283 
L 525.565043 195.305351 
L 526.640116 195.974693 
L 528.790263 195.402385 
L 529.116043 192.876405 
L 534.654299 189.441634 
L 537.325693 189.515055 
L 537.488583 187.762191 
L 539.280372 186.817908 
L 539.997088 185.348689 
L 542.53817 190.110916 
L 544.395115 193.551152 
L 544.558005 193.251677 
L 544.883784 193.404458 
L 545.76339 192.16958 
L 546.056592 192.367033 
L 550.422041 186.362354 
L 550.584931 185.757701 
L 551.23649 189.736594 
L 552.767655 197.437823 
L 554.103352 201.262301 
L 554.429132 201.323871 
L 555.015536 196.878643 
L 555.601939 196.229409 
L 556.058031 197.031187 
L 556.807325 192.628877 
L 557.133104 192.364449 
L 557.654352 190.513691 
L 559.152939 188.709683 
L 560.162856 188.779064 
L 560.879572 191.039012 
L 562.215269 187.959198 
L 562.475893 188.55497 
L 562.866829 190.639267 
L 563.550966 191.018875 
L 565.603379 198.44231 
L 566.254938 191.67001 
L 567.492902 187.975593 
L 570.164296 186.333217 
L 570.913589 190.524799 
L 572.640222 202.453162 
L 572.966002 199.834693 
L 573.975919 208.458137 
L 575.441928 201.693143 
L 576.354112 202.762171 
L 576.517002 203.141868 
L 578.536836 200.092705 
L 579.93769 192.687744 
L 580.263469 188.892344 
L 580.491515 192.504934 
L 581.468855 194.229522 
L 582.120414 192.343777 
L 582.576506 193.195215 
L 582.869708 193.117547 
L 583.716735 194.995481 
L 584.075093 192.51931 
L 584.889542 190.434122 
L 585.89946 186.949424 
L 587.202579 179.327972 
L 589.906551 172.39389 
L 590.232331 173.013958 
L 591.111936 175.493366 
L 591.763496 177.905265 
L 592.121854 181.012671 
L 592.382477 181.47666 
L 593.066615 181.074331 
L 593.78333 186.531947 
L 594.272 187.337735 
L 595.412229 196.001127 
L 597.073706 201.30308 
L 597.823 200.728663 
L 598.018468 204.891405 
L 599.712523 206.53286 
L 600.592128 206.029131 
L 601.276266 210.454935 
L 601.439156 208.320562 
L 602.058137 208.267279 
L 602.905165 210.316261 
L 603.654458 209.904694 
L 606.032651 203.393109 
L 606.130384 205.892655 
L 606.35843 207.667586 
L 607.140302 205.553856 
L 608.019907 204.436237 
L 610.300366 192.613967 
L 616.425026 190.301893 
L 616.913695 195.955565 
L 617.402365 193.791076 
L 617.630411 196.427811 
L 618.216815 196.636936 
L 618.803218 198.365385 
L 619.128998 198.246225 
L 621.702658 193.432882 
L 622.093594 193.706904 
L 623.820227 190.600626 
L 626.589355 191.18523 
L 627.79474 187.918924 
L 629.488795 192.445651 
L 629.781997 190.5714 
L 630.466135 191.420135 
L 630.629024 188.788034 
L 630.791914 189.190215 
L 631.117694 187.55577 
L 632.746593 185.635036 
L 633.235263 183.417293 
L 634.636116 180.854038 
L 635.124786 180.619193 
L 636.623373 178.121102 
L 636.949152 178.282141 
L 637.405244 177.824894 
L 637.437822 181.156216 
L 639.425079 180.153541 
L 641.119134 176.231288 
L 641.705537 178.048572 
L 644.507243 173.167423 
L 646.461922 171.785762 
L 647.732463 165.015957 
L 649.165894 168.672534 
L 651.250885 174.544063 
L 652.749472 172.149095 
L 652.912362 172.154441 
L 656.398206 175.935852 
L 658.092261 178.632761 
L 659.688582 180.336558 
L 661.871306 179.441162 
L 662.881223 183.527781 
L 663.207003 183.658346 
L 664.249499 181.050659 
L 665.161682 179.992561 
L 665.324572 179.631219 
L 666.106443 178.813551 
L 666.660269 180.651062 
L 666.725425 183.524751 
L 667.344407 181.465047 
L 668.158856 182.995331 
L 669.494553 182.022535 
L 669.657443 181.068598 
L 669.690021 184.242595 
L 671.384076 183.052001 
L 672.035636 182.818878 
L 673.175865 180.306323 
L 676.335929 184.60863 
L 678.258029 186.00119 
L 678.583809 190.993006 
L 681.418093 188.09116 
L 682.395433 190.746547 
L 683.372772 190.267232 
L 684.05691 189.022107 
L 686.369946 184.427661 
L 686.532836 183.572154 
L 689.106496 180.527031 
L 689.432276 181.016443 
L 690.572505 178.619277 
L 691.061175 176.68102 
L 692.462028 181.744237 
L 692.624918 180.812873 
L 693.341634 185.212837 
L 695.361468 179.685008 
L 695.524358 179.951188 
L 696.208496 181.535676 
L 697.153257 178.089381 
L 698.814734 184.765243 
L 699.564028 184.952418 
L 704.67877 190.114242 
L 706.209935 189.367144 
L 706.372825 187.897123 
L 708.099458 178.607129 
L 710.575384 192.175402 
L 710.901164 191.753618 
L 712.139127 193.865507 
L 712.464907 190.022585 
L 712.888421 192.627778 
L 713.735448 193.372471 
L 713.898338 194.081582 
L 715.266613 194.901567 
L 716.406843 189.276526 
L 717.74254 187.939417 
L 720.413934 193.293288 
L 720.707136 194.893844 
L 721.293539 194.441884 
L 722.042833 197.580952 
L 723.117906 202.857452 
L 724.127824 192.907828 
L 725.496099 190.384907 
L 727.190154 191.554443 
L 729.17741 192.068389 
L 731.457869 193.920365 
L 732.109428 193.993815 
L 732.23974 195.806971 
L 732.793566 197.881051 
L 733.249658 203.660744 
L 733.575437 199.818387 
L 733.836061 200.161938 
L 735.693006 195.941161 
L 735.855896 196.253259 
L 739.113694 198.127688 
L 739.928143 199.555504 
L 740.710015 197.231371 
L 741.035795 194.195158 
L 742.56696 191.602678 
L 743.707189 188.703861 
L 745.4664 188.132266 
L 746.508895 185.667589 
L 747.225611 187.300935 
L 748.496152 180.642003 
L 749.408335 184.049301 
L 749.571225 184.129048 
L 749.734115 183.910538 
L 750.157629 182.690421 
L 751.26528 178.836391 
L 754.16472 177.156384 
L 754.848858 176.293303 
L 755.793619 182.077897 
L 760.321958 189.131823 
L 762.244059 185.171612 
L 762.830462 185.302148 
L 763.416866 182.195098 
L 763.579756 182.50779 
L 764.524517 185.70914 
L 765.273811 187.124333 
L 766.707242 190.285617 
L 769.96504 183.979949 
L 772.37581 185.740415 
L 773.222838 187.029617 
L 776.545791 195.071931 
L 777.490553 193.426675 
L 778.142112 191.413364 
L 778.305002 189.221104 
L 778.402736 190.55946 
L 779.086874 190.256718 
L 780.389993 187.188517 
L 782.279516 198.166923 
L 783.289433 195.367783 
L 784.103883 204.211104 
L 784.62513 208.190412 
L 785.048644 206.296885 
L 786.547231 203.37808 
L 788.827689 201.333167 
L 789.479249 200.30881 
L 790.293698 200.317364 
L 793.095405 209.044524 
L 795.441019 210.959228 
L 795.766799 207.898244 
L 795.929689 204.948936 
L 796.092579 209.606942 
L 798.307881 208.186343 
L 799.350377 205.60111 
L 804.009028 213.607338 
L 804.856055 212.093271 
L 805.246991 211.715504 
L 805.670504 211.576385 
L 805.996284 208.85322 
L 806.094018 211.150977 
L 806.713 206.998779 
L 807.006202 207.127474 
L 807.690339 205.513165 
L 808.244165 208.230925 
L 808.830568 207.848376 
L 809.645018 201.725487 
L 812.67477 195.291243 
L 813.489219 195.470756 
L 815.41132 199.699256 
L 815.867412 196.731444 
L 818.669118 195.59152 
L 818.994898 198.395918 
L 819.776769 199.245098 
L 820.493485 200.870158 
L 824.044485 198.106927 
L 825.705961 202.986978 
L 829.289539 193.878546 
L 829.452429 194.091413 
L 830.429768 196.197985 
L 832.026089 193.046621 
L 832.970851 186.434528 
L 835.674823 173.622293 
L 836.196071 181.295276 
L 838.802309 177.796975 
L 839.128089 174.747129 
L 839.453868 175.061276 
L 839.616758 174.829312 
L 840.203162 171.792 
L 843.265492 174.371204 
L 844.047363 175.312577 
L 844.210253 175.262649 
L 844.340565 176.078506 
L 844.503455 176.185192 
L 845.839152 173.978586 
L 847.142271 179.959593 
L 849.74851 176.058844 
L 850.204601 175.703739 
L 850.497803 175.1573 
L 850.953895 171.756952 
L 853.853335 174.628919 
L 854.635207 177.51633 
L 855.417078 175.375661 
L 856.329261 170.685103 
L 856.817931 170.42614 
L 857.078555 172.118473 
L 859.521903 174.63483 
L 860.662133 177.244566 
L 861.313692 172.810239 
L 861.639472 172.426324 
L 861.737206 172.609727 
L 863.952509 181.144336 
L 865.776875 174.436189 
L 868.676315 178.28223 
L 869.099829 180.350726 
L 869.197563 181.575119 
L 869.523343 178.124844 
L 869.979435 177.779778 
L 871.868957 182.029515 
L 872.129581 183.666366 
L 872.455361 180.277928 
L 872.944031 178.429844 
L 875.257067 177.909393 
L 875.419957 177.641223 
L 876.006361 176.333815 
L 877.048856 177.563614 
L 880.795324 170.464841 
L 883.173516 172.307401 
L 886.463892 167.679749 
L 888.190525 169.422574 
L 888.516305 169.410248 
L 891.611213 172.113661 
L 892.881754 171.336476 
L 895.097056 179.966454 
L 895.259946 179.83675 
L 895.944084 180.366794 
L 896.497909 183.566481 
L 897.377515 184.92842 
L 897.703295 184.791023 
L 898.191964 180.047865 
L 898.5829 182.723686 
L 899.429927 185.751345 
L 900.537579 184.251624 
L 901.058826 187.281808 
L 902.948349 177.086112 
L 904.772716 184.359438 
L 906.694817 183.777269 
L 907.28122 184.491578 
L 907.541844 186.277261 
L 908.25856 186.259351 
L 909.170743 190.288082 
L 909.985193 189.100696 
L 910.148082 189.55925 
L 913.047523 191.766271 
L 913.24299 193.179681 
L 913.959706 192.941272 
L 915.327981 192.0484 
L 916.598522 188.536466 
L 917.087192 189.085341 
L 919.628274 182.819026 
L 921.843577 190.498751 
L 922.75576 188.297166 
L 923.016384 187.370524 
L 923.342164 184.914906 
L 924.808173 179.83479 
L 926.013558 182.564756 
L 927.544723 180.464659 
L 928.978154 175.276995 
L 929.597136 175.893468 
L 931.77986 178.978718 
L 933.115557 184.756897 
L 933.604227 183.276273 
L 934.874768 185.524638 
L 935.65664 181.633095 
L 937.122649 169.889473 
L 937.448429 168.560859 
L 937.74163 168.44651 
L 937.90452 168.253661 
L 938.2303 165.892136 
L 939.077328 167.025674 
L 939.403107 166.956203 
L 939.663731 170.107597 
L 939.826621 170.198749 
L 940.152401 169.079646 
L 941.097162 165.128731 
L 943.247309 171.441231 
L 945.3323 173.914284 
L 945.886125 175.905735 
L 946.374795 173.25011 
L 946.537685 173.138078 
L 947.873382 173.728177 
L 949.730327 179.114303 
L 950.544776 177.515766 
L 950.64251 178.238035 
L 951.847895 182.319307 
L 953.151014 181.232221 
L 954.845069 182.384441 
L 959.015051 178.067254 
L 962.435738 182.142081 
L 963.087298 181.40716 
L 963.21761 183.340516 
L 963.3805 180.825763 
L 963.804013 181.974627 
L 965.302601 184.982654 
L 966.573142 189.020919 
L 967.485325 192.702565 
L 971.850774 190.422865 
L 972.176554 189.386152 
L 972.600068 189.768077 
L 972.89327 189.344779 
L 972.991003 191.973643 
L 976.085911 184.388248 
L 976.900361 183.128748 
L 978.398948 181.706843 
L 979.376287 178.10046 
L 979.506599 179.386691 
L 980.874874 180.712691 
L 982.992443 175.444271 
L 984.360718 175.047763 
L 985.728993 181.495313 
L 986.641177 180.76155 
L 986.804066 179.803544 
L 987.129846 179.432698 
L 989.019369 174.254301 
L 989.508039 173.683953 
L 990.094442 175.150825 
L 992.244589 175.214771 
L 992.342323 175.055039 
L 993.156772 179.104502 
L 994.394736 179.150419 
L 994.883405 177.739385 
L 995.697855 176.539138 
L 996.772928 174.690044 
L 998.760185 180.068715 
L 999.704946 178.887239 
L 1000.12846 177.238151 
L 1000.551974 177.039303 
L 1001.040643 175.714669 
L 1002.571808 177.915393 
L 1003.51657 175.34804 
L 1004.070395 179.781001 
L 1004.559065 177.975953 
L 1004.852267 179.936397 
L 1006.5789 187.785655 
L 1007.653973 179.766715 
L 1008.370688 181.600454 
L 1008.761624 185.43699 
L 1010.814037 187.468567 
L 1011.56333 190.510543 
L 1011.88911 190.115727 
L 1012.37778 188.415316 
L 1012.670982 186.765604 
L 1013.811211 181.554566 
L 1014.886284 187.889341 
L 1015.212064 185.387419 
L 1016.515183 182.368284 
L 1016.678073 181.701497 
L 1016.840963 182.676075 
L 1017.459945 183.944159 
L 1018.404706 185.327007 
L 1019.121421 184.819744 
L 1019.707825 185.157979 
L 1020.359385 182.536302 
L 1025.311237 176.366991 
L 1026.418889 169.86598 
L 1027.070448 167.234323 
L 1027.20076 168.474429 
L 1028.536457 173.844635 
L 1029.220595 174.93876 
L 1030.686604 167.234947 
L 1031.663943 173.594345 
L 1031.761677 176.086079 
L 1035.671035 192.223399 
L 1035.833925 192.036995 
L 1037.756025 200.554674 
L 1039.222034 199.141204 
L 1039.743282 204.641768 
L 1044.955759 212.00295 
L 1046.291456 202.604102 
L 1046.649814 204.738445 
L 1046.812703 204.877416 
L 1048.376446 203.739066 
L 1050.265969 189.341393 
L 1054.43595 179.597835 
L 1054.92462 180.802834 
L 1055.445868 183.528197 
L 1055.543602 185.763196 
L 1056.944455 187.652357 
L 1057.563436 183.517415 
L 1059.062023 183.019033 
L 1059.811317 188.734334 
L 1060.853812 188.927807 
L 1065.121527 190.460764 
L 1065.707931 187.385999 
L 1067.597454 187.351367 
L 1068.477059 186.193623 
L 1069.943068 179.509623 
L 1070.105958 180.481974 
L 1071.506811 172.103949 
L 1075.513903 173.504113 
L 1077.045068 172.203923 
L 1077.924673 172.562087 
L 1081.573407 172.346369 
L 1081.899187 171.339891 
L 1083.625819 174.814016 
L 1085.319874 183.22296 
L 1085.645654 182.94582 
L 1086.688149 187.406641 
L 1086.818461 188.649004 
L 1087.567755 189.936482 
L 1087.665489 192.39112 
L 1088.642828 183.154291 
L 1090.336883 185.714873 
L 1091.118755 184.874216 
L 1092.063516 180.71385 
L 1092.226406 180.692317 
L 1092.48703 183.406007 
L 1092.845387 182.398906 
L 1093.822727 185.045383 
L 1094.278818 189.569259 
L 1094.441708 189.47674 
L 1094.539442 192.029926 
L 1095.191002 196.925837 
L 1096.363809 199.576116 
L 1097.406304 197.472039 
L 1097.569194 196.033412 
L 1097.927552 196.241824 
L 1102.195267 203.236763 
L 1106.723606 205.140715 
L 1107.733524 206.750122 
L 1110.86101 194.667879 
L 1111.349679 192.906729 
L 1111.479991 193.977301 
L 1111.968661 192.928619 
L 1112.164129 192.901621 
L 1112.327019 193.114696 
L 1113.76045 184.133354 
L 1114.672633 185.756246 
L 1115.389349 183.637585 
L 1115.519661 183.831622 
L 1116.138642 189.298505 
L 1116.887936 185.166295 
L 1117.506917 182.584745 
L 1118.484257 186.75209 
L 1118.940348 184.625262 
L 1120.601825 184.248357 
L 1120.732137 185.75785 
L 1123.631577 188.830744 
L 1124.022513 191.405582 
L 1125.065008 193.295901 
L 1125.651412 195.11877 
L 1129.788815 201.290724 
L 1131.48287 199.699286 
L 1133.339815 202.943139 
L 1133.502705 202.535374 
L 1136.727925 204.409744 
L 1137.835576 203.015283 
L 1140.409236 194.051554 
L 1141.353998 192.595641 
L 1142.526805 188.678467 
L 1144.611796 185.222608 
L 1145.133043 188.361706 
L 1146.696786 182.700519 
L 1146.827098 183.927022 
L 1147.315768 180.979911 
L 1149.889428 183.229078 
L 1150.703878 181.160909 
L 1150.801612 183.578421 
L 1151.844107 183.487982 
L 1153.538162 180.624004 
L 1154.385189 185.127357 
L 1155.427685 186.337613 
L 1155.590575 186.847431 
L 1157.186896 190.158853 
L 1157.349785 186.690936 
L 1157.512675 186.83561 
L 1163.08351 188.522358 
L 1163.2464 188.871167 
L 1165.754904 181.55617 
L 1166.373886 178.543005 
L 1168.426298 186.160536 
L 1169.859729 185.167929 
L 1170.511289 184.564078 
L 1172.335656 185.707447 
L 1173.410729 190.706866 
L 1173.801665 189.313415 
L 1174.388068 191.281669 
L 1175.397986 192.573781 
L 1176.896573 190.142072 
L 1180.838508 196.496123 
L 1181.13171 197.583714 
L 1181.587802 197.517659 
L 1181.718114 197.155872 
L 1182.825765 200.127099 
L 1183.086389 202.748716 
L 1185.041067 200.090181 
L 1185.138801 202.426668 
L 1188.331443 198.252729 
L 1188.657223 198.653752 
L 1189.276205 200.885811 
L 1190.416434 208.953639 
L 1190.774792 209.186495 
L 1194.390947 211.950379 
L 1194.912195 210.560106 
L 1195.498599 213.359276 
L 1195.987268 209.81473 
L 1197.322965 204.124704 
L 1200.450451 200.46471 
L 1201.036855 200.631659 
L 1201.362635 199.492092 
L 1201.655837 198.006092 
L 1202.600598 195.705394 
L 1203.187002 198.722034 
L 1204.164341 192.886028 
L 1204.294653 190.723915 
L 1204.620433 190.059236 
L 1206.998625 183.266026 
L 1207.585029 177.214182 
L 1207.747919 177.007166 
L 1208.85557 176.566909 
L 1209.051038 176.758688 
L 1210.256423 178.763326 
L 1210.484469 182.25046 
L 1211.624698 178.430883 
L 1212.276258 172.476786 
L 1214.16578 167.262302 
L 1216.934909 177.498807 
L 1217.22811 177.04459 
L 1217.521312 183.35305 
L 1219.019899 181.469146 
L 1221.137468 191.9451 
L 1221.463248 191.109107 
L 1223.548238 197.971787 
L 1223.84144 197.304763 
L 1224.590734 195.135789 
L 1225.796119 192.710554 
L 1226.57799 199.048508 
L 1227.034082 198.2328 
L 1229.216807 200.216351 
L 1229.216807 200.216351 
" style="fill:none;stroke:#0000ff;stroke-linecap:square;stroke-width:1.5;"/>
   </g>
   <g id="line2d_30">
    <path clip-path="url(#p107efce6d9)" d="M 229.333482 381.252622 
L 229.919886 341.522976 
L 230.375977 479.575924 
L 230.766913 344.190199 
L 231.516206 355.092809 
L 232.949638 350.516391 
L 233.242839 342.02972 
L 234.252757 358.50912 
L 235.099784 324.961497 
L 235.197518 371.772067 
L 235.555876 470.426666 
L 235.946812 341.253811 
L 237.087041 346.544463 
L 237.217353 420.538914 
L 238.781096 474.550812 
L 239.334921 398.730726 
L 240.116793 497.727151 
L 241.94116 483.961481 
L 242.071472 490.683758 
L 242.10405 478.309134 
L 242.657875 510.570787 
L 243.016233 486.025664 
L 243.798104 487.713952 
L 243.993572 495.252536 
L 244.091306 485.896348 
L 244.417086 437.219576 
L 244.67771 479.781265 
L 244.710288 475.37781 
L 245.16638 456.391457 
L 245.752783 482.825437 
L 246.111141 478.620451 
L 246.664967 488.444119 
L 246.92559 468.39252 
L 246.990746 470.440314 
L 247.544572 467.978425 
L 248.489333 463.009134 
L 248.749957 398.782502 
L 249.792453 372.961339 
L 250.183388 377.064115 
L 250.541746 400.478525 
L 251.421352 372.871256 
L 251.714553 404.685797 
L 252.203223 407.759908 
L 252.300957 423.915976 
L 252.398691 384.33952 
L 252.691893 377.984177 
L 253.082828 434.633281 
L 254.060168 429.431472 
L 255.363287 251.854994 
L 255.819379 423.955731 
L 256.470938 390.622319 
L 256.666406 352.111988 
L 258.099837 375.900564 
L 258.718819 399.662416 
L 258.979443 398.106344 
L 259.402956 406.276953 
L 260.15225 366.858692 
L 260.934121 415.73351 
L 265.527616 174.728002 
L 266.472378 231.063678 
L 266.504956 499.463943 
L 266.76558 349.009927 
L 267.742919 140.124122 
L 268.459634 479.021252 
L 269.599864 234.836714 
L 270.968139 208.451128 
L 271.098451 228.09355 
L 271.261341 183.924378 
L 271.326497 414.330064 
L 272.759928 147.794165 
L 273.672111 170.006911 
L 273.965313 199.119285 
L 274.551716 158.172641 
L 274.97523 270.826976 
L 275.95257 299.050919 
L 276.441239 194.619704 
L 277.744358 273.128728 
L 279.308101 355.463447 
L 281.26278 233.394018 
L 282.500743 273.158696 
L 284.097064 204.62573 
L 285.172138 199.269156 
L 285.856275 479.802607 
L 286.572991 258.450752 
L 287.029082 225.280153 
L 287.973844 243.211531 
L 289.309541 245.343617 
L 289.570165 286.203059 
L 290.156568 316.586294 
L 290.645238 262.89503 
L 291.589999 282.457393 
L 296.150916 268.775038 
L 296.509274 248.593172 
L 297.291146 238.684002 
L 298.235907 237.865888 
L 298.496531 271.827617 
L 298.724577 271.404482 
L 302.275576 261.168199 
L 302.438466 109.581081 
L 302.86198 165.343143 
L 303.676429 340.2442 
L 304.914393 263.322397 
L 305.59853 330.259055 
L 305.76142 160.832662 
L 306.315246 201.158822 
L 306.608448 143.233667 
L 307.292585 324.182797 
L 307.520631 221.376285 
L 307.976723 301.910204 
L 309.182108 340.10768 
L 310.257181 301.682367 
L 310.387493 220.300159 
L 311.071631 209.967987 
L 311.690612 241.997266 
L 312.407328 235.631809 
L 312.570218 138.1586 
L 313.775603 359.734464 
L 314.752942 272.170648 
L 315.143878 303.021733 
L 315.404502 229.140866 
L 317.196291 320.927643 
L 317.652382 214.264502 
L 318.857768 101.761375 
L 321.268538 261.675388 
L 321.757208 247.344513 
L 322.636813 253.100208 
L 327.262886 207.531645 
L 327.6864 236.638762 
L 330.292638 193.610999 
L 331.954115 211.594175 
L 332.214739 379.655823 
L 332.670831 225.501574 
L 336.352142 245.601481 
L 336.87339 137.118264 
L 337.524949 212.971945 
L 338.762913 235.387964 
L 338.925803 195.062516 
L 339.153848 278.193935 
L 340.033454 235.580308 
L 340.196344 183.067713 
L 341.075949 244.785773 
L 341.694931 213.489039 
L 343.877655 250.378261 
L 349.513646 116.661738 
L 349.839425 119.400377 
L 352.478242 241.504081 
L 352.641132 181.941451 
L 352.966911 156.453043 
L 353.292691 185.411299 
L 354.400342 107.055755 
L 355.051902 121.23171 
L 355.964085 166.54924 
L 357.234627 111.012431 
L 358.668058 393.803414 
L 359.612819 199.786132 
L 360.88336 99.008717 
L 361.502342 228.099193 
L 362.414525 257.305244 
L 364.238892 146.500331 
L 364.988186 127.569752 
L 365.281387 184.501053 
L 365.574589 197.269032 
L 366.095837 489.972903 
L 366.323883 131.662311 
L 366.389039 473.560893 
L 367.040598 226.758906 
L 368.115671 244.121807 
L 368.734653 248.342169 
L 370.168084 218.576878 
L 370.624176 282.185569 
L 371.796983 142.550159 
L 374.11002 183.234246 
L 375.054781 281.097266 
L 375.641185 112.560714 
L 375.804074 134.872156 
L 377.693597 146.240061 
L 378.149689 290.873925 
L 381.440065 218.823337 
L 384.925909 114.098928 
L 388.900422 142.795786 
L 390.301275 102.88535 
L 390.464165 136.914604 
L 390.627055 145.288857 
L 391.115725 102.126193 
L 391.34377 454.974783 
L 391.930174 168.947892 
L 392.255954 165.283681 
L 395.448596 283.790878 
L 397.175229 178.353453 
L 397.696476 137.797971 
L 398.934439 142.266989 
L 400.237559 159.795503 
L 400.400448 134.959923 
L 400.563338 184.726602 
L 401.377788 297.97613 
L 402.029347 121.414698 
L 405.221989 177.773957 
L 406.459953 207.946538 
L 407.893384 108.561417 
L 409.652594 144.711856 
L 409.978374 138.417207 
L 410.108686 216.681598 
L 410.271576 127.805548 
L 410.69509 465.311209 
L 414.669603 200.499312 
L 414.995383 129.509167 
L 416.103034 129.864748 
L 417.959979 182.490385 
L 418.546383 348.604167 
L 421.022309 124.195423 
L 421.348089 137.667376 
L 421.478401 268.979307 
L 421.804181 179.763418 
L 421.934492 237.390286 
L 422.390584 140.072413 
L 422.683786 133.032685 
L 423.27019 154.211598 
L 424.508153 176.866562 
L 425.420336 132.426488 
L 425.583226 131.841527 
L 426.202208 239.027791 
L 426.853767 201.380065 
L 426.984079 301.417539 
L 427.733373 486.303382 
L 433.173895 190.195178 
L 435.910445 422.942556 
L 438.451528 188.448522 
L 438.875041 217.61614 
L 440.047849 217.667374 
L 440.797142 267.112466 
L 442.230573 403.424277 
L 443.142757 210.060743 
L 443.696582 230.218359 
L 444.21783 173.464759 
L 444.38072 116.931244 
L 444.641344 219.535299 
L 445.130013 195.669099 
L 445.455793 148.545214 
L 446.758912 239.042285 
L 447.410472 119.325411 
L 448.583279 142.587374 
L 449.332573 248.806128 
L 449.495462 236.605111 
L 449.918976 135.835567 
L 452.394903 439.020934 
L 454.382159 142.449561 
L 454.675361 259.100818 
L 456.760352 144.829472 
L 457.444489 386.376132 
L 458.193783 221.714698 
L 459.69237 251.635266 
L 461.614471 151.124507 
L 461.77736 113.041751 
L 462.070562 188.350063 
L 462.363764 101.323969 
L 462.722122 250.993398 
L 464.188131 463.66074 
L 466.696635 134.674912 
L 467.511085 164.094602 
L 468.488424 184.406336 
L 470.312791 121.115549 
L 470.605993 120.572467 
L 472.984185 169.238843 
L 473.896369 164.582144 
L 474.124414 129.077671 
L 474.938864 186.151299 
L 475.101754 209.384719 
L 477.545102 120.667005 
L 478.326974 470.845495 
L 479.630093 183.910894 
L 482.073441 159.797909 
L 483.409138 496.055078 
L 483.800074 126.875135 
L 484.972881 275.298994 
L 487.123028 110.621715 
L 488.067789 110.861075 
L 488.719349 215.363023 
L 489.273175 358.986593 
L 489.696688 123.160522 
L 489.892156 421.91505 
L 492.009725 263.738063 
L 492.335505 133.831671 
L 496.11455 113.935365 
L 497.873761 190.430944 
L 500.708045 104.094685 
L 502.108898 195.750985 
L 502.271788 130.094366 
L 502.923348 182.854638 
L 503.183972 148.887934 
L 504.324201 463.275749 
L 504.487091 125.283311 
L 504.747714 291.20971 
L 505.040916 114.128213 
L 505.203806 157.980951 
L 506.637237 392.960255 
L 507.907778 148.887488 
L 508.950274 138.481064 
L 509.569255 154.580811 
L 510.220815 110.28348 
L 512.696741 108.413595 
L 515.433292 259.348628 
L 515.596181 127.555882 
L 516.052273 142.418197 
L 516.182585 238.45863 
L 517.22508 126.380346 
L 518.788823 476.751488 
L 521.232172 159.549638 
L 521.395062 108.244982 
L 521.948887 120.579922 
L 522.242089 315.993106 
L 523.67552 158.220044 
L 525.565043 119.224428 
L 526.640116 192.088645 
L 528.790263 244.511959 
L 529.116043 115.466451 
L 534.654299 393.531776 
L 537.325693 322.779752 
L 537.488583 103.472924 
L 539.280372 103.56078 
L 539.997088 240.88033 
L 540.811537 119.926203 
L 542.53817 202.754716 
L 544.395115 104.304344 
L 544.558005 136.822561 
L 544.883784 140.159585 
L 545.76339 137.020547 
L 546.056592 252.589381 
L 550.422041 137.910924 
L 550.584931 138.654666 
L 551.23649 106.038763 
L 552.767655 425.065457 
L 554.429132 131.402724 
L 555.015536 100.230616 
L 555.601939 147.532499 
L 556.058031 119.337915 
L 556.644435 150.924263 
L 556.807325 113.379986 
L 557.133104 137.805307 
L 557.654352 139.530043 
L 559.152939 139.749979 
L 560.162856 394.804114 
L 560.879572 229.138431 
L 562.215269 127.068904 
L 562.475893 125.929961 
L 562.736517 238.414554 
L 562.866829 208.13701 
L 563.550966 128.31991 
L 564.560884 175.22184 
L 565.603379 131.241982 
L 566.254938 162.664916 
L 567.492902 244.262352 
L 570.164296 142.317927 
L 570.913589 146.181758 
L 572.640222 153.83793 
L 572.966002 122.067585 
L 573.975919 133.36795 
L 575.441928 183.817306 
L 576.354112 195.581541 
L 576.517002 165.039272 
L 578.536836 105.8523 
L 579.93769 148.27247 
L 580.263469 112.369618 
L 580.491515 163.508008 
L 581.305965 173.676646 
L 581.468855 140.559866 
L 582.120414 130.041112 
L 582.576506 259.30219 
L 582.869708 222.598006 
L 584.075093 141.867986 
L 584.889542 126.460985 
L 585.89946 362.013109 
L 587.202579 139.46283 
L 589.906551 102.460447 
L 590.232331 135.31185 
L 591.111936 207.60661 
L 591.763496 401.027659 
L 592.121854 111.251168 
L 592.382477 306.515951 
L 593.066615 109.418439 
L 593.78333 215.110268 
L 594.272 118.921181 
L 594.728092 146.466501 
L 595.053872 341.104207 
L 595.412229 120.287842 
L 597.073706 110.05101 
L 597.823 124.049146 
L 598.018468 399.298 
L 599.712523 155.75703 
L 600.592128 231.3377 
L 601.276266 394.281674 
L 601.439156 169.882434 
L 602.058137 129.852927 
L 602.905165 146.823507 
L 603.654458 367.525019 
L 605.120467 130.799646 
L 606.032651 497.800127 
L 606.35843 135.993547 
L 607.140302 235.295238 
L 608.019907 140.091184 
L 610.300366 100.277454 
L 616.425026 255.287805 
L 616.913695 241.205081 
L 617.402365 205.792117 
L 617.630411 125.593716 
L 618.803218 118.027686 
L 619.128998 131.946015 
L 621.702658 286.635282 
L 622.093594 415.458026 
L 623.820227 228.715192 
L 626.589355 144.431122 
L 627.79474 149.410315 
L 629.488795 201.791097 
L 630.466135 130.554523 
L 630.629024 142.064726 
L 630.791914 139.970331 
L 631.117694 124.708894 
L 632.746593 138.703168 
L 633.235263 113.350998 
L 634.636116 98.835561 
L 635.124786 157.121493 
L 636.623373 132.273943 
L 637.405244 163.921802 
L 637.437822 474.600747 
L 639.425079 107.468985 
L 641.119134 155.639414 
L 641.705537 124.011277 
L 644.507243 112.477373 
L 646.461922 121.581677 
L 647.732463 143.568962 
L 649.165894 101.554478 
L 651.250885 201.972897 
L 652.749472 139.941758 
L 652.912362 144.61414 
L 656.398206 189.220748 
L 658.092261 113.288091 
L 659.688582 385.759851 
L 661.871306 114.297866 
L 662.881223 100.896542 
L 663.207003 187.478101 
L 664.249499 365.069415 
L 665.161682 101.782522 
L 665.324572 105.958838 
L 666.106443 175.681077 
L 666.660269 128.504145 
L 666.725425 393.012855 
L 667.344407 253.402237 
L 668.158856 214.54678 
L 669.494553 157.082555 
L 669.657443 123.376151 
L 669.690021 469.642148 
L 671.384076 206.037566 
L 672.035636 153.961278 
L 673.175865 160.660218 
L 676.335929 139.716714 
L 677.964828 127.017106 
L 678.258029 201.772653 
L 678.583809 498.850985 
L 681.418093 124.384202 
L 682.395433 112.583762 
L 683.209882 133.599172 
L 683.372772 129.228701 
L 684.05691 134.107623 
L 685.718387 141.834513 
L 686.369946 138.332945 
L 686.532836 112.870585 
L 689.106496 235.52447 
L 689.432276 194.903259 
L 690.572505 200.517934 
L 691.061175 161.390149 
L 692.462028 170.08054 
L 692.624918 141.356149 
L 693.341634 157.711563 
L 695.361468 120.237202 
L 695.524358 142.065439 
L 696.208496 197.57219 
L 696.990367 106.875499 
L 697.153257 115.832634 
L 697.967707 123.311135 
L 698.814734 533.146773 
L 699.564028 150.547358 
L 704.51588 146.020808 
L 704.67877 133.713431 
L 706.209935 387.293685 
L 706.372825 139.014909 
L 707.024385 134.875572 
L 707.187275 192.984308 
L 708.099458 197.188661 
L 710.575384 109.770039 
L 710.901164 146.313393 
L 712.139127 109.800423 
L 712.464907 147.56918 
L 712.888421 121.909486 
L 713.735448 363.820518 
L 713.898338 204.142762 
L 715.266613 406.074407 
L 716.406843 141.79014 
L 717.74254 115.978021 
L 720.413934 254.762721 
L 720.707136 213.731637 
L 721.293539 150.7855 
L 722.042833 354.733872 
L 723.117906 122.271215 
L 724.127824 104.687725 
L 725.496099 110.352297 
L 727.190154 371.129352 
L 729.17741 244.127718 
L 731.457869 231.220559 
L 732.109428 128.843331 
L 732.23974 297.29614 
L 732.793566 425.068828 
L 733.249658 413.204961 
L 733.575437 131.225617 
L 733.836061 245.414127 
L 735.693006 109.318584 
L 735.855896 148.308527 
L 738.950804 321.411828 
L 739.113694 120.689964 
L 739.928143 147.05865 
L 740.710015 141.424343 
L 741.035795 121.586369 
L 742.56696 104.704595 
L 743.707189 112.837379 
L 745.4664 145.064407 
L 747.225611 108.85614 
L 748.496152 114.598172 
L 749.408335 327.109889 
L 749.571225 128.304258 
L 749.734115 144.354523 
L 750.157629 111.413157 
L 751.26528 102.368345 
L 754.16472 123.864049 
L 754.848858 110.549512 
L 755.793619 325.667935 
L 760.321958 372.14719 
L 762.244059 299.534793 
L 762.830462 109.860954 
L 763.416866 342.819707 
L 763.579756 132.634484 
L 764.524517 152.61419 
L 765.273811 143.905652 
L 766.707242 134.516665 
L 769.508948 111.862206 
L 769.96504 281.057362 
L 772.37581 131.84322 
L 773.222838 162.745465 
L 776.545791 227.397329 
L 777.490553 120.919731 
L 778.142112 115.921708 
L 778.305002 130.738165 
L 778.402736 367.861412 
L 779.086874 118.255582 
L 780.389993 114.880272 
L 782.279516 206.243929 
L 783.289433 143.72109 
L 784.103883 112.085172 
L 784.62513 111.802626 
L 785.048644 110.960692 
L 786.547231 380.966127 
L 788.827689 106.102977 
L 789.479249 114.561016 
L 790.293698 150.279366 
L 792.346111 386.096223 
L 792.932515 247.343147 
L 793.095405 124.494571 
L 795.441019 131.050708 
L 795.766799 144.924812 
L 795.929689 117.583864 
L 796.092579 269.229597 
L 798.307881 137.15533 
L 799.350377 349.730488 
L 804.009028 258.038354 
L 804.856055 120.627057 
L 805.246991 307.954488 
L 805.670504 140.995876 
L 805.996284 127.655202 
L 806.094018 337.296288 
L 806.713 123.616759 
L 807.006202 247.492097 
L 807.690339 129.441627 
L 808.244165 129.459923 
L 808.830568 105.276962 
L 809.645018 99.848008 
L 811.176183 162.19365 
L 812.67477 118.896024 
L 813.489219 106.971879 
L 815.41132 118.223534 
L 815.867412 116.600583 
L 818.669118 256.135827 
L 818.994898 482.212884 
L 819.776769 104.374676 
L 820.493485 119.803567 
L 824.044485 118.330695 
L 825.705961 145.899212 
L 829.289539 134.751689 
L 829.452429 124.678569 
L 830.429768 477.612111 
L 832.026089 109.572884 
L 832.351869 110.505198 
L 832.970851 240.445448 
L 835.674823 340.999407 
L 836.196071 114.804059 
L 838.802309 113.091738 
L 839.128089 202.975691 
L 839.453868 106.300429 
L 839.616758 101.371253 
L 840.203162 118.577184 
L 843.265492 281.414398 
L 844.047363 103.624013 
L 844.210253 129.758834 
L 844.340565 206.263056 
L 844.503455 115.40696 
L 845.839152 130.600798 
L 847.142271 111.874324 
L 849.74851 120.951748 
L 850.204601 227.682132 
L 850.693271 109.678887 
L 850.953895 140.41139 
L 853.853335 161.60162 
L 854.635207 103.115592 
L 855.417078 103.375921 
L 856.329261 190.70746 
L 856.817931 139.884109 
L 857.078555 131.781946 
L 859.521903 231.475393 
L 860.662133 495.880073 
L 861.313692 101.15298 
L 861.639472 110.33014 
L 861.737206 380.741929 
L 863.952509 393.298608 
L 865.776875 114.209208 
L 868.676315 105.714814 
L 868.936939 381.008347 
L 869.099829 197.256796 
L 869.197563 341.647453 
L 869.523343 149.643081 
L 869.979435 108.94153 
L 871.282554 107.952725 
L 871.868957 405.090784 
L 872.129581 131.502668 
L 872.455361 109.689163 
L 872.944031 124.551954 
L 875.257067 128.486978 
L 875.419957 102.605982 
L 876.006361 120.080351 
L 877.048856 136.18791 
L 880.795324 103.611034 
L 883.173516 110.83574 
L 886.463892 261.738533 
L 888.190525 102.085175 
L 888.516305 107.966892 
L 891.611213 192.148998 
L 892.881754 205.921465 
L 895.097056 284.539937 
L 895.259946 113.986837 
L 895.944084 183.705512 
L 896.497909 144.649989 
L 897.377515 120.836271 
L 897.703295 107.141947 
L 898.191964 101.543311 
L 898.5829 170.793928 
L 899.429927 110.113085 
L 900.537579 132.95671 
L 901.058826 357.414624 
L 902.29679 102.273123 
L 902.459679 110.608943 
L 902.948349 112.558576 
L 904.772716 136.563241 
L 906.694817 274.752941 
L 906.792551 382.355108 
L 907.28122 159.208255 
L 907.541844 332.434489 
L 908.25856 126.989246 
L 909.170743 207.124325 
L 909.985193 134.295155 
L 910.148082 149.019569 
L 913.047523 167.925822 
L 913.24299 151.223025 
L 913.959706 197.1679 
L 915.327981 139.784284 
L 916.598522 132.096421 
L 917.087192 132.461267 
L 919.628274 149.809734 
L 921.843577 260.7216 
L 922.75576 365.796317 
L 923.016384 189.682063 
L 923.342164 117.919663 
L 924.156613 127.072855 
L 924.808173 192.240803 
L 926.013558 123.985853 
L 927.544723 133.08579 
L 928.978154 118.520247 
L 929.597136 225.622725 
L 931.77986 138.277315 
L 932.789778 126.685227 
L 933.115557 187.699285 
L 933.604227 160.500664 
L 934.874768 209.756516 
L 935.65664 272.494389 
L 937.122649 122.284372 
L 937.448429 123.310155 
L 937.74163 126.7108 
L 937.90452 121.347395 
L 938.2303 147.45697 
L 939.077328 106.193208 
L 939.403107 122.069307 
L 939.663731 373.590421 
L 939.826621 111.393733 
L 940.152401 129.29434 
L 941.097162 136.16106 
L 943.247309 115.616649 
L 945.3323 199.359121 
L 945.886125 102.514147 
L 946.374795 102.546551 
L 946.537685 121.461506 
L 947.873382 122.167142 
L 948.166584 204.297296 
L 949.046189 116.494491 
L 949.730327 490.962927 
L 950.544776 111.209973 
L 950.64251 344.719961 
L 951.847895 141.542493 
L 953.151014 129.399066 
L 954.845069 116.641303 
L 959.015051 108.789906 
L 962.435738 126.089514 
L 963.087298 109.166663 
L 963.21761 326.489851 
L 963.3805 114.236206 
L 963.804013 227.223786 
L 965.302601 121.075988 
L 966.573142 103.199705 
L 967.485325 127.736612 
L 971.850774 254.716031 
L 972.176554 108.791213 
L 972.600068 396.756219 
L 972.89327 293.352562 
L 972.991003 375.21058 
L 976.085911 383.534624 
L 976.737471 103.6075 
L 976.900361 136.862716 
L 978.398948 105.016871 
L 979.376287 123.318175 
L 979.506599 241.210843 
L 980.874874 228.594635 
L 982.992443 135.440752 
L 984.360718 256.933923 
L 985.728993 252.751162 
L 986.641177 134.813615 
L 986.804066 158.914126 
L 987.129846 111.40092 
L 989.019369 106.966771 
L 989.508039 109.656076 
L 990.094442 123.939193 
L 992.244589 138.979417 
L 992.342323 356.408889 
L 993.156772 121.518146 
L 994.394736 465.911088 
L 994.883405 163.70843 
L 995.697855 122.592579 
L 996.772928 207.901986 
L 999.704946 105.58318 
L 1000.12846 357.748834 
L 1000.551974 108.496193 
L 1001.040643 119.030154 
L 1002.571808 119.908828 
L 1003.51657 133.160666 
L 1004.070395 139.295732 
L 1004.559065 182.230234 
L 1004.852267 114.588549 
L 1006.5789 145.417997 
L 1007.230459 120.034404 
L 1007.653973 356.419953 
L 1008.370688 126.639517 
L 1008.761624 108.702675 
L 1010.814037 340.573272 
L 1011.56333 275.727268 
L 1011.88911 106.749448 
L 1012.37778 179.730123 
L 1012.670982 241.961417 
L 1013.811211 119.754472 
L 1014.886284 222.181924 
L 1015.212064 138.799102 
L 1016.515183 166.003455 
L 1016.678073 120.242013 
L 1016.840963 208.598296 
L 1017.459945 102.849204 
L 1018.404706 120.1748 
L 1019.121421 246.313502 
L 1019.707825 381.827515 
L 1020.359385 117.301734 
L 1025.311237 110.208218 
L 1026.418889 127.171224 
L 1027.070448 117.35086 
L 1027.20076 230.761233 
L 1028.536457 111.084634 
L 1029.220595 121.232066 
L 1030.686604 119.81818 
L 1031.663943 370.384318 
L 1031.761677 369.413066 
L 1035.671035 193.125893 
L 1035.833925 150.510588 
L 1037.756025 478.776032 
L 1039.222034 209.577686 
L 1039.352346 237.796298 
L 1039.743282 245.045597 
L 1044.955759 105.193057 
L 1046.291456 116.526301 
L 1046.649814 479.938638 
L 1046.812703 123.563831 
L 1048.376446 185.094122 
L 1050.265969 107.78925 
L 1054.43595 204.204451 
L 1054.92462 138.955864 
L 1055.543602 371.812698 
L 1056.944455 144.54363 
L 1057.563436 103.348477 
L 1059.062023 279.196031 
L 1059.811317 388.519058 
L 1060.853812 136.848252 
L 1065.121527 247.175069 
L 1065.707931 102.806612 
L 1067.597454 115.033856 
L 1068.477059 163.705787 
L 1069.943068 108.296187 
L 1070.105958 209.181237 
L 1071.506811 132.716072 
L 1075.513903 195.842583 
L 1077.045068 137.826157 
L 1077.761783 130.712473 
L 1077.924673 112.076944 
L 1080.596067 110.095651 
L 1081.573407 114.43253 
L 1081.899187 123.667488 
L 1083.625819 213.635495 
L 1085.319874 368.988669 
L 1085.645654 116.96148 
L 1086.688149 122.614231 
L 1086.818461 258.910791 
L 1087.567755 204.234033 
L 1087.665489 371.788417 
L 1088.642828 110.644911 
L 1090.336883 120.115339 
L 1091.118755 353.10403 
L 1092.063516 120.521797 
L 1092.226406 115.701802 
L 1092.48703 382.261238 
L 1092.845387 377.184686 
L 1093.822727 114.534315 
L 1094.278818 234.168293 
L 1094.441708 119.003779 
L 1094.539442 359.485006 
L 1095.191002 219.562416 
L 1096.363809 128.254182 
L 1097.406304 269.78162 
L 1097.569194 110.644317 
L 1097.927552 489.697767 
L 1102.195267 116.085657 
L 1106.723606 201.5087 
L 1107.733524 242.864832 
L 1110.69812 227.187284 
L 1110.86101 107.681436 
L 1111.349679 133.001677 
L 1111.479991 246.583247 
L 1112.164129 107.946101 
L 1112.327019 124.393826 
L 1113.76045 190.729974 
L 1114.672633 104.1548 
L 1115.389349 125.644089 
L 1115.519661 270.255514 
L 1116.138642 222.40088 
L 1116.887936 119.301146 
L 1117.506917 103.644656 
L 1118.484257 349.789727 
L 1118.940348 104.874603 
L 1120.601825 118.496605 
L 1120.732137 275.142797 
L 1123.631577 299.220735 
L 1124.022513 369.982701 
L 1125.065008 205.33989 
L 1125.651412 138.983278 
L 1129.788815 154.669914 
L 1131.48287 382.710659 
L 1133.339815 155.324405 
L 1133.502705 120.555062 
L 1136.727925 134.679129 
L 1137.835576 249.315678 
L 1140.409236 106.585202 
L 1141.353998 110.230345 
L 1142.526805 102.078374 
L 1144.611796 111.394 
L 1145.133043 136.598645 
L 1146.696786 107.22012 
L 1146.827098 236.09363 
L 1147.315768 134.011362 
L 1149.889428 136.983154 
L 1150.801612 366.883269 
L 1151.844107 102.58433 
L 1153.538162 102.531284 
L 1154.385189 145.954664 
L 1155.427685 151.074402 
L 1155.590575 150.509756 
L 1157.186896 371.660168 
L 1157.349785 107.270493 
L 1157.512675 146.542179 
L 1163.08351 121.07771 
L 1163.2464 150.761294 
L 1165.754904 106.085156 
L 1166.373886 112.61976 
L 1168.426298 400.669183 
L 1169.859729 112.277337 
L 1170.511289 107.523545 
L 1172.335656 145.687652 
L 1173.410729 109.775237 
L 1173.801665 256.411898 
L 1174.388068 133.962326 
L 1175.397986 144.912694 
L 1176.896573 213.517938 
L 1180.838508 126.803051 
L 1181.13171 113.63785 
L 1181.587802 207.538535 
L 1181.718114 309.195039 
L 1182.825765 111.569711 
L 1183.086389 256.741133 
L 1185.041067 103.803289 
L 1185.138801 374.387848 
L 1188.331443 118.22995 
L 1188.657223 191.289303 
L 1189.276205 374.509043 
L 1190.416434 382.54815 
L 1190.611902 126.848523 
L 1190.774792 136.787484 
L 1194.390947 137.555908 
L 1194.912195 382.717936 
L 1195.498599 141.306667 
L 1195.987268 105.653126 
L 1197.322965 426.717923 
L 1200.450451 124.237895 
L 1201.036855 107.098613 
L 1201.362635 125.222543 
L 1201.655837 116.4241 
L 1202.600598 100.374488 
L 1203.187002 153.96116 
L 1204.164341 112.535052 
L 1204.294653 255.55345 
L 1204.620433 139.369509 
L 1206.998625 99.925884 
L 1207.585029 135.506391 
L 1207.747919 110.654208 
L 1208.85557 102.143686 
L 1209.051038 124.78077 
L 1210.256423 334.674374 
L 1210.484469 226.386426 
L 1211.624698 104.376102 
L 1212.276258 150.393299 
L 1214.16578 291.789131 
L 1216.934909 110.829206 
L 1217.521312 369.427218 
L 1219.019899 121.171536 
L 1220.61622 111.86081 
L 1220.77911 144.652484 
L 1221.137468 497.950264 
L 1221.463248 117.701153 
L 1223.548238 362.039202 
L 1223.84144 172.119631 
L 1224.590734 107.331172 
L 1225.796119 102.382423 
L 1226.57799 395.594524 
L 1226.74088 111.156243 
L 1227.034082 122.599173 
L 1229.216807 109.069601 
L 1229.216807 109.069601 
" style="fill:none;stroke:#add8e6;stroke-linecap:square;stroke-opacity:0.7;stroke-width:1.5;"/>
   </g>
   <g id="line2d_31">
    <path clip-path="url(#p107efce6d9)" d="M 244.938334 471.755251 
L 261.227323 451.559785 
L 277.516313 212.69234 
L 293.805302 145.632705 
L 310.094291 258.880109 
L 326.383281 218.013747 
L 342.67227 171.375829 
L 358.961259 128.604149 
L 375.250249 185.646501 
L 391.539238 139.141198 
L 407.828228 132.092292 
L 424.117217 139.594584 
L 440.406206 135.767255 
L 456.695196 155.454704 
L 472.984185 128.668986 
L 489.273175 137.961118 
L 505.562164 142.073874 
L 521.851153 128.876328 
L 538.140143 138.199647 
L 554.429132 138.890195 
L 570.718122 143.249261 
L 587.007111 136.161417 
L 603.2961 138.902343 
L 619.58509 128.404231 
L 635.874079 159.836579 
L 652.163068 182.392134 
L 668.452058 143.919137 
L 684.741047 131.723822 
L 701.030037 154.462007 
L 717.319026 119.601036 
L 733.608015 120.828519 
L 749.897005 149.257503 
L 766.185994 154.581197 
L 782.474984 110.590648 
L 798.763973 105.502928 
L 815.052962 121.456398 
L 831.341952 149.563661 
L 847.630941 119.968616 
L 863.919931 110.868678 
L 880.20892 122.06901 
L 896.497909 118.633319 
L 912.786899 116.967717 
L 929.075888 152.896587 
L 945.364877 132.594476 
L 961.653867 114.297747 
L 977.942856 104.303037 
L 994.231846 109.970045 
L 1010.520835 127.37334 
L 1026.809824 126.765034 
L 1043.098814 115.128008 
L 1059.387803 131.810459 
L 1075.676793 125.079651 
L 1091.965782 124.892446 
L 1108.254771 103.076565 
L 1124.543761 121.553669 
L 1140.83275 109.845598 
L 1157.12174 132.689668 
L 1173.410729 115.886898 
L 1189.699718 105.20963 
L 1205.988708 108.039362 
L 1222.277697 120.193571 
" style="fill:none;stroke:#ff0000;stroke-linecap:square;stroke-width:1.5;"/>
   </g>
   <g id="patch_3">
    <path d="M 179.335656 554.862333 
L 179.335656 77.12 
" style="fill:none;stroke:#000000;stroke-linecap:square;stroke-linejoin:miter;stroke-width:0.8;"/>
   </g>
   <g id="patch_4">
    <path d="M 1279.28782 554.862333 
L 1279.28782 77.12 
" style="fill:none;stroke:#000000;stroke-linecap:square;stroke-linejoin:miter;stroke-width:0.8;"/>
   </g>
   <g id="patch_5">
    <path d="M 179.335656 554.862333 
L 1279.28782 554.862333 
" style="fill:none;stroke:#000000;stroke-linecap:square;stroke-linejoin:miter;stroke-width:0.8;"/>
   </g>
   <g id="patch_6">
    <path d="M 179.335656 77.12 
L 1279.28782 77.12 
" style="fill:none;stroke:#000000;stroke-linecap:square;stroke-linejoin:miter;stroke-width:0.8;"/>
   </g>
   <g id="text_17">
    <!-- Downward slope training -->
    <defs>
     <path d="M 19.671875 64.796875 
L 19.671875 8.109375 
L 31.59375 8.109375 
Q 46.6875 8.109375 53.6875 14.9375 
Q 60.6875 21.78125 60.6875 36.53125 
Q 60.6875 51.171875 53.6875 57.984375 
Q 46.6875 64.796875 31.59375 64.796875 
z
M 9.8125 72.90625 
L 30.078125 72.90625 
Q 51.265625 72.90625 61.171875 64.09375 
Q 71.09375 55.28125 71.09375 36.53125 
Q 71.09375 17.671875 61.125 8.828125 
Q 51.171875 0 30.078125 0 
L 9.8125 0 
z
" id="DejaVuSans-68"/>
     <path d="M 30.609375 48.390625 
Q 23.390625 48.390625 19.1875 42.75 
Q 14.984375 37.109375 14.984375 27.296875 
Q 14.984375 17.484375 19.15625 11.84375 
Q 23.34375 6.203125 30.609375 6.203125 
Q 37.796875 6.203125 41.984375 11.859375 
Q 46.1875 17.53125 46.1875 27.296875 
Q 46.1875 37.015625 41.984375 42.703125 
Q 37.796875 48.390625 30.609375 48.390625 
z
M 30.609375 56 
Q 42.328125 56 49.015625 48.375 
Q 55.71875 40.765625 55.71875 27.296875 
Q 55.71875 13.875 49.015625 6.21875 
Q 42.328125 -1.421875 30.609375 -1.421875 
Q 18.84375 -1.421875 12.171875 6.21875 
Q 5.515625 13.875 5.515625 27.296875 
Q 5.515625 40.765625 12.171875 48.375 
Q 18.84375 56 30.609375 56 
z
" id="DejaVuSans-111"/>
     <path d="M 54.890625 33.015625 
L 54.890625 0 
L 45.90625 0 
L 45.90625 32.71875 
Q 45.90625 40.484375 42.875 44.328125 
Q 39.84375 48.1875 33.796875 48.1875 
Q 26.515625 48.1875 22.3125 43.546875 
Q 18.109375 38.921875 18.109375 30.90625 
L 18.109375 0 
L 9.078125 0 
L 9.078125 54.6875 
L 18.109375 54.6875 
L 18.109375 46.1875 
Q 21.34375 51.125 25.703125 53.5625 
Q 30.078125 56 35.796875 56 
Q 45.21875 56 50.046875 50.171875 
Q 54.890625 44.34375 54.890625 33.015625 
z
" id="DejaVuSans-110"/>
     <path d="M 9.421875 54.6875 
L 18.40625 54.6875 
L 18.40625 0 
L 9.421875 0 
z
M 9.421875 75.984375 
L 18.40625 75.984375 
L 18.40625 64.59375 
L 9.421875 64.59375 
z
" id="DejaVuSans-105"/>
     <path d="M 45.40625 27.984375 
Q 45.40625 37.75 41.375 43.109375 
Q 37.359375 48.484375 30.078125 48.484375 
Q 22.859375 48.484375 18.828125 43.109375 
Q 14.796875 37.75 14.796875 27.984375 
Q 14.796875 18.265625 18.828125 12.890625 
Q 22.859375 7.515625 30.078125 7.515625 
Q 37.359375 7.515625 41.375 12.890625 
Q 45.40625 18.265625 45.40625 27.984375 
z
M 54.390625 6.78125 
Q 54.390625 -7.171875 48.1875 -13.984375 
Q 42 -20.796875 29.203125 -20.796875 
Q 24.46875 -20.796875 20.265625 -20.09375 
Q 16.0625 -19.390625 12.109375 -17.921875 
L 12.109375 -9.1875 
Q 16.0625 -11.328125 19.921875 -12.34375 
Q 23.78125 -13.375 27.78125 -13.375 
Q 36.625 -13.375 41.015625 -8.765625 
Q 45.40625 -4.15625 45.40625 5.171875 
L 45.40625 9.625 
Q 42.625 4.78125 38.28125 2.390625 
Q 33.9375 0 27.875 0 
Q 17.828125 0 11.671875 7.65625 
Q 5.515625 15.328125 5.515625 27.984375 
Q 5.515625 40.671875 11.671875 48.328125 
Q 17.828125 56 27.875 56 
Q 33.9375 56 38.28125 53.609375 
Q 42.625 51.21875 45.40625 46.390625 
L 45.40625 54.6875 
L 54.390625 54.6875 
z
" id="DejaVuSans-103"/>
    </defs>
    <g transform="translate(554.589551 71.12)scale(0.28 -0.28)">
     <use xlink:href="#DejaVuSans-68"/>
     <use x="77.001953" xlink:href="#DejaVuSans-111"/>
     <use x="138.183594" xlink:href="#DejaVuSans-119"/>
     <use x="219.970703" xlink:href="#DejaVuSans-110"/>
     <use x="283.349609" xlink:href="#DejaVuSans-119"/>
     <use x="365.136719" xlink:href="#DejaVuSans-97"/>
     <use x="426.416016" xlink:href="#DejaVuSans-114"/>
     <use x="467.513672" xlink:href="#DejaVuSans-100"/>
     <use x="530.990234" xlink:href="#DejaVuSans-32"/>
     <use x="562.777344" xlink:href="#DejaVuSans-115"/>
     <use x="614.876953" xlink:href="#DejaVuSans-108"/>
     <use x="642.660156" xlink:href="#DejaVuSans-111"/>
     <use x="703.841797" xlink:href="#DejaVuSans-112"/>
     <use x="767.318359" xlink:href="#DejaVuSans-101"/>
     <use x="828.841797" xlink:href="#DejaVuSans-32"/>
     <use x="860.628906" xlink:href="#DejaVuSans-116"/>
     <use x="899.837891" xlink:href="#DejaVuSans-114"/>
     <use x="940.951172" xlink:href="#DejaVuSans-97"/>
     <use x="1002.230469" xlink:href="#DejaVuSans-105"/>
     <use x="1030.013672" xlink:href="#DejaVuSans-110"/>
     <use x="1093.392578" xlink:href="#DejaVuSans-105"/>
     <use x="1121.175781" xlink:href="#DejaVuSans-110"/>
     <use x="1184.554688" xlink:href="#DejaVuSans-103"/>
    </g>
   </g>
   <g id="legend_1">
    <g id="patch_7">
     <path d="M 613.952832 545.862333 
L 844.670645 545.862333 
Q 848.270645 545.862333 848.270645 542.262333 
L 848.270645 464.800458 
Q 848.270645 461.200458 844.670645 461.200458 
L 613.952832 461.200458 
Q 610.352832 461.200458 610.352832 464.800458 
L 610.352832 542.262333 
Q 610.352832 545.862333 613.952832 545.862333 
z
" style="fill:#ffffff;opacity:0.8;stroke:#cccccc;stroke-linejoin:miter;"/>
    </g>
    <g id="line2d_32">
     <path d="M 617.552832 475.777646 
L 653.552832 475.777646 
" style="fill:none;stroke:#0000ff;stroke-linecap:square;stroke-width:1.5;"/>
    </g>
    <g id="line2d_33"/>
    <g id="text_18">
     <!-- Mean reward -->
     <defs>
      <path d="M 9.8125 72.90625 
L 24.515625 72.90625 
L 43.109375 23.296875 
L 61.8125 72.90625 
L 76.515625 72.90625 
L 76.515625 0 
L 66.890625 0 
L 66.890625 64.015625 
L 48.09375 14.015625 
L 38.1875 14.015625 
L 19.390625 64.015625 
L 19.390625 0 
L 9.8125 0 
z
" id="DejaVuSans-77"/>
     </defs>
     <g transform="translate(667.952832 482.077646)scale(0.18 -0.18)">
      <use xlink:href="#DejaVuSans-77"/>
      <use x="86.279297" xlink:href="#DejaVuSans-101"/>
      <use x="147.802734" xlink:href="#DejaVuSans-97"/>
      <use x="209.082031" xlink:href="#DejaVuSans-110"/>
      <use x="272.460938" xlink:href="#DejaVuSans-32"/>
      <use x="304.248047" xlink:href="#DejaVuSans-114"/>
      <use x="345.330078" xlink:href="#DejaVuSans-101"/>
      <use x="406.853516" xlink:href="#DejaVuSans-119"/>
      <use x="488.640625" xlink:href="#DejaVuSans-97"/>
      <use x="549.919922" xlink:href="#DejaVuSans-114"/>
      <use x="591.017578" xlink:href="#DejaVuSans-100"/>
     </g>
    </g>
    <g id="line2d_34">
     <path d="M 617.552832 502.198271 
L 653.552832 502.198271 
" style="fill:none;stroke:#add8e6;stroke-linecap:square;stroke-opacity:0.7;stroke-width:1.5;"/>
    </g>
    <g id="line2d_35"/>
    <g id="text_19">
     <!-- Episode rewards -->
     <defs>
      <path d="M 9.8125 72.90625 
L 55.90625 72.90625 
L 55.90625 64.59375 
L 19.671875 64.59375 
L 19.671875 43.015625 
L 54.390625 43.015625 
L 54.390625 34.71875 
L 19.671875 34.71875 
L 19.671875 8.296875 
L 56.78125 8.296875 
L 56.78125 0 
L 9.8125 0 
z
" id="DejaVuSans-69"/>
     </defs>
     <g transform="translate(667.952832 508.498271)scale(0.18 -0.18)">
      <use xlink:href="#DejaVuSans-69"/>
      <use x="63.183594" xlink:href="#DejaVuSans-112"/>
      <use x="126.660156" xlink:href="#DejaVuSans-105"/>
      <use x="154.443359" xlink:href="#DejaVuSans-115"/>
      <use x="206.542969" xlink:href="#DejaVuSans-111"/>
      <use x="267.724609" xlink:href="#DejaVuSans-100"/>
      <use x="331.201172" xlink:href="#DejaVuSans-101"/>
      <use x="392.724609" xlink:href="#DejaVuSans-32"/>
      <use x="424.511719" xlink:href="#DejaVuSans-114"/>
      <use x="465.59375" xlink:href="#DejaVuSans-101"/>
      <use x="527.117188" xlink:href="#DejaVuSans-119"/>
      <use x="608.904297" xlink:href="#DejaVuSans-97"/>
      <use x="670.183594" xlink:href="#DejaVuSans-114"/>
      <use x="711.28125" xlink:href="#DejaVuSans-100"/>
      <use x="774.757812" xlink:href="#DejaVuSans-115"/>
     </g>
    </g>
    <g id="line2d_36">
     <path d="M 617.552832 528.618896 
L 653.552832 528.618896 
" style="fill:none;stroke:#ff0000;stroke-linecap:square;stroke-width:1.5;"/>
    </g>
    <g id="line2d_37"/>
    <g id="text_20">
     <!-- Evaluation rewards -->
     <g transform="translate(667.952832 534.918896)scale(0.18 -0.18)">
      <use xlink:href="#DejaVuSans-69"/>
      <use x="63.183594" xlink:href="#DejaVuSans-118"/>
      <use x="122.363281" xlink:href="#DejaVuSans-97"/>
      <use x="183.642578" xlink:href="#DejaVuSans-108"/>
      <use x="211.425781" xlink:href="#DejaVuSans-117"/>
      <use x="274.804688" xlink:href="#DejaVuSans-97"/>
      <use x="336.083984" xlink:href="#DejaVuSans-116"/>
      <use x="375.292969" xlink:href="#DejaVuSans-105"/>
      <use x="403.076172" xlink:href="#DejaVuSans-111"/>
      <use x="464.257812" xlink:href="#DejaVuSans-110"/>
      <use x="527.636719" xlink:href="#DejaVuSans-32"/>
      <use x="559.423828" xlink:href="#DejaVuSans-114"/>
      <use x="600.505859" xlink:href="#DejaVuSans-101"/>
      <use x="662.029297" xlink:href="#DejaVuSans-119"/>
      <use x="743.816406" xlink:href="#DejaVuSans-97"/>
      <use x="805.095703" xlink:href="#DejaVuSans-114"/>
      <use x="846.193359" xlink:href="#DejaVuSans-100"/>
      <use x="909.669922" xlink:href="#DejaVuSans-115"/>
     </g>
    </g>
   </g>
  </g>
 </g>
 <defs>
  <clipPath id="p107efce6d9">
   <rect height="477.742333" width="1099.952164" x="179.335656" y="77.12"/>
  </clipPath>
 </defs>
</svg>
