<?xml version="1.0" encoding="utf-8" standalone="no"?>
<!DOCTYPE svg PUBLIC "-//W3C//DTD SVG 1.1//EN"
  "http://www.w3.org/Graphics/SVG/1.1/DTD/svg11.dtd">
<!-- Created with matplotlib (https://matplotlib.org/) -->
<svg height="694.08pt" version="1.1" viewBox="0 0 1334.16 694.08" width="1334.16pt" xmlns="http://www.w3.org/2000/svg" xmlns:xlink="http://www.w3.org/1999/xlink">
 <defs>
  <style type="text/css">
*{stroke-linecap:butt;stroke-linejoin:round;}
  </style>
 </defs>
 <g id="figure_1">
  <g id="patch_1">
   <path d="M 0 694.08 
L 1334.16 694.08 
L 1334.16 0 
L 0 0 
z
" style="fill:#ffffff;"/>
  </g>
  <g id="axes_1">
   <g id="patch_2">
    <path d="M 179.335656 554.862333 
L 1302.890625 554.862333 
L 1302.890625 77.12 
L 179.335656 77.12 
z
" style="fill:#ffffff;"/>
   </g>
   <g id="PathCollection_1">
    <defs>
     <path d="M 0 3.162278 
C 0.838646 3.162278 1.643056 2.82908 2.236068 2.236068 
C 2.82908 1.643056 3.162278 0.838646 3.162278 0 
C 3.162278 -0.838646 2.82908 -1.643056 2.236068 -2.236068 
C 1.643056 -2.82908 0.838646 -3.162278 0 -3.162278 
C -0.838646 -3.162278 -1.643056 -2.82908 -2.236068 -2.236068 
C -2.82908 -1.643056 -3.162278 -0.838646 -3.162278 0 
C -3.162278 0.838646 -2.82908 1.643056 -2.236068 2.236068 
C -1.643056 2.82908 -0.838646 3.162278 0 3.162278 
z
" id="m094cee4107" style="stroke:#000000;"/>
    </defs>
    <g clip-path="url(#p0a071ce40b)">
     <use style="stroke:#000000;" x="245.979113" xlink:href="#m094cee4107" y="508.911148"/>
     <use style="stroke:#000000;" x="262.033522" xlink:href="#m094cee4107" y="356.429251"/>
     <use style="stroke:#000000;" x="278.087931" xlink:href="#m094cee4107" y="278.407561"/>
     <use style="stroke:#000000;" x="294.14234" xlink:href="#m094cee4107" y="233.101384"/>
     <use style="stroke:#000000;" x="310.196749" xlink:href="#m094cee4107" y="136.891708"/>
     <use style="stroke:#000000;" x="326.251158" xlink:href="#m094cee4107" y="164.04025"/>
     <use style="stroke:#000000;" x="342.305567" xlink:href="#m094cee4107" y="160.094074"/>
     <use style="stroke:#000000;" x="358.359976" xlink:href="#m094cee4107" y="150.29713"/>
     <use style="stroke:#000000;" x="374.414385" xlink:href="#m094cee4107" y="207.917162"/>
     <use style="stroke:#000000;" x="390.468794" xlink:href="#m094cee4107" y="183.353836"/>
     <use style="stroke:#000000;" x="406.523203" xlink:href="#m094cee4107" y="159.027553"/>
     <use style="stroke:#000000;" x="422.577612" xlink:href="#m094cee4107" y="178.777697"/>
     <use style="stroke:#000000;" x="438.632021" xlink:href="#m094cee4107" y="127.245604"/>
     <use style="stroke:#000000;" x="454.68643" xlink:href="#m094cee4107" y="138.614262"/>
     <use style="stroke:#000000;" x="470.740839" xlink:href="#m094cee4107" y="127.048923"/>
     <use style="stroke:#000000;" x="486.795248" xlink:href="#m094cee4107" y="129.160304"/>
     <use style="stroke:#000000;" x="502.849657" xlink:href="#m094cee4107" y="124.038169"/>
     <use style="stroke:#000000;" x="518.904066" xlink:href="#m094cee4107" y="143.44476"/>
     <use style="stroke:#000000;" x="534.958475" xlink:href="#m094cee4107" y="111.098805"/>
     <use style="stroke:#000000;" x="551.012884" xlink:href="#m094cee4107" y="126.253448"/>
     <use style="stroke:#000000;" x="567.067293" xlink:href="#m094cee4107" y="136.613106"/>
     <use style="stroke:#000000;" x="583.121702" xlink:href="#m094cee4107" y="202.11894"/>
     <use style="stroke:#000000;" x="599.176111" xlink:href="#m094cee4107" y="114.153479"/>
     <use style="stroke:#000000;" x="615.23052" xlink:href="#m094cee4107" y="127.692456"/>
     <use style="stroke:#000000;" x="631.284929" xlink:href="#m094cee4107" y="127.64926"/>
     <use style="stroke:#000000;" x="647.339338" xlink:href="#m094cee4107" y="169.606214"/>
     <use style="stroke:#000000;" x="663.393747" xlink:href="#m094cee4107" y="111.014586"/>
     <use style="stroke:#000000;" x="679.448156" xlink:href="#m094cee4107" y="124.342211"/>
     <use style="stroke:#000000;" x="695.502565" xlink:href="#m094cee4107" y="145.591592"/>
     <use style="stroke:#000000;" x="711.556974" xlink:href="#m094cee4107" y="123.604005"/>
     <use style="stroke:#000000;" x="727.611383" xlink:href="#m094cee4107" y="117.742972"/>
     <use style="stroke:#000000;" x="743.665792" xlink:href="#m094cee4107" y="131.365539"/>
     <use style="stroke:#000000;" x="759.720201" xlink:href="#m094cee4107" y="122.742161"/>
     <use style="stroke:#000000;" x="775.77461" xlink:href="#m094cee4107" y="124.657901"/>
     <use style="stroke:#000000;" x="791.829019" xlink:href="#m094cee4107" y="123.185614"/>
     <use style="stroke:#000000;" x="807.883428" xlink:href="#m094cee4107" y="130.956782"/>
     <use style="stroke:#000000;" x="823.937837" xlink:href="#m094cee4107" y="110.561373"/>
     <use style="stroke:#000000;" x="839.992246" xlink:href="#m094cee4107" y="122.371028"/>
     <use style="stroke:#000000;" x="856.046654" xlink:href="#m094cee4107" y="127.23937"/>
     <use style="stroke:#000000;" x="872.101063" xlink:href="#m094cee4107" y="109.433364"/>
     <use style="stroke:#000000;" x="888.155472" xlink:href="#m094cee4107" y="118.563855"/>
     <use style="stroke:#000000;" x="904.209881" xlink:href="#m094cee4107" y="121.102285"/>
     <use style="stroke:#000000;" x="920.26429" xlink:href="#m094cee4107" y="110.38437"/>
     <use style="stroke:#000000;" x="936.318699" xlink:href="#m094cee4107" y="115.389069"/>
     <use style="stroke:#000000;" x="952.373108" xlink:href="#m094cee4107" y="113.548325"/>
     <use style="stroke:#000000;" x="968.427517" xlink:href="#m094cee4107" y="116.922656"/>
     <use style="stroke:#000000;" x="984.481926" xlink:href="#m094cee4107" y="134.518474"/>
     <use style="stroke:#000000;" x="1000.536335" xlink:href="#m094cee4107" y="123.915949"/>
     <use style="stroke:#000000;" x="1016.590744" xlink:href="#m094cee4107" y="115.467905"/>
     <use style="stroke:#000000;" x="1032.645153" xlink:href="#m094cee4107" y="112.80653"/>
     <use style="stroke:#000000;" x="1048.699562" xlink:href="#m094cee4107" y="115.119503"/>
     <use style="stroke:#000000;" x="1064.753971" xlink:href="#m094cee4107" y="161.894268"/>
     <use style="stroke:#000000;" x="1080.80838" xlink:href="#m094cee4107" y="108.789799"/>
     <use style="stroke:#000000;" x="1096.862789" xlink:href="#m094cee4107" y="134.885169"/>
     <use style="stroke:#000000;" x="1112.917198" xlink:href="#m094cee4107" y="119.400133"/>
     <use style="stroke:#000000;" x="1128.971607" xlink:href="#m094cee4107" y="121.851573"/>
     <use style="stroke:#000000;" x="1145.026016" xlink:href="#m094cee4107" y="114.029621"/>
     <use style="stroke:#000000;" x="1161.080425" xlink:href="#m094cee4107" y="114.329853"/>
     <use style="stroke:#000000;" x="1177.134834" xlink:href="#m094cee4107" y="143.040159"/>
     <use style="stroke:#000000;" x="1193.189243" xlink:href="#m094cee4107" y="128.120702"/>
     <use style="stroke:#000000;" x="1209.243652" xlink:href="#m094cee4107" y="129.705954"/>
     <use style="stroke:#000000;" x="1225.298061" xlink:href="#m094cee4107" y="130.888651"/>
     <use style="stroke:#000000;" x="1241.35247" xlink:href="#m094cee4107" y="113.465239"/>
    </g>
   </g>
   <g id="matplotlib.axis_1">
    <g id="xtick_1">
     <g id="line2d_1">
      <path clip-path="url(#p0a071ce40b)" d="M 229.924704 554.862333 
L 229.924704 77.12 
" style="fill:none;stroke:#b0b0b0;stroke-linecap:square;stroke-width:0.8;"/>
     </g>
     <g id="line2d_2">
      <defs>
       <path d="M 0 0 
L 0 3.5 
" id="mdf98b1cf71" style="stroke:#000000;stroke-width:0.8;"/>
      </defs>
      <g>
       <use style="stroke:#000000;stroke-width:0.8;" x="229.924704" xlink:href="#mdf98b1cf71" y="554.862333"/>
      </g>
     </g>
     <g id="text_1">
      <!-- 0 -->
      <defs>
       <path d="M 31.78125 66.40625 
Q 24.171875 66.40625 20.328125 58.90625 
Q 16.5 51.421875 16.5 36.375 
Q 16.5 21.390625 20.328125 13.890625 
Q 24.171875 6.390625 31.78125 6.390625 
Q 39.453125 6.390625 43.28125 13.890625 
Q 47.125 21.390625 47.125 36.375 
Q 47.125 51.421875 43.28125 58.90625 
Q 39.453125 66.40625 31.78125 66.40625 
z
M 31.78125 74.21875 
Q 44.046875 74.21875 50.515625 64.515625 
Q 56.984375 54.828125 56.984375 36.375 
Q 56.984375 17.96875 50.515625 8.265625 
Q 44.046875 -1.421875 31.78125 -1.421875 
Q 19.53125 -1.421875 13.0625 8.265625 
Q 6.59375 17.96875 6.59375 36.375 
Q 6.59375 54.828125 13.0625 64.515625 
Q 19.53125 74.21875 31.78125 74.21875 
z
" id="DejaVuSans-48"/>
      </defs>
      <g transform="translate(223.562204 577.059208)scale(0.2 -0.2)">
       <use xlink:href="#DejaVuSans-48"/>
      </g>
     </g>
    </g>
    <g id="xtick_2">
     <g id="line2d_3">
      <path clip-path="url(#p0a071ce40b)" d="M 390.468794 554.862333 
L 390.468794 77.12 
" style="fill:none;stroke:#b0b0b0;stroke-linecap:square;stroke-width:0.8;"/>
     </g>
     <g id="line2d_4">
      <g>
       <use style="stroke:#000000;stroke-width:0.8;" x="390.468794" xlink:href="#mdf98b1cf71" y="554.862333"/>
      </g>
     </g>
     <g id="text_2">
      <!-- 5000 -->
      <defs>
       <path d="M 10.796875 72.90625 
L 49.515625 72.90625 
L 49.515625 64.59375 
L 19.828125 64.59375 
L 19.828125 46.734375 
Q 21.96875 47.46875 24.109375 47.828125 
Q 26.265625 48.1875 28.421875 48.1875 
Q 40.625 48.1875 47.75 41.5 
Q 54.890625 34.8125 54.890625 23.390625 
Q 54.890625 11.625 47.5625 5.09375 
Q 40.234375 -1.421875 26.90625 -1.421875 
Q 22.3125 -1.421875 17.546875 -0.640625 
Q 12.796875 0.140625 7.71875 1.703125 
L 7.71875 11.625 
Q 12.109375 9.234375 16.796875 8.0625 
Q 21.484375 6.890625 26.703125 6.890625 
Q 35.15625 6.890625 40.078125 11.328125 
Q 45.015625 15.765625 45.015625 23.390625 
Q 45.015625 31 40.078125 35.4375 
Q 35.15625 39.890625 26.703125 39.890625 
Q 22.75 39.890625 18.8125 39.015625 
Q 14.890625 38.140625 10.796875 36.28125 
z
" id="DejaVuSans-53"/>
      </defs>
      <g transform="translate(365.018794 577.059208)scale(0.2 -0.2)">
       <use xlink:href="#DejaVuSans-53"/>
       <use x="63.623047" xlink:href="#DejaVuSans-48"/>
       <use x="127.246094" xlink:href="#DejaVuSans-48"/>
       <use x="190.869141" xlink:href="#DejaVuSans-48"/>
      </g>
     </g>
    </g>
    <g id="xtick_3">
     <g id="line2d_5">
      <path clip-path="url(#p0a071ce40b)" d="M 551.012884 554.862333 
L 551.012884 77.12 
" style="fill:none;stroke:#b0b0b0;stroke-linecap:square;stroke-width:0.8;"/>
     </g>
     <g id="line2d_6">
      <g>
       <use style="stroke:#000000;stroke-width:0.8;" x="551.012884" xlink:href="#mdf98b1cf71" y="554.862333"/>
      </g>
     </g>
     <g id="text_3">
      <!-- 10000 -->
      <defs>
       <path d="M 12.40625 8.296875 
L 28.515625 8.296875 
L 28.515625 63.921875 
L 10.984375 60.40625 
L 10.984375 69.390625 
L 28.421875 72.90625 
L 38.28125 72.90625 
L 38.28125 8.296875 
L 54.390625 8.296875 
L 54.390625 0 
L 12.40625 0 
z
" id="DejaVuSans-49"/>
      </defs>
      <g transform="translate(519.200384 577.059208)scale(0.2 -0.2)">
       <use xlink:href="#DejaVuSans-49"/>
       <use x="63.623047" xlink:href="#DejaVuSans-48"/>
       <use x="127.246094" xlink:href="#DejaVuSans-48"/>
       <use x="190.869141" xlink:href="#DejaVuSans-48"/>
       <use x="254.492188" xlink:href="#DejaVuSans-48"/>
      </g>
     </g>
    </g>
    <g id="xtick_4">
     <g id="line2d_7">
      <path clip-path="url(#p0a071ce40b)" d="M 711.556974 554.862333 
L 711.556974 77.12 
" style="fill:none;stroke:#b0b0b0;stroke-linecap:square;stroke-width:0.8;"/>
     </g>
     <g id="line2d_8">
      <g>
       <use style="stroke:#000000;stroke-width:0.8;" x="711.556974" xlink:href="#mdf98b1cf71" y="554.862333"/>
      </g>
     </g>
     <g id="text_4">
      <!-- 15000 -->
      <g transform="translate(679.744474 577.059208)scale(0.2 -0.2)">
       <use xlink:href="#DejaVuSans-49"/>
       <use x="63.623047" xlink:href="#DejaVuSans-53"/>
       <use x="127.246094" xlink:href="#DejaVuSans-48"/>
       <use x="190.869141" xlink:href="#DejaVuSans-48"/>
       <use x="254.492188" xlink:href="#DejaVuSans-48"/>
      </g>
     </g>
    </g>
    <g id="xtick_5">
     <g id="line2d_9">
      <path clip-path="url(#p0a071ce40b)" d="M 872.101063 554.862333 
L 872.101063 77.12 
" style="fill:none;stroke:#b0b0b0;stroke-linecap:square;stroke-width:0.8;"/>
     </g>
     <g id="line2d_10">
      <g>
       <use style="stroke:#000000;stroke-width:0.8;" x="872.101063" xlink:href="#mdf98b1cf71" y="554.862333"/>
      </g>
     </g>
     <g id="text_5">
      <!-- 20000 -->
      <defs>
       <path d="M 19.1875 8.296875 
L 53.609375 8.296875 
L 53.609375 0 
L 7.328125 0 
L 7.328125 8.296875 
Q 12.9375 14.109375 22.625 23.890625 
Q 32.328125 33.6875 34.8125 36.53125 
Q 39.546875 41.84375 41.421875 45.53125 
Q 43.3125 49.21875 43.3125 52.78125 
Q 43.3125 58.59375 39.234375 62.25 
Q 35.15625 65.921875 28.609375 65.921875 
Q 23.96875 65.921875 18.8125 64.3125 
Q 13.671875 62.703125 7.8125 59.421875 
L 7.8125 69.390625 
Q 13.765625 71.78125 18.9375 73 
Q 24.125 74.21875 28.421875 74.21875 
Q 39.75 74.21875 46.484375 68.546875 
Q 53.21875 62.890625 53.21875 53.421875 
Q 53.21875 48.921875 51.53125 44.890625 
Q 49.859375 40.875 45.40625 35.40625 
Q 44.1875 33.984375 37.640625 27.21875 
Q 31.109375 20.453125 19.1875 8.296875 
z
" id="DejaVuSans-50"/>
      </defs>
      <g transform="translate(840.288563 577.059208)scale(0.2 -0.2)">
       <use xlink:href="#DejaVuSans-50"/>
       <use x="63.623047" xlink:href="#DejaVuSans-48"/>
       <use x="127.246094" xlink:href="#DejaVuSans-48"/>
       <use x="190.869141" xlink:href="#DejaVuSans-48"/>
       <use x="254.492188" xlink:href="#DejaVuSans-48"/>
      </g>
     </g>
    </g>
    <g id="xtick_6">
     <g id="line2d_11">
      <path clip-path="url(#p0a071ce40b)" d="M 1032.645153 554.862333 
L 1032.645153 77.12 
" style="fill:none;stroke:#b0b0b0;stroke-linecap:square;stroke-width:0.8;"/>
     </g>
     <g id="line2d_12">
      <g>
       <use style="stroke:#000000;stroke-width:0.8;" x="1032.645153" xlink:href="#mdf98b1cf71" y="554.862333"/>
      </g>
     </g>
     <g id="text_6">
      <!-- 25000 -->
      <g transform="translate(1000.832653 577.059208)scale(0.2 -0.2)">
       <use xlink:href="#DejaVuSans-50"/>
       <use x="63.623047" xlink:href="#DejaVuSans-53"/>
       <use x="127.246094" xlink:href="#DejaVuSans-48"/>
       <use x="190.869141" xlink:href="#DejaVuSans-48"/>
       <use x="254.492188" xlink:href="#DejaVuSans-48"/>
      </g>
     </g>
    </g>
    <g id="xtick_7">
     <g id="line2d_13">
      <path clip-path="url(#p0a071ce40b)" d="M 1193.189243 554.862333 
L 1193.189243 77.12 
" style="fill:none;stroke:#b0b0b0;stroke-linecap:square;stroke-width:0.8;"/>
     </g>
     <g id="line2d_14">
      <g>
       <use style="stroke:#000000;stroke-width:0.8;" x="1193.189243" xlink:href="#mdf98b1cf71" y="554.862333"/>
      </g>
     </g>
     <g id="text_7">
      <!-- 30000 -->
      <defs>
       <path d="M 40.578125 39.3125 
Q 47.65625 37.796875 51.625 33 
Q 55.609375 28.21875 55.609375 21.1875 
Q 55.609375 10.40625 48.1875 4.484375 
Q 40.765625 -1.421875 27.09375 -1.421875 
Q 22.515625 -1.421875 17.65625 -0.515625 
Q 12.796875 0.390625 7.625 2.203125 
L 7.625 11.71875 
Q 11.71875 9.328125 16.59375 8.109375 
Q 21.484375 6.890625 26.8125 6.890625 
Q 36.078125 6.890625 40.9375 10.546875 
Q 45.796875 14.203125 45.796875 21.1875 
Q 45.796875 27.640625 41.28125 31.265625 
Q 36.765625 34.90625 28.71875 34.90625 
L 20.21875 34.90625 
L 20.21875 43.015625 
L 29.109375 43.015625 
Q 36.375 43.015625 40.234375 45.921875 
Q 44.09375 48.828125 44.09375 54.296875 
Q 44.09375 59.90625 40.109375 62.90625 
Q 36.140625 65.921875 28.71875 65.921875 
Q 24.65625 65.921875 20.015625 65.03125 
Q 15.375 64.15625 9.8125 62.3125 
L 9.8125 71.09375 
Q 15.4375 72.65625 20.34375 73.4375 
Q 25.25 74.21875 29.59375 74.21875 
Q 40.828125 74.21875 47.359375 69.109375 
Q 53.90625 64.015625 53.90625 55.328125 
Q 53.90625 49.265625 50.4375 45.09375 
Q 46.96875 40.921875 40.578125 39.3125 
z
" id="DejaVuSans-51"/>
      </defs>
      <g transform="translate(1161.376743 577.059208)scale(0.2 -0.2)">
       <use xlink:href="#DejaVuSans-51"/>
       <use x="63.623047" xlink:href="#DejaVuSans-48"/>
       <use x="127.246094" xlink:href="#DejaVuSans-48"/>
       <use x="190.869141" xlink:href="#DejaVuSans-48"/>
       <use x="254.492188" xlink:href="#DejaVuSans-48"/>
      </g>
     </g>
    </g>
    <g id="text_8">
     <!-- Steps -->
     <defs>
      <path d="M 53.515625 70.515625 
L 53.515625 60.890625 
Q 47.90625 63.578125 42.921875 64.890625 
Q 37.9375 66.21875 33.296875 66.21875 
Q 25.25 66.21875 20.875 63.09375 
Q 16.5 59.96875 16.5 54.203125 
Q 16.5 49.359375 19.40625 46.890625 
Q 22.3125 44.4375 30.421875 42.921875 
L 36.375 41.703125 
Q 47.40625 39.59375 52.65625 34.296875 
Q 57.90625 29 57.90625 20.125 
Q 57.90625 9.515625 50.796875 4.046875 
Q 43.703125 -1.421875 29.984375 -1.421875 
Q 24.8125 -1.421875 18.96875 -0.25 
Q 13.140625 0.921875 6.890625 3.21875 
L 6.890625 13.375 
Q 12.890625 10.015625 18.65625 8.296875 
Q 24.421875 6.59375 29.984375 6.59375 
Q 38.421875 6.59375 43.015625 9.90625 
Q 47.609375 13.234375 47.609375 19.390625 
Q 47.609375 24.75 44.3125 27.78125 
Q 41.015625 30.8125 33.5 32.328125 
L 27.484375 33.5 
Q 16.453125 35.6875 11.515625 40.375 
Q 6.59375 45.0625 6.59375 53.421875 
Q 6.59375 63.09375 13.40625 68.65625 
Q 20.21875 74.21875 32.171875 74.21875 
Q 37.3125 74.21875 42.625 73.28125 
Q 47.953125 72.359375 53.515625 70.515625 
z
" id="DejaVuSans-83"/>
      <path d="M 18.3125 70.21875 
L 18.3125 54.6875 
L 36.8125 54.6875 
L 36.8125 47.703125 
L 18.3125 47.703125 
L 18.3125 18.015625 
Q 18.3125 11.328125 20.140625 9.421875 
Q 21.96875 7.515625 27.59375 7.515625 
L 36.8125 7.515625 
L 36.8125 0 
L 27.59375 0 
Q 17.1875 0 13.234375 3.875 
Q 9.28125 7.765625 9.28125 18.015625 
L 9.28125 47.703125 
L 2.6875 47.703125 
L 2.6875 54.6875 
L 9.28125 54.6875 
L 9.28125 70.21875 
z
" id="DejaVuSans-116"/>
      <path d="M 56.203125 29.59375 
L 56.203125 25.203125 
L 14.890625 25.203125 
Q 15.484375 15.921875 20.484375 11.0625 
Q 25.484375 6.203125 34.421875 6.203125 
Q 39.59375 6.203125 44.453125 7.46875 
Q 49.3125 8.734375 54.109375 11.28125 
L 54.109375 2.78125 
Q 49.265625 0.734375 44.1875 -0.34375 
Q 39.109375 -1.421875 33.890625 -1.421875 
Q 20.796875 -1.421875 13.15625 6.1875 
Q 5.515625 13.8125 5.515625 26.8125 
Q 5.515625 40.234375 12.765625 48.109375 
Q 20.015625 56 32.328125 56 
Q 43.359375 56 49.78125 48.890625 
Q 56.203125 41.796875 56.203125 29.59375 
z
M 47.21875 32.234375 
Q 47.125 39.59375 43.09375 43.984375 
Q 39.0625 48.390625 32.421875 48.390625 
Q 24.90625 48.390625 20.390625 44.140625 
Q 15.875 39.890625 15.1875 32.171875 
z
" id="DejaVuSans-101"/>
      <path d="M 18.109375 8.203125 
L 18.109375 -20.796875 
L 9.078125 -20.796875 
L 9.078125 54.6875 
L 18.109375 54.6875 
L 18.109375 46.390625 
Q 20.953125 51.265625 25.265625 53.625 
Q 29.59375 56 35.59375 56 
Q 45.5625 56 51.78125 48.09375 
Q 58.015625 40.1875 58.015625 27.296875 
Q 58.015625 14.40625 51.78125 6.484375 
Q 45.5625 -1.421875 35.59375 -1.421875 
Q 29.59375 -1.421875 25.265625 0.953125 
Q 20.953125 3.328125 18.109375 8.203125 
z
M 48.6875 27.296875 
Q 48.6875 37.203125 44.609375 42.84375 
Q 40.53125 48.484375 33.40625 48.484375 
Q 26.265625 48.484375 22.1875 42.84375 
Q 18.109375 37.203125 18.109375 27.296875 
Q 18.109375 17.390625 22.1875 11.75 
Q 26.265625 6.109375 33.40625 6.109375 
Q 40.53125 6.109375 44.609375 11.75 
Q 48.6875 17.390625 48.6875 27.296875 
z
" id="DejaVuSans-112"/>
      <path d="M 44.28125 53.078125 
L 44.28125 44.578125 
Q 40.484375 46.53125 36.375 47.5 
Q 32.28125 48.484375 27.875 48.484375 
Q 21.1875 48.484375 17.84375 46.4375 
Q 14.5 44.390625 14.5 40.28125 
Q 14.5 37.15625 16.890625 35.375 
Q 19.28125 33.59375 26.515625 31.984375 
L 29.59375 31.296875 
Q 39.15625 29.25 43.1875 25.515625 
Q 47.21875 21.78125 47.21875 15.09375 
Q 47.21875 7.46875 41.1875 3.015625 
Q 35.15625 -1.421875 24.609375 -1.421875 
Q 20.21875 -1.421875 15.453125 -0.5625 
Q 10.6875 0.296875 5.421875 2 
L 5.421875 11.28125 
Q 10.40625 8.6875 15.234375 7.390625 
Q 20.0625 6.109375 24.8125 6.109375 
Q 31.15625 6.109375 34.5625 8.28125 
Q 37.984375 10.453125 37.984375 14.40625 
Q 37.984375 18.0625 35.515625 20.015625 
Q 33.0625 21.96875 24.703125 23.78125 
L 21.578125 24.515625 
Q 13.234375 26.265625 9.515625 29.90625 
Q 5.8125 33.546875 5.8125 39.890625 
Q 5.8125 47.609375 11.28125 51.796875 
Q 16.75 56 26.8125 56 
Q 31.78125 56 36.171875 55.265625 
Q 40.578125 54.546875 44.28125 53.078125 
z
" id="DejaVuSans-115"/>
     </defs>
     <g transform="translate(701.941578 606.494208)scale(0.28 -0.28)">
      <use xlink:href="#DejaVuSans-83"/>
      <use x="63.476562" xlink:href="#DejaVuSans-116"/>
      <use x="102.685547" xlink:href="#DejaVuSans-101"/>
      <use x="164.208984" xlink:href="#DejaVuSans-112"/>
      <use x="227.685547" xlink:href="#DejaVuSans-115"/>
     </g>
    </g>
   </g>
   <g id="matplotlib.axis_2">
    <g id="ytick_1">
     <g id="line2d_15">
      <path clip-path="url(#p0a071ce40b)" d="M 179.335656 532.17958 
L 1302.890625 532.17958 
" style="fill:none;stroke:#b0b0b0;stroke-linecap:square;stroke-width:0.8;"/>
     </g>
     <g id="line2d_16">
      <defs>
       <path d="M 0 0 
L -3.5 0 
" id="m1346eb6edf" style="stroke:#000000;stroke-width:0.8;"/>
      </defs>
      <g>
       <use style="stroke:#000000;stroke-width:0.8;" x="179.335656" xlink:href="#m1346eb6edf" y="532.17958"/>
      </g>
     </g>
     <g id="text_9">
      <!-- 0.0 -->
      <defs>
       <path d="M 10.6875 12.40625 
L 21 12.40625 
L 21 0 
L 10.6875 0 
z
" id="DejaVuSans-46"/>
      </defs>
      <g transform="translate(140.529406 539.778018)scale(0.2 -0.2)">
       <use xlink:href="#DejaVuSans-48"/>
       <use x="63.623047" xlink:href="#DejaVuSans-46"/>
       <use x="95.410156" xlink:href="#DejaVuSans-48"/>
      </g>
     </g>
    </g>
    <g id="ytick_2">
     <g id="line2d_17">
      <path clip-path="url(#p0a071ce40b)" d="M 179.335656 466.152812 
L 1302.890625 466.152812 
" style="fill:none;stroke:#b0b0b0;stroke-linecap:square;stroke-width:0.8;"/>
     </g>
     <g id="line2d_18">
      <g>
       <use style="stroke:#000000;stroke-width:0.8;" x="179.335656" xlink:href="#m1346eb6edf" y="466.152812"/>
      </g>
     </g>
     <g id="text_10">
      <!-- 0.5 -->
      <g transform="translate(140.529406 473.751249)scale(0.2 -0.2)">
       <use xlink:href="#DejaVuSans-48"/>
       <use x="63.623047" xlink:href="#DejaVuSans-46"/>
       <use x="95.410156" xlink:href="#DejaVuSans-53"/>
      </g>
     </g>
    </g>
    <g id="ytick_3">
     <g id="line2d_19">
      <path clip-path="url(#p0a071ce40b)" d="M 179.335656 400.126044 
L 1302.890625 400.126044 
" style="fill:none;stroke:#b0b0b0;stroke-linecap:square;stroke-width:0.8;"/>
     </g>
     <g id="line2d_20">
      <g>
       <use style="stroke:#000000;stroke-width:0.8;" x="179.335656" xlink:href="#m1346eb6edf" y="400.126044"/>
      </g>
     </g>
     <g id="text_11">
      <!-- 1.0 -->
      <g transform="translate(140.529406 407.724481)scale(0.2 -0.2)">
       <use xlink:href="#DejaVuSans-49"/>
       <use x="63.623047" xlink:href="#DejaVuSans-46"/>
       <use x="95.410156" xlink:href="#DejaVuSans-48"/>
      </g>
     </g>
    </g>
    <g id="ytick_4">
     <g id="line2d_21">
      <path clip-path="url(#p0a071ce40b)" d="M 179.335656 334.099276 
L 1302.890625 334.099276 
" style="fill:none;stroke:#b0b0b0;stroke-linecap:square;stroke-width:0.8;"/>
     </g>
     <g id="line2d_22">
      <g>
       <use style="stroke:#000000;stroke-width:0.8;" x="179.335656" xlink:href="#m1346eb6edf" y="334.099276"/>
      </g>
     </g>
     <g id="text_12">
      <!-- 1.5 -->
      <g transform="translate(140.529406 341.697713)scale(0.2 -0.2)">
       <use xlink:href="#DejaVuSans-49"/>
       <use x="63.623047" xlink:href="#DejaVuSans-46"/>
       <use x="95.410156" xlink:href="#DejaVuSans-53"/>
      </g>
     </g>
    </g>
    <g id="ytick_5">
     <g id="line2d_23">
      <path clip-path="url(#p0a071ce40b)" d="M 179.335656 268.072507 
L 1302.890625 268.072507 
" style="fill:none;stroke:#b0b0b0;stroke-linecap:square;stroke-width:0.8;"/>
     </g>
     <g id="line2d_24">
      <g>
       <use style="stroke:#000000;stroke-width:0.8;" x="179.335656" xlink:href="#m1346eb6edf" y="268.072507"/>
      </g>
     </g>
     <g id="text_13">
      <!-- 2.0 -->
      <g transform="translate(140.529406 275.670945)scale(0.2 -0.2)">
       <use xlink:href="#DejaVuSans-50"/>
       <use x="63.623047" xlink:href="#DejaVuSans-46"/>
       <use x="95.410156" xlink:href="#DejaVuSans-48"/>
      </g>
     </g>
    </g>
    <g id="ytick_6">
     <g id="line2d_25">
      <path clip-path="url(#p0a071ce40b)" d="M 179.335656 202.045739 
L 1302.890625 202.045739 
" style="fill:none;stroke:#b0b0b0;stroke-linecap:square;stroke-width:0.8;"/>
     </g>
     <g id="line2d_26">
      <g>
       <use style="stroke:#000000;stroke-width:0.8;" x="179.335656" xlink:href="#m1346eb6edf" y="202.045739"/>
      </g>
     </g>
     <g id="text_14">
      <!-- 2.5 -->
      <g transform="translate(140.529406 209.644177)scale(0.2 -0.2)">
       <use xlink:href="#DejaVuSans-50"/>
       <use x="63.623047" xlink:href="#DejaVuSans-46"/>
       <use x="95.410156" xlink:href="#DejaVuSans-53"/>
      </g>
     </g>
    </g>
    <g id="ytick_7">
     <g id="line2d_27">
      <path clip-path="url(#p0a071ce40b)" d="M 179.335656 136.018971 
L 1302.890625 136.018971 
" style="fill:none;stroke:#b0b0b0;stroke-linecap:square;stroke-width:0.8;"/>
     </g>
     <g id="line2d_28">
      <g>
       <use style="stroke:#000000;stroke-width:0.8;" x="179.335656" xlink:href="#m1346eb6edf" y="136.018971"/>
      </g>
     </g>
     <g id="text_15">
      <!-- 3.0 -->
      <g transform="translate(140.529406 143.617409)scale(0.2 -0.2)">
       <use xlink:href="#DejaVuSans-51"/>
       <use x="63.623047" xlink:href="#DejaVuSans-46"/>
       <use x="95.410156" xlink:href="#DejaVuSans-48"/>
      </g>
     </g>
    </g>
    <g id="text_16">
     <!-- Reward values -->
     <defs>
      <path d="M 44.390625 34.1875 
Q 47.5625 33.109375 50.5625 29.59375 
Q 53.5625 26.078125 56.59375 19.921875 
L 66.609375 0 
L 56 0 
L 46.6875 18.703125 
Q 43.0625 26.03125 39.671875 28.421875 
Q 36.28125 30.8125 30.421875 30.8125 
L 19.671875 30.8125 
L 19.671875 0 
L 9.8125 0 
L 9.8125 72.90625 
L 32.078125 72.90625 
Q 44.578125 72.90625 50.734375 67.671875 
Q 56.890625 62.453125 56.890625 51.90625 
Q 56.890625 45.015625 53.6875 40.46875 
Q 50.484375 35.9375 44.390625 34.1875 
z
M 19.671875 64.796875 
L 19.671875 38.921875 
L 32.078125 38.921875 
Q 39.203125 38.921875 42.84375 42.21875 
Q 46.484375 45.515625 46.484375 51.90625 
Q 46.484375 58.296875 42.84375 61.546875 
Q 39.203125 64.796875 32.078125 64.796875 
z
" id="DejaVuSans-82"/>
      <path d="M 4.203125 54.6875 
L 13.1875 54.6875 
L 24.421875 12.015625 
L 35.59375 54.6875 
L 46.1875 54.6875 
L 57.421875 12.015625 
L 68.609375 54.6875 
L 77.59375 54.6875 
L 63.28125 0 
L 52.6875 0 
L 40.921875 44.828125 
L 29.109375 0 
L 18.5 0 
z
" id="DejaVuSans-119"/>
      <path d="M 34.28125 27.484375 
Q 23.390625 27.484375 19.1875 25 
Q 14.984375 22.515625 14.984375 16.5 
Q 14.984375 11.71875 18.140625 8.90625 
Q 21.296875 6.109375 26.703125 6.109375 
Q 34.1875 6.109375 38.703125 11.40625 
Q 43.21875 16.703125 43.21875 25.484375 
L 43.21875 27.484375 
z
M 52.203125 31.203125 
L 52.203125 0 
L 43.21875 0 
L 43.21875 8.296875 
Q 40.140625 3.328125 35.546875 0.953125 
Q 30.953125 -1.421875 24.3125 -1.421875 
Q 15.921875 -1.421875 10.953125 3.296875 
Q 6 8.015625 6 15.921875 
Q 6 25.140625 12.171875 29.828125 
Q 18.359375 34.515625 30.609375 34.515625 
L 43.21875 34.515625 
L 43.21875 35.40625 
Q 43.21875 41.609375 39.140625 45 
Q 35.0625 48.390625 27.6875 48.390625 
Q 23 48.390625 18.546875 47.265625 
Q 14.109375 46.140625 10.015625 43.890625 
L 10.015625 52.203125 
Q 14.9375 54.109375 19.578125 55.046875 
Q 24.21875 56 28.609375 56 
Q 40.484375 56 46.34375 49.84375 
Q 52.203125 43.703125 52.203125 31.203125 
z
" id="DejaVuSans-97"/>
      <path d="M 41.109375 46.296875 
Q 39.59375 47.171875 37.8125 47.578125 
Q 36.03125 48 33.890625 48 
Q 26.265625 48 22.1875 43.046875 
Q 18.109375 38.09375 18.109375 28.8125 
L 18.109375 0 
L 9.078125 0 
L 9.078125 54.6875 
L 18.109375 54.6875 
L 18.109375 46.1875 
Q 20.953125 51.171875 25.484375 53.578125 
Q 30.03125 56 36.53125 56 
Q 37.453125 56 38.578125 55.875 
Q 39.703125 55.765625 41.0625 55.515625 
z
" id="DejaVuSans-114"/>
      <path d="M 45.40625 46.390625 
L 45.40625 75.984375 
L 54.390625 75.984375 
L 54.390625 0 
L 45.40625 0 
L 45.40625 8.203125 
Q 42.578125 3.328125 38.25 0.953125 
Q 33.9375 -1.421875 27.875 -1.421875 
Q 17.96875 -1.421875 11.734375 6.484375 
Q 5.515625 14.40625 5.515625 27.296875 
Q 5.515625 40.1875 11.734375 48.09375 
Q 17.96875 56 27.875 56 
Q 33.9375 56 38.25 53.625 
Q 42.578125 51.265625 45.40625 46.390625 
z
M 14.796875 27.296875 
Q 14.796875 17.390625 18.875 11.75 
Q 22.953125 6.109375 30.078125 6.109375 
Q 37.203125 6.109375 41.296875 11.75 
Q 45.40625 17.390625 45.40625 27.296875 
Q 45.40625 37.203125 41.296875 42.84375 
Q 37.203125 48.484375 30.078125 48.484375 
Q 22.953125 48.484375 18.875 42.84375 
Q 14.796875 37.203125 14.796875 27.296875 
z
" id="DejaVuSans-100"/>
      <path id="DejaVuSans-32"/>
      <path d="M 2.984375 54.6875 
L 12.5 54.6875 
L 29.59375 8.796875 
L 46.6875 54.6875 
L 56.203125 54.6875 
L 35.6875 0 
L 23.484375 0 
z
" id="DejaVuSans-118"/>
      <path d="M 9.421875 75.984375 
L 18.40625 75.984375 
L 18.40625 0 
L 9.421875 0 
z
" id="DejaVuSans-108"/>
      <path d="M 8.5 21.578125 
L 8.5 54.6875 
L 17.484375 54.6875 
L 17.484375 21.921875 
Q 17.484375 14.15625 20.5 10.265625 
Q 23.53125 6.390625 29.59375 6.390625 
Q 36.859375 6.390625 41.078125 11.03125 
Q 45.3125 15.671875 45.3125 23.6875 
L 45.3125 54.6875 
L 54.296875 54.6875 
L 54.296875 0 
L 45.3125 0 
L 45.3125 8.40625 
Q 42.046875 3.421875 37.71875 1 
Q 33.40625 -1.421875 27.6875 -1.421875 
Q 18.265625 -1.421875 13.375 4.4375 
Q 8.5 10.296875 8.5 21.578125 
z
M 31.109375 56 
z
" id="DejaVuSans-117"/>
     </defs>
     <g transform="translate(130.706281 418.978667)rotate(-90)scale(0.28 -0.28)">
      <use xlink:href="#DejaVuSans-82"/>
      <use x="69.419922" xlink:href="#DejaVuSans-101"/>
      <use x="130.943359" xlink:href="#DejaVuSans-119"/>
      <use x="212.730469" xlink:href="#DejaVuSans-97"/>
      <use x="274.009766" xlink:href="#DejaVuSans-114"/>
      <use x="315.107422" xlink:href="#DejaVuSans-100"/>
      <use x="378.583984" xlink:href="#DejaVuSans-32"/>
      <use x="410.371094" xlink:href="#DejaVuSans-118"/>
      <use x="469.550781" xlink:href="#DejaVuSans-97"/>
      <use x="530.830078" xlink:href="#DejaVuSans-108"/>
      <use x="558.613281" xlink:href="#DejaVuSans-117"/>
      <use x="621.992188" xlink:href="#DejaVuSans-101"/>
      <use x="683.515625" xlink:href="#DejaVuSans-115"/>
     </g>
    </g>
   </g>
   <g id="line2d_29">
    <path clip-path="url(#p0a071ce40b)" d="M 230.406337 445.159545 
L 230.631098 441.992836 
L 231.273275 448.499181 
L 231.626472 440.756742 
L 232.011778 454.89726 
L 232.75028 448.211354 
L 234.259395 441.843712 
L 234.484157 440.085502 
L 235.415312 438.346262 
L 236.250142 439.650551 
L 236.346468 439.308241 
L 236.699665 440.389174 
L 236.988644 440.165873 
L 238.176671 437.250445 
L 238.337215 437.331729 
L 239.782111 433.602747 
L 239.878438 434.331169 
L 241.387552 468.57396 
L 242.093946 478.721652 
L 242.190273 478.414856 
L 243.185646 500.751763 
L 243.281973 503.618372 
L 243.314081 503.560078 
L 243.603061 503.726735 
L 244.052584 502.173764 
L 244.084693 502.293267 
L 244.469999 502.63416 
L 246.043331 508.897951 
L 246.203875 511.482755 
L 246.749725 508.942387 
L 248.644145 491.994822 
L 250.345913 469.551299 
L 251.052307 461.61299 
L 251.309177 459.922802 
L 251.630265 456.587448 
L 255.130126 412.615761 
L 256.446588 403.05013 
L 257.056656 401.746227 
L 257.313526 400.594943 
L 257.634614 401.190904 
L 258.244682 401.571451 
L 258.983185 400.54752 
L 263.157331 384.546619 
L 264.570119 383.243826 
L 265.565492 380.731842 
L 265.950798 378.468016 
L 266.528757 378.129421 
L 266.657192 377.864813 
L 267.492021 375.295781 
L 268.391068 370.178132 
L 269.675421 366.64328 
L 269.900183 365.394986 
L 269.996509 365.422456 
L 271.216644 362.675964 
L 272.308344 358.882344 
L 272.500997 359.860805 
L 272.886303 358.523379 
L 273.913785 358.086192 
L 274.491744 359.910659 
L 275.615552 362.623842 
L 275.968749 360.822893 
L 276.643035 362.077185 
L 276.964123 361.804769 
L 278.376911 363.734488 
L 279.46861 362.783718 
L 280.656637 366.674497 
L 280.913507 365.967775 
L 281.555684 364.84167 
L 281.844663 363.928225 
L 282.165751 367.850299 
L 282.904254 370.309027 
L 283.353777 367.582291 
L 284.317042 365.221494 
L 285.440851 362.985373 
L 285.72983 360.769134 
L 286.307789 362.092187 
L 286.725203 360.461457 
L 287.527924 358.89275 
L 291.605744 355.511288 
L 291.991049 352.789479 
L 292.825879 348.875764 
L 293.692817 347.177894 
L 293.917579 346.331713 
L 294.206558 343.819415 
L 294.848734 345.754029 
L 295.330367 346.667601 
L 298.123834 335.33008 
L 298.669684 330.459456 
L 299.343969 330.769605 
L 299.440295 330.060065 
L 300.724648 326.09574 
L 301.366824 322.487042 
L 301.49526 323.072487 
L 302.04111 322.002062 
L 302.265871 325.351442 
L 302.811721 325.14127 
L 303.068592 323.914196 
L 303.518115 323.948545 
L 304.963012 318.145632 
L 306.022603 318.270844 
L 306.151038 319.54401 
L 306.857432 316.788686 
L 307.563826 316.066333 
L 308.462873 314.361773 
L 308.912397 315.727297 
L 309.650899 312.184495 
L 310.582055 311.745309 
L 310.678382 312.975185 
L 310.99947 313.032816 
L 311.416884 312.119497 
L 313.311305 310.330622 
L 313.375522 312.739023 
L 313.69661 309.924935 
L 315.045181 309.316191 
L 317.453342 304.297198 
L 318.705586 307.60132 
L 319.058783 304.922062 
L 323.554018 302.353784 
L 323.842997 306.664592 
L 326.026397 306.755864 
L 326.508029 308.973787 
L 327.920817 311.187176 
L 328.338231 310.097011 
L 328.787755 311.057053 
L 330.906937 308.592767 
L 332.897684 301.096817 
L 333.315098 306.575539 
L 334.182036 303.794792 
L 335.787477 295.211714 
L 336.943395 299.842478 
L 337.103939 298.797051 
L 337.746115 302.71478 
L 338.195639 303.540118 
L 339.865297 302.877458 
L 340.732235 301.128426 
L 346.672366 305.270448 
L 347.089781 303.517481 
L 349.144745 299.222998 
L 350.043792 300.927684 
L 350.236445 298.864789 
L 350.493316 298.481817 
L 350.718078 300.560675 
L 351.841886 302.80495 
L 352.54828 298.844938 
L 352.773042 295.821008 
L 353.672089 291.852448 
L 354.892224 293.713232 
L 356.305012 297.35853 
L 357.493038 294.189113 
L 358.970044 290.672931 
L 359.644329 290.544933 
L 360.736029 288.128377 
L 362.88732 282.489338 
L 363.850584 285.434038 
L 364.203781 282.590496 
L 364.589087 280.996665 
L 365.231263 279.671975 
L 365.423916 281.928009 
L 365.58446 282.281197 
L 366.258745 285.250297 
L 367.22201 286.437197 
L 367.928404 283.262884 
L 368.410036 285.00203 
L 368.795342 286.993 
L 369.533845 283.609917 
L 370.111804 279.566251 
L 371.492483 276.277132 
L 373.483229 285.563248 
L 374.350168 290.768863 
L 375.08867 286.703174 
L 375.184997 287.867579 
L 377.336288 287.011749 
L 377.882138 288.562589 
L 378.010573 290.36793 
L 379.487578 296.908813 
L 381.06091 295.326332 
L 391.207297 275.075765 
L 391.335732 276.008337 
L 391.528385 274.522921 
L 392.363214 279.107419 
L 392.844847 279.62116 
L 393.0375 276.607683 
L 393.29437 277.391241 
L 396.441034 271.790849 
L 398.335455 272.890192 
L 399.106066 272.234206 
L 400.422528 272.189515 
L 401.578445 275.780629 
L 401.963751 272.502938 
L 402.766471 277.554454 
L 403.280213 278.327812 
L 403.569192 278.037041 
L 406.61953 278.475472 
L 408.064426 280.708555 
L 409.734085 279.633549 
L 411.403743 283.874886 
L 411.981702 279.606882 
L 412.078029 280.798788 
L 412.623879 281.809551 
L 417.47231 277.634786 
L 417.632854 276.796366 
L 418.628227 277.727097 
L 420.907954 267.36418 
L 421.678565 264.959588 
L 424.150944 272.05363 
L 424.439924 271.748754 
L 424.664685 268.99373 
L 424.985773 268.946787 
L 425.210535 268.426089 
L 425.660059 269.134558 
L 426.013256 268.612553 
L 426.71965 265.033198 
L 428.228764 264.091605 
L 428.485635 265.426622 
L 429.127811 264.848796 
L 429.352573 266.170086 
L 430.058967 264.586503 
L 430.540599 269.646268 
L 430.701143 269.117761 
L 431.343319 273.814216 
L 433.944134 270.553873 
L 438.343042 270.680864 
L 441.907121 265.036598 
L 445.214329 257.848199 
L 445.695961 258.797096 
L 446.948205 258.711837 
L 448.393102 249.259139 
L 449.773781 250.99224 
L 450.737045 256.489286 
L 451.218678 260.843053 
L 451.828745 264.883806 
L 452.021398 264.791086 
L 452.50303 261.534977 
L 452.952554 259.541756 
L 453.369969 261.076979 
L 454.782757 263.339956 
L 455.457042 260.567411 
L 456.998265 258.189517 
L 457.512006 259.96128 
L 458.025747 256.448514 
L 458.250509 257.065916 
L 458.828468 255.469708 
L 459.534862 257.328933 
L 461.718261 258.271817 
L 464.062205 262.501537 
L 464.383293 265.639832 
L 466.277713 269.549344 
L 466.438257 269.453585 
L 467.337304 267.047042 
L 468.043698 266.569712 
L 470.130771 262.254261 
L 470.548186 265.399514 
L 471.80043 266.413237 
L 471.896756 269.236047 
L 472.121518 269.560285 
L 472.635259 267.398309 
L 473.084783 270.351163 
L 475.171856 274.935142 
L 475.87825 277.031725 
L 478.06165 275.074269 
L 479.121241 270.232752 
L 480.566137 266.047707 
L 481.59362 261.300484 
L 482.460558 261.070368 
L 482.749537 262.882651 
L 483.841237 267.53284 
L 485.446678 263.836837 
L 486.47416 266.961688 
L 486.763139 266.070533 
L 487.597968 255.971185 
L 487.82273 256.204765 
L 490.712524 250.863879 
L 491.740006 254.377559 
L 493.345447 247.864649 
L 496.106805 247.538695 
L 498.258096 259.662749 
L 502.143263 246.647571 
L 503.58816 252.542292 
L 504.326663 254.523518 
L 504.711968 256.001347 
L 505.033057 258.55363 
L 507.441218 258.542831 
L 507.826524 256.859066 
L 511.19795 262.039446 
L 511.936452 259.86198 
L 512.899717 263.674946 
L 513.927199 261.44084 
L 514.44094 262.934883 
L 517.234407 258.518147 
L 517.683931 256.532702 
L 518.968284 256.970078 
L 519.160937 258.117482 
L 519.867331 257.086601 
L 520.316854 252.402094 
L 521.825968 253.108123 
L 522.082839 253.869092 
L 522.59658 252.162469 
L 524.394674 250.331642 
L 526.256985 246.630224 
L 527.509229 249.94867 
L 528.31195 246.962097 
L 528.954126 243.362938 
L 531.972355 241.410992 
L 533.545687 237.741404 
L 535.600651 247.461087 
L 536.242828 247.466597 
L 536.371263 248.908942 
L 537.623507 244.102592 
L 537.848269 244.004709 
L 539.71058 247.366068 
L 540.095886 246.054538 
L 542.375612 249.830007 
L 542.600374 249.199067 
L 543.178332 255.083588 
L 543.595747 258.005115 
L 545.297514 254.104214 
L 547.737784 252.067198 
L 548.829484 251.971456 
L 550.980775 255.802179 
L 551.333972 254.247655 
L 557.852062 253.074939 
L 560.806073 255.263456 
L 560.9024 256.555591 
L 563.150017 262.075999 
L 563.952738 264.411609 
L 564.948111 266.306065 
L 565.076546 267.325329 
L 567.067293 265.226573 
L 569.218584 267.255025 
L 569.475454 264.701766 
L 569.828651 265.201165 
L 570.663481 265.485466 
L 570.888242 265.236459 
L 571.273548 262.986139 
L 572.84688 263.726895 
L 576.282524 259.312458 
L 576.410959 259.415001 
L 577.277897 256.184395 
L 578.690685 257.373105 
L 579.043882 261.539007 
L 580.585105 263.960349 
L 580.841976 264.900839 
L 581.452043 264.687063 
L 582.09422 262.730016 
L 582.64007 262.818266 
L 583.218028 263.665721 
L 583.410681 261.887598 
L 583.699661 261.946348 
L 584.470272 260.140897 
L 586.075713 262.76764 
L 587.424283 259.349105 
L 588.227004 263.286307 
L 589.639792 267.657548 
L 589.928771 267.375105 
L 590.570948 262.90469 
L 591.30945 266.152014 
L 592.625912 266.154501 
L 594.809312 260.649269 
L 596.093664 259.48902 
L 598.66237 262.20184 
L 599.75407 261.784866 
L 601.809034 263.498887 
L 602.065904 266.538134 
L 602.515428 266.11587 
L 603.446584 270.911468 
L 606.304268 262.242581 
L 606.52903 260.547198 
L 608.680321 264.84102 
L 609.964674 268.619306 
L 610.60685 271.905246 
L 611.762767 265.731954 
L 611.859094 266.26649 
L 612.629706 265.978978 
L 613.175555 263.862087 
L 613.560861 264.854621 
L 614.780996 254.860712 
L 615.326846 251.543934 
L 616.193784 247.445471 
L 617.542355 247.901926 
L 618.987252 243.739267 
L 622.230242 237.408807 
L 622.679766 237.078855 
L 623.867792 235.104523 
L 624.285206 240.246178 
L 624.670512 238.044343 
L 625.376906 233.254774 
L 625.697994 233.585136 
L 626.404388 234.95318 
L 627.271327 233.433226 
L 627.785068 233.203739 
L 629.005203 231.092924 
L 629.422617 235.645009 
L 629.90425 236.59208 
L 631.606017 237.239549 
L 632.440846 243.422695 
L 632.954587 241.982144 
L 633.532546 246.103842 
L 634.977443 244.742033 
L 635.362749 245.074913 
L 636.229687 239.180287 
L 637.000298 244.738475 
L 637.257169 244.424139 
L 637.963563 241.820662 
L 639.023154 239.47526 
L 639.890092 238.440727 
L 640.371724 238.392903 
L 641.399206 243.615912 
L 642.587233 242.232725 
L 642.811994 241.547003 
L 643.229409 244.56865 
L 643.935803 244.602118 
L 644.995394 246.044054 
L 647.756752 237.918911 
L 655.43076 233.490747 
L 656.23348 231.197514 
L 656.875657 231.301726 
L 657.293071 227.618317 
L 658.770077 230.428486 
L 659.187492 227.490618 
L 662.141503 223.791592 
L 662.655244 217.114651 
L 664.517555 223.928044 
L 667.888981 230.278842 
L 669.398096 231.570222 
L 671.485169 232.533192 
L 671.902584 231.552276 
L 672.865848 230.327831 
L 673.058501 231.032255 
L 673.283263 230.851505 
L 673.732786 229.307371 
L 675.723533 232.004198 
L 676.173056 234.03668 
L 677.650062 235.692204 
L 678.292238 232.323005 
L 679.801353 240.594265 
L 680.218767 238.60967 
L 680.604073 240.11278 
L 682.659038 232.733368 
L 683.461758 232.249553 
L 685.388287 233.954381 
L 686.191008 230.576807 
L 686.544205 229.748777 
L 689.36978 232.954952 
L 691.55318 238.499256 
L 692.965968 245.808333 
L 694.378756 246.529538 
L 695.534674 243.413124 
L 696.97957 243.766312 
L 698.585011 245.830278 
L 698.809773 245.464937 
L 702.277525 254.342422 
L 702.727049 253.48952 
L 704.011401 251.442398 
L 704.846231 252.111528 
L 706.836977 249.269686 
L 709.309356 247.143319 
L 710.625818 241.87472 
L 710.946906 242.271513 
L 711.94228 241.202316 
L 713.098197 237.954708 
L 713.322959 236.742416 
L 714.350441 233.627923 
L 714.896291 238.732395 
L 715.121052 237.316433 
L 715.891664 237.468249 
L 716.854929 232.867269 
L 718.556696 227.130787 
L 718.781458 227.586518 
L 718.974111 226.561682 
L 720.322681 225.614989 
L 721.253837 234.824662 
L 722.666625 231.711333 
L 726.840771 223.22318 
L 729.602129 218.07526 
L 730.308523 215.07096 
L 730.436959 217.239548 
L 730.629612 216.594629 
L 733.551514 215.189214 
L 734.643214 220.196684 
L 735.445934 221.707917 
L 735.670696 218.568205 
L 736.537634 223.445331 
L 737.72566 223.530243 
L 738.528381 225.796683 
L 739.170557 222.035382 
L 739.395319 221.484317 
L 742.09246 228.327841 
L 742.381439 229.666132 
L 743.44103 239.998179 
L 743.98688 237.688354 
L 745.560212 250.747074 
L 745.720756 250.977033 
L 746.940891 251.449639 
L 749.349052 257.083326 
L 749.509597 258.131209 
L 750.408643 254.559095 
L 751.147146 253.299136 
L 751.243473 254.32964 
L 751.500343 252.087506 
L 752.39939 251.444665 
L 753.812178 250.153631 
L 754.454354 254.26176 
L 760.266051 245.059612 
L 761.871491 245.352067 
L 763.123735 239.481652 
L 764.247544 239.838995 
L 767.940058 235.063626 
L 768.357473 235.422638 
L 769.770261 233.217025 
L 770.219784 230.022247 
L 770.829852 228.345913 
L 772.049987 232.50492 
L 772.24264 230.127184 
L 773.494884 236.002007 
L 774.650801 235.972569 
L 776.481004 230.470548 
L 779.980865 218.525953 
L 780.205626 219.043456 
L 781.040456 221.270635 
L 782.132156 223.185871 
L 783.673379 220.918329 
L 784.797187 223.964313 
L 786.498955 225.520191 
L 788.586028 227.988223 
L 790.929972 227.259651 
L 793.69133 225.909963 
L 794.365615 228.287163 
L 794.590377 228.380262 
L 795.200444 229.094099 
L 795.682077 227.225617 
L 795.906838 227.364776 
L 796.163709 230.546488 
L 796.613232 230.9509 
L 798.764523 233.291422 
L 798.925067 233.664917 
L 800.947923 239.405744 
L 803.131323 232.063766 
L 803.323975 232.534389 
L 804.062478 238.051585 
L 804.094587 239.3957 
L 805.154178 238.642256 
L 805.539484 238.587632 
L 807.369686 234.697089 
L 809.007236 226.896011 
L 810.452133 235.344715 
L 811.929139 232.535711 
L 812.98873 231.46516 
L 813.181383 229.490766 
L 814.497844 229.011674 
L 815.878523 229.061418 
L 816.103285 228.567654 
L 816.23172 230.525457 
L 816.617026 231.197231 
L 817.516073 237.086442 
L 821.337022 230.837274 
L 822.268178 225.532469 
L 823.58464 226.858639 
L 824.162598 230.594627 
L 829.139465 223.825532 
L 831.098103 235.081509 
L 831.868715 232.85477 
L 832.510891 234.410175 
L 832.703544 235.418136 
L 834.148441 232.397968 
L 835.111705 227.340628 
L 836.813473 232.219769 
L 840.217007 233.923243 
L 840.794966 233.995814 
L 844.294827 239.46953 
L 845.2902 239.250307 
L 846.991968 233.996821 
L 849.432238 231.463114 
L 850.395503 234.489231 
L 851.326658 233.113002 
L 851.55142 233.219701 
L 852.386249 236.216161 
L 853.895364 235.388194 
L 856.464069 228.7184 
L 857.619987 231.079827 
L 858.711686 230.947468 
L 858.936448 229.986198 
L 859.610733 232.208844 
L 860.317127 227.28043 
L 862.4042 226.884015 
L 864.716035 240.082524 
L 865.550865 235.832843 
L 866.610456 229.602975 
L 866.867326 229.321571 
L 869.596576 227.906522 
L 870.30297 224.758907 
L 870.527731 222.620922 
L 872.711131 234.87044 
L 873.28909 232.806631 
L 873.738613 238.214861 
L 874.220245 235.947382 
L 877.142148 234.550814 
L 878.394392 236.133673 
L 883.820782 219.71139 
L 884.559285 222.012871 
L 885.586767 224.839727 
L 885.972073 230.086506 
L 886.517923 231.688098 
L 886.87112 230.82191 
L 887.095881 230.790898 
L 887.96282 225.828797 
L 888.316017 226.442389 
L 889.022411 225.118455 
L 889.953566 224.184953 
L 890.692069 220.965618 
L 891.526898 219.820513 
L 893.260775 222.941964 
L 895.123086 222.954369 
L 895.957915 223.358592 
L 898.783491 225.229341 
L 899.393559 224.296281 
L 901.705394 228.245604 
L 902.989746 229.358281 
L 903.599814 226.660479 
L 904.402534 227.941185 
L 905.365799 229.950779 
L 909.989469 226.48464 
L 911.755454 232.399889 
L 913.393003 230.55439 
L 916.282797 230.399237 
L 916.443341 231.512858 
L 916.668103 229.167268 
L 917.759803 229.345782 
L 919.397352 232.369003 
L 919.814767 230.473288 
L 920.489052 232.028724 
L 923.218302 236.436707 
L 923.443063 236.213831 
L 924.213675 240.350894 
L 927.039251 248.029783 
L 927.32823 248.005477 
L 927.681427 244.570036 
L 927.87408 245.618957 
L 928.484148 247.35338 
L 931.887683 252.117289 
L 932.979382 254.743277 
L 933.204144 253.251816 
L 933.268362 256.041268 
L 934.841694 259.765922 
L 935.066455 257.542962 
L 936.57557 252.404802 
L 939.529581 243.731805 
L 940.043322 244.988332 
L 940.332302 248.032459 
L 940.65339 248.564696 
L 940.91026 247.891253 
L 944.44223 243.281615 
L 945.566039 242.109434 
L 947.460459 229.921562 
L 947.556786 232.58193 
L 948.006309 230.052315 
L 948.455833 229.342256 
L 951.474061 226.010428 
L 952.886849 222.762915 
L 953.625352 223.487834 
L 954.139093 225.847876 
L 955.198684 226.600565 
L 956.739908 230.185492 
L 959.148069 221.316571 
L 962.776365 219.253234 
L 963.033236 221.81534 
L 963.19378 220.521253 
L 963.418542 220.558341 
L 963.900174 218.678745 
L 964.478133 219.973242 
L 966.147791 215.237101 
L 967.046838 225.334026 
L 967.239491 229.864764 
L 967.881667 228.294342 
L 971.156767 219.928535 
L 971.831052 222.631658 
L 973.019078 222.67731 
L 977.225333 228.252909 
L 980.339889 228.09763 
L 984.3856 228.449747 
L 985.830497 221.47673 
L 986.536891 222.88035 
L 986.954305 224.022622 
L 987.179067 223.89678 
L 987.91757 223.76014 
L 989.81199 228.390872 
L 990.486275 229.37056 
L 992.380696 226.966944 
L 994.756748 232.657019 
L 994.98151 230.469824 
L 995.912666 227.107142 
L 997.774977 225.87596 
L 998.2245 223.304566 
L 999.284091 227.962532 
L 1000.504226 227.348153 
L 1001.724362 222.953865 
L 1002.494973 223.905501 
L 1004.068305 218.516225 
L 1004.100414 222.389609 
L 1004.678373 220.164948 
L 1006.765446 227.39201 
L 1006.990208 227.228545 
L 1009.558913 221.554432 
L 1009.944219 226.042133 
L 1010.201089 230.468219 
L 1012.512924 220.931899 
L 1013.668842 220.937409 
L 1013.700951 223.699344 
L 1017.232921 228.379978 
L 1017.650335 228.055504 
L 1017.971423 228.391344 
L 1018.549382 231.060055 
L 1020.475911 228.324661 
L 1022.241896 224.36627 
L 1022.755637 224.763504 
L 1025.67754 225.05662 
L 1028.824204 222.344965 
L 1029.75536 229.623975 
L 1030.140665 229.622621 
L 1030.55808 228.02594 
L 1031.264474 229.297171 
L 1031.489236 227.259053 
L 1032.163521 229.400942 
L 1033.576309 232.373694 
L 1035.374403 230.677209 
L 1036.915626 234.730556 
L 1036.979844 237.840327 
L 1037.557802 240.036872 
L 1039.965964 251.768037 
L 1041.121881 251.757616 
L 1042.149363 246.099907 
L 1043.305281 251.80204 
L 1044.429089 248.209525 
L 1046.03453 249.062018 
L 1046.484054 247.188593 
L 1046.740924 249.978706 
L 1046.933577 249.9913 
L 1047.350992 246.743786 
L 1048.988542 242.365241 
L 1049.341739 245.702893 
L 1049.5665 243.179701 
L 1049.951806 240.856685 
L 1050.850853 242.287098 
L 1050.979288 243.626806 
L 1053.676429 237.958172 
L 1055.795611 241.24844 
L 1056.63044 236.607917 
L 1057.079964 235.154992 
L 1057.208399 237.550611 
L 1058.749622 236.732814 
L 1059.199146 235.552982 
L 1060.322954 234.424909 
L 1061.25411 233.885399 
L 1062.05683 234.788329 
L 1062.217375 236.166353 
L 1063.598054 235.694125 
L 1065.267712 232.263626 
L 1067.386894 238.963425 
L 1072.556414 228.142211 
L 1076.987431 223.92965 
L 1077.758042 227.347554 
L 1077.790151 230.943848 
L 1078.36811 230.915795 
L 1080.487292 225.55942 
L 1081.932189 229.803717 
L 1082.734909 230.452477 
L 1083.184433 229.627155 
L 1087.968647 240.638847 
L 1088.321844 242.670668 
L 1088.803476 241.147188 
L 1089.156673 240.907279 
L 1089.349326 241.010201 
L 1090.826331 245.468652 
L 1093.04184 244.605959 
L 1093.876669 242.260305 
L 1094.101431 239.471545 
L 1095.931633 231.944032 
L 1097.37653 235.328658 
L 1099.01408 231.028319 
L 1101.647003 232.372844 
L 1103.0919 238.080393 
L 1104.408361 241.274981 
L 1104.793667 238.22758 
L 1105.789041 232.821523 
L 1105.853258 234.77221 
L 1106.270673 234.018986 
L 1108.293528 235.758069 
L 1108.807269 235.2797 
L 1109.481555 237.646574 
L 1112.114478 241.300798 
L 1112.307131 240.916662 
L 1113.39883 240.787672 
L 1115.132707 238.989305 
L 1115.678556 239.390506 
L 1116.513386 244.624377 
L 1117.669303 239.562251 
L 1120.302226 242.114817 
L 1121.55447 236.367253 
L 1122.164538 234.351174 
L 1122.838823 228.919236 
L 1123.577326 227.018893 
L 1125.214875 224.763157 
L 1126.113922 226.508663 
L 1127.301949 229.683511 
L 1127.751472 226.824259 
L 1128.200995 224.84914 
L 1129.774328 228.621744 
L 1130.705483 225.83289 
L 1131.122898 227.111676 
L 1131.219224 229.586603 
L 1132.214598 229.161223 
L 1132.985209 227.026606 
L 1135.586024 223.843793 
L 1136.452962 226.761889 
L 1136.806159 226.093892 
L 1137.287791 227.000538 
L 1137.673097 225.848537 
L 1138.764797 230.858148 
L 1138.989558 229.543124 
L 1140.209693 235.573572 
L 1140.659217 235.816503 
L 1142.328875 238.631804 
L 1142.425202 238.111184 
L 1143.099487 237.163326 
L 1143.998534 236.966173 
L 1144.897581 234.797901 
L 1145.443431 238.982315 
L 1146.470913 237.498316 
L 1152.411044 237.073912 
L 1153.438526 242.792007 
L 1154.048594 242.451445 
L 1154.209138 242.671896 
L 1155.5256 239.355464 
L 1155.943014 237.529233 
L 1156.87417 235.14794 
L 1158.51172 236.952793 
L 1159.892399 232.669172 
L 1160.085052 234.232731 
L 1161.176752 230.112355 
L 1161.722601 229.63342 
L 1163.552804 235.774503 
L 1164.837157 238.681737 
L 1165.061918 238.571984 
L 1167.694842 233.698101 
L 1169.300282 240.685002 
L 1169.589262 245.006058 
L 1175.818373 250.893096 
L 1177.23116 254.635885 
L 1177.77701 253.848659 
L 1177.905446 256.178791 
L 1182.208027 241.319342 
L 1183.331836 238.761896 
L 1187.184894 240.231381 
L 1187.859179 237.165687 
L 1188.726117 235.23556 
L 1188.950879 233.471447 
L 1190.55632 236.046179 
L 1191.326932 231.459524 
L 1192.964481 229.5231 
L 1193.799311 231.158789 
L 1195.147881 231.852256 
L 1199.771551 248.091239 
L 1200.477945 248.1129 
L 1202.886106 240.737864 
L 1203.977806 244.023379 
L 1205.23005 249.28398 
L 1205.358485 251.156397 
L 1205.583247 249.703158 
L 1206.867599 256.777459 
L 1211.330725 259.289443 
L 1213.193037 264.72837 
L 1214.445281 256.400784 
L 1217.463509 255.518634 
L 1218.683644 256.731052 
L 1218.876297 258.949038 
L 1221.412894 253.670333 
L 1223.756838 240.455326 
L 1224.110035 243.020392 
L 1225.490714 240.206855 
L 1225.58704 241.402838 
L 1227.128264 236.966929 
L 1227.706222 239.796492 
L 1229.632751 241.54502 
L 1230.724451 237.393097 
L 1231.687716 241.268685 
L 1231.912477 241.06089 
L 1232.040913 240.315978 
L 1232.137239 242.948766 
L 1232.779416 241.201025 
L 1235.155468 231.36885 
L 1235.316012 230.125169 
L 1236.215059 233.977112 
L 1237.724174 236.137892 
L 1239.104853 236.508427 
L 1239.265397 237.85503 
L 1239.907573 240.215828 
L 1250.760354 227.605597 
L 1251.595183 226.366261 
L 1251.819945 226.471071 
L 1251.819945 226.471071 
" style="fill:none;stroke:#0000ff;stroke-linecap:square;stroke-width:1.5;"/>
   </g>
   <g id="line2d_30">
    <path clip-path="url(#p0a071ce40b)" d="M 230.406337 395.533061 
L 230.631098 459.46467 
L 231.273275 429.633281 
L 231.626472 372.534475 
L 232.011778 512.768566 
L 232.75028 497.337864 
L 234.259395 420.898773 
L 234.484157 358.181368 
L 235.415312 468.27681 
L 236.250142 525.69803 
L 236.346468 410.896214 
L 236.699665 461.828813 
L 236.924427 423.401957 
L 236.988644 431.097697 
L 238.337215 424.107899 
L 239.782111 518.467438 
L 239.878438 533.146773 
L 239.974764 517.931444 
L 240.006873 519.633968 
L 240.295853 524.115939 
L 241.227008 485.515309 
L 241.355444 504.857347 
L 241.387552 492.795783 
L 241.740749 510.151379 
L 241.837076 502.190114 
L 242.093946 465.856823 
L 242.190273 410.25945 
L 243.025102 520.979263 
L 243.185646 517.302977 
L 243.281973 514.011939 
L 243.314081 514.711972 
L 243.603061 497.801529 
L 243.988367 506.173385 
L 244.052584 497.070167 
L 244.084693 524.019472 
L 244.469999 506.831064 
L 245.144284 514.913883 
L 245.497481 500.581725 
L 246.043331 524.091771 
L 246.203875 522.583903 
L 246.300202 493.702243 
L 246.364419 501.014644 
L 246.749725 493.79688 
L 247.777207 361.342663 
L 248.001969 414.120847 
L 248.644145 479.795336 
L 249.157886 411.702882 
L 249.382648 412.871262 
L 250.056933 413.264363 
L 250.345913 459.3013 
L 250.859654 360.265563 
L 250.923871 449.392249 
L 251.052307 394.173943 
L 251.309177 442.924007 
L 251.630265 350.498229 
L 252.144006 428.672452 
L 252.529312 411.686557 
L 252.59353 466.686017 
L 253.621012 397.120627 
L 254.102644 462.29942 
L 254.873256 381.674647 
L 255.130126 285.062574 
L 256.446588 427.095418 
L 257.056656 368.090396 
L 257.313526 455.54336 
L 257.634614 441.007701 
L 258.244682 445.82433 
L 258.983185 402.53927 
L 263.157331 319.231216 
L 264.570119 328.918722 
L 265.437057 387.790889 
L 265.565492 407.568291 
L 265.950798 271.697168 
L 266.528757 249.093187 
L 266.657192 390.030773 
L 267.492021 275.515235 
L 268.391068 316.414168 
L 269.675421 406.370473 
L 269.803856 332.634765 
L 269.996509 408.923135 
L 271.216644 394.493789 
L 272.308344 322.598338 
L 272.500997 409.106576 
L 272.789976 393.928573 
L 272.886303 423.972282 
L 273.2395 458.684221 
L 273.913785 402.840769 
L 274.106438 343.218227 
L 274.491744 347.644801 
L 275.615552 352.415165 
L 275.968749 288.417904 
L 276.643035 337.745959 
L 276.964123 383.248895 
L 278.376911 442.650246 
L 279.46861 360.392113 
L 280.110787 438.518527 
L 280.656637 454.889956 
L 280.913507 339.682415 
L 281.555684 398.045108 
L 281.844663 363.128058 
L 281.908881 413.959129 
L 282.165751 400.646026 
L 282.904254 393.276239 
L 283.353777 240.175874 
L 284.317042 333.698783 
L 285.440851 307.118497 
L 285.72983 257.250632 
L 286.307789 330.094351 
L 286.725203 340.666149 
L 287.527924 276.003662 
L 291.605744 361.31461 
L 291.991049 298.997793 
L 292.825879 366.522775 
L 293.435946 356.956498 
L 293.917579 333.051377 
L 294.206558 364.502635 
L 294.848734 399.132487 
L 295.330367 346.692237 
L 297.995398 186.255435 
L 298.123834 298.165182 
L 298.669684 160.22105 
L 299.343969 266.479101 
L 299.440295 360.290892 
L 300.724648 289.792858 
L 301.366824 278.234415 
L 301.49526 361.731569 
L 302.04111 270.607034 
L 302.265871 358.317757 
L 302.811721 332.753271 
L 303.068592 252.136463 
L 303.518115 229.27255 
L 304.963012 363.94096 
L 306.022603 398.332006 
L 306.857432 233.594487 
L 307.563826 333.055266 
L 308.334438 269.027182 
L 308.462873 281.320258 
L 308.912397 362.583275 
L 309.650899 203.2421 
L 310.582055 273.058033 
L 310.678382 406.023701 
L 310.99947 276.113714 
L 311.416884 233.291957 
L 313.311305 373.444552 
L 313.375522 423.786211 
L 313.69661 120.191263 
L 315.045181 257.858872 
L 317.453342 392.879714 
L 317.613886 270.655803 
L 317.967083 332.912895 
L 318.705586 207.187898 
L 319.058783 351.185888 
L 323.554018 263.480816 
L 323.842997 342.968969 
L 326.026397 325.528272 
L 326.508029 340.495883 
L 327.920817 370.837801 
L 328.338231 323.863932 
L 328.787755 140.833979 
L 330.906937 350.312977 
L 332.897684 250.162604 
L 333.315098 392.893048 
L 333.604078 283.766692 
L 334.182036 219.23872 
L 335.626933 194.363576 
L 335.787477 306.601844 
L 336.076457 359.990314 
L 336.943395 396.20833 
L 337.103939 313.086371 
L 337.746115 355.580332 
L 338.195639 501.679299 
L 339.865297 106.864079 
L 340.732235 394.565132 
L 346.672366 342.057522 
L 347.089781 279.840776 
L 349.144745 188.335458 
L 350.043792 115.979961 
L 350.236445 164.530582 
L 350.493316 296.575554 
L 350.718078 324.697912 
L 351.841886 359.298594 
L 352.54828 164.368093 
L 352.773042 188.271514 
L 353.672089 338.910632 
L 354.892224 322.69057 
L 356.305012 219.530419 
L 357.493038 247.075974 
L 358.970044 307.059669 
L 359.644329 379.175147 
L 360.736029 313.198013 
L 362.88732 134.628637 
L 363.850584 392.898715 
L 364.203781 111.058632 
L 364.589087 228.451825 
L 365.231263 278.118742 
L 365.423916 393.324646 
L 365.58446 323.3753 
L 366.258745 269.315685 
L 367.22201 347.535631 
L 367.928404 132.216426 
L 368.410036 111.179814 
L 368.795342 210.961541 
L 369.533845 225.944815 
L 370.111804 245.540215 
L 371.492483 392.657547 
L 373.483229 416.328718 
L 374.093297 360.577034 
L 374.350168 284.092756 
L 375.08867 212.332197 
L 375.184997 364.689634 
L 377.336288 408.258822 
L 377.882138 386.420186 
L 378.010573 359.987465 
L 379.487578 352.176375 
L 381.06091 345.791526 
L 385.42771 198.485621 
L 389.666074 328.251419 
L 391.207297 124.365351 
L 391.335732 305.589554 
L 391.528385 216.148123 
L 392.010017 111.830557 
L 392.363214 318.827938 
L 392.844847 248.89764 
L 393.0375 197.847566 
L 393.29437 410.725476 
L 396.441034 464.238985 
L 398.335455 414.209018 
L 399.106066 171.79237 
L 400.422528 202.520392 
L 401.578445 334.395666 
L 401.771098 194.60402 
L 401.963751 227.904853 
L 402.766471 405.690277 
L 403.280213 362.201657 
L 403.569192 409.462534 
L 406.61953 130.13804 
L 408.064426 388.365095 
L 409.734085 339.705886 
L 411.403743 264.950521 
L 411.789049 200.868867 
L 411.981702 234.52443 
L 412.078029 351.913389 
L 412.623879 444.615061 
L 416.990678 145.171973 
L 417.47231 387.020003 
L 417.632854 250.553384 
L 418.628227 310.987457 
L 420.907954 294.150577 
L 421.678565 346.884116 
L 424.150944 388.889902 
L 424.664685 112.862634 
L 424.985773 408.428269 
L 425.210535 119.847206 
L 425.660059 210.505746 
L 426.013256 259.129473 
L 426.71965 254.863199 
L 428.228764 371.838285 
L 428.485635 356.944125 
L 429.127811 196.099794 
L 429.352573 244.152463 
L 430.058967 318.039295 
L 430.540599 109.96409 
L 430.701143 271.178421 
L 431.343319 455.548106 
L 433.944134 308.740018 
L 438.343042 412.446385 
L 441.907121 385.539357 
L 445.214329 128.28423 
L 445.695961 235.711063 
L 446.948205 420.992564 
L 448.393102 337.09095 
L 449.773781 138.803544 
L 450.737045 349.223079 
L 451.218678 179.795544 
L 451.828745 151.157022 
L 452.021398 275.886132 
L 452.50303 127.661917 
L 452.952554 292.409274 
L 453.369969 195.04637 
L 454.782757 139.003436 
L 455.457042 159.409927 
L 456.998265 102.540159 
L 457.512006 360.014399 
L 458.025747 177.373479 
L 458.250509 278.885095 
L 458.828468 189.903299 
L 459.534862 216.326984 
L 461.718261 226.113601 
L 464.062205 110.928445 
L 464.383293 389.27015 
L 466.277713 311.062594 
L 466.438257 253.290541 
L 467.337304 319.075323 
L 468.043698 187.068856 
L 470.130771 252.7368 
L 470.548186 399.566337 
L 471.80043 392.440229 
L 471.896756 414.501276 
L 472.121518 346.041147 
L 472.635259 139.012314 
L 473.084783 341.169059 
L 475.171856 124.057595 
L 475.87825 353.72372 
L 478.06165 243.540004 
L 479.121241 224.6915 
L 480.566137 294.533658 
L 481.59362 333.513925 
L 482.460558 417.330138 
L 482.749537 310.200058 
L 483.841237 288.636986 
L 485.446678 177.955083 
L 486.47416 438.206961 
L 486.763139 358.372083 
L 487.597968 322.711774 
L 487.82273 157.139016 
L 490.712524 162.224189 
L 491.740006 130.946865 
L 493.345447 150.298232 
L 496.106805 134.526094 
L 498.258096 400.008687 
L 499.638775 346.82861 
L 502.143263 102.18546 
L 503.010201 410.795111 
L 503.58816 274.920124 
L 504.326663 353.863619 
L 504.711968 236.911674 
L 505.033057 249.804474 
L 507.441218 362.81739 
L 507.826524 283.732563 
L 511.19795 125.785375 
L 511.936452 142.893978 
L 512.899717 127.397294 
L 513.927199 356.950879 
L 514.44094 295.050138 
L 517.234407 350.408972 
L 517.683931 179.810562 
L 518.968284 382.809174 
L 519.160937 216.92433 
L 519.867331 149.347635 
L 520.316854 119.365028 
L 521.825968 378.820574 
L 522.082839 327.874712 
L 522.468145 225.437514 
L 522.59658 284.489108 
L 524.394674 229.168464 
L 526.256985 272.458357 
L 527.509229 157.247856 
L 528.31195 114.442943 
L 528.954126 388.656763 
L 531.972355 375.198999 
L 533.545687 357.947001 
L 535.407998 416.361761 
L 535.600651 212.963987 
L 536.242828 292.693953 
L 536.371263 392.420787 
L 537.045548 143.9395 
L 537.623507 337.08119 
L 537.848269 139.560577 
L 539.71058 373.572235 
L 540.095886 186.249169 
L 542.375612 141.242673 
L 542.600374 107.930758 
L 543.178332 377.894645 
L 543.595747 371.881418 
L 545.297514 134.259204 
L 547.737784 300.938326 
L 548.829484 326.658831 
L 550.980775 256.264144 
L 551.333972 135.182819 
L 557.852062 116.733563 
L 560.806073 358.261385 
L 560.9024 346.975735 
L 563.150017 224.270212 
L 563.952738 107.430004 
L 565.076546 342.242695 
L 567.067293 411.38742 
L 569.218584 134.546653 
L 569.475454 133.213871 
L 569.828651 161.919392 
L 570.663481 197.142324 
L 570.888242 129.38617 
L 571.273548 107.124641 
L 572.84688 236.395525 
L 576.282524 391.99632 
L 576.410959 343.70061 
L 577.277897 367.603244 
L 578.690685 179.188595 
L 579.043882 384.910448 
L 580.585105 136.64267 
L 580.841976 447.721966 
L 581.452043 264.559238 
L 582.09422 293.552034 
L 582.64007 104.008699 
L 583.218028 223.618336 
L 583.410681 229.180459 
L 583.699661 380.883092 
L 584.470272 174.79223 
L 586.075713 300.686344 
L 587.424283 316.181029 
L 588.227004 417.007136 
L 589.639792 335.904915 
L 589.928771 368.176615 
L 590.570948 133.681346 
L 591.30945 361.490197 
L 592.625912 170.354338 
L 594.231353 170.457322 
L 594.809312 408.254792 
L 596.093664 352.390151 
L 598.66237 119.04386 
L 599.75407 106.471127 
L 601.809034 249.901602 
L 602.065904 398.715245 
L 602.515428 202.934029 
L 603.446584 300.838758 
L 605.276786 120.791097 
L 606.304268 113.104652 
L 606.52903 166.3644 
L 608.680321 216.476533 
L 609.964674 138.571664 
L 610.60685 392.928215 
L 611.762767 209.154327 
L 611.859094 415.07874 
L 612.629706 116.694334 
L 613.175555 118.277539 
L 613.560861 190.981343 
L 614.780996 342.348356 
L 615.326846 137.046735 
L 616.193784 241.381019 
L 617.542355 105.14798 
L 618.987252 195.836902 
L 622.230242 229.442406 
L 622.679766 223.027853 
L 623.867792 229.863127 
L 624.285206 403.938876 
L 624.670512 188.190537 
L 625.376906 136.502377 
L 625.697994 391.70588 
L 626.404388 334.40201 
L 627.785068 129.544661 
L 628.587788 109.894132 
L 629.005203 113.244126 
L 629.422617 373.12288 
L 629.90425 371.815018 
L 631.606017 158.863018 
L 632.440846 413.954068 
L 632.954587 118.844409 
L 633.532546 122.666442 
L 634.977443 259.929985 
L 635.362749 191.268635 
L 636.229687 145.88666 
L 637.000298 295.090595 
L 637.257169 109.372379 
L 637.963563 107.629708 
L 639.023154 381.014695 
L 639.890092 143.488334 
L 640.371724 151.841516 
L 641.399206 386.900034 
L 642.587233 230.578444 
L 642.811994 144.9116 
L 642.972539 295.156428 
L 643.229409 326.645718 
L 643.935803 487.649366 
L 644.995394 123.622486 
L 647.756752 127.075464 
L 655.43076 186.319505 
L 656.23348 186.655848 
L 656.875657 101.473071 
L 657.293071 118.388583 
L 657.967357 168.592744 
L 658.770077 218.009804 
L 659.187492 194.762983 
L 662.141503 104.359116 
L 662.655244 138.471387 
L 664.517555 319.608096 
L 667.888981 358.815456 
L 669.398096 207.03838 
L 671.485169 498.14576 
L 671.902584 125.835183 
L 672.865848 145.048461 
L 673.058501 209.943442 
L 673.283263 128.926693 
L 673.732786 148.368514 
L 675.723533 292.054717 
L 676.173056 419.461551 
L 677.650062 261.018451 
L 678.292238 146.267806 
L 679.801353 366.754025 
L 680.218767 192.741929 
L 680.604073 254.250458 
L 680.860944 111.717246 
L 682.659038 384.02622 
L 683.461758 256.74141 
L 685.388287 345.810543 
L 686.191008 157.808114 
L 686.544205 197.532757 
L 689.36978 312.239215 
L 691.55318 344.301404 
L 692.64488 400.92477 
L 692.965968 192.216461 
L 694.378756 126.816886 
L 695.534674 407.998756 
L 696.97957 148.392725 
L 698.585011 494.758154 
L 698.809773 141.337346 
L 702.277525 302.754214 
L 702.727049 124.331223 
L 704.011401 140.626846 
L 704.846231 279.324832 
L 706.836977 405.202645 
L 709.309356 139.112937 
L 710.625818 140.379665 
L 710.946906 251.436196 
L 711.94228 376.890462 
L 713.098197 211.692757 
L 713.322959 121.690438 
L 714.350441 285.507301 
L 714.896291 405.521995 
L 715.121052 131.089865 
L 715.891664 263.468474 
L 716.854929 267.745137 
L 718.556696 257.849773 
L 718.781458 150.136782 
L 718.974111 173.199769 
L 720.322681 273.006069 
L 720.772204 406.278036 
L 721.253837 429.59809 
L 722.666625 138.893053 
L 726.840771 100.980126 
L 729.248932 153.309867 
L 729.602129 367.703977 
L 730.308523 133.628736 
L 730.436959 333.805372 
L 730.629612 176.86306 
L 733.551514 434.071693 
L 734.643214 359.799663 
L 735.445934 130.707744 
L 735.670696 107.650361 
L 736.537634 215.380669 
L 737.72566 129.994064 
L 738.528381 238.749334 
L 739.170557 352.20046 
L 739.395319 184.491165 
L 742.09246 128.926787 
L 742.381439 344.012837 
L 743.44103 331.870821 
L 743.98688 118.823692 
L 745.560212 404.163035 
L 745.720756 249.06356 
L 746.940891 122.777707 
L 749.349052 133.608901 
L 749.509597 272.053173 
L 750.408643 218.487858 
L 751.147146 490.834833 
L 751.500343 165.422744 
L 752.39939 337.407002 
L 753.812178 141.227718 
L 754.454354 407.554509 
L 760.169724 217.656585 
L 760.266051 342.996486 
L 761.871491 124.375206 
L 762.096253 114.472507 
L 762.898974 325.381351 
L 763.123735 223.858086 
L 764.247544 131.138697 
L 767.940058 301.05107 
L 768.357473 225.170624 
L 769.770261 196.124603 
L 770.219784 140.872516 
L 770.829852 128.85387 
L 772.049987 130.243638 
L 772.24264 247.864712 
L 773.494884 406.959799 
L 774.650801 104.321871 
L 776.481004 144.582907 
L 779.980865 130.569497 
L 780.205626 346.837504 
L 781.040456 138.280153 
L 783.673379 118.791201 
L 784.797187 288.098467 
L 786.498955 132.669733 
L 788.586028 349.511615 
L 790.929972 226.643698 
L 793.69133 133.566555 
L 794.365615 139.299984 
L 794.590377 153.890779 
L 795.200444 383.055914 
L 795.906838 117.685986 
L 796.163709 332.822426 
L 796.613232 218.906217 
L 798.764523 289.783507 
L 798.925067 273.88389 
L 800.947923 337.984844 
L 803.131323 110.498689 
L 803.323975 261.115957 
L 804.062478 187.441532 
L 804.094587 485.543495 
L 805.154178 157.521893 
L 805.539484 274.971978 
L 807.369686 358.114843 
L 809.007236 145.527774 
L 810.452133 440.669846 
L 811.929139 169.565883 
L 812.98873 237.597176 
L 813.181383 185.616278 
L 814.497844 261.208646 
L 815.878523 184.081778 
L 816.103285 124.142633 
L 816.23172 303.52891 
L 816.617026 367.15403 
L 817.516073 268.342231 
L 821.337022 253.19017 
L 822.268178 297.856119 
L 823.58464 151.385847 
L 824.162598 354.178837 
L 829.139465 215.455443 
L 831.098103 402.809867 
L 831.868715 243.548064 
L 832.510891 320.410324 
L 832.703544 226.395478 
L 834.148441 145.112846 
L 835.111705 250.444103 
L 836.813473 320.724189 
L 840.217007 264.43242 
L 840.794966 219.895099 
L 844.294827 211.3277 
L 845.2902 107.41993 
L 846.991968 318.083703 
L 849.432238 246.199869 
L 850.395503 396.293557 
L 851.166114 414.064836 
L 851.55142 113.133964 
L 852.386249 323.3929 
L 853.895364 341.960488 
L 856.464069 148.821789 
L 857.619987 113.219506 
L 858.711686 272.928838 
L 858.936448 145.346143 
L 859.610733 201.181692 
L 860.317127 147.196647 
L 862.4042 232.287963 
L 864.716035 359.465255 
L 865.550865 202.277777 
L 866.867326 102.720499 
L 869.596576 103.520571 
L 870.30297 126.906741 
L 870.527731 116.005117 
L 872.711131 443.151503 
L 873.28909 177.584453 
L 873.610178 409.592634 
L 873.738613 357.641638 
L 874.220245 116.328867 
L 877.142148 103.580328 
L 878.394392 131.361163 
L 882.151123 107.546999 
L 883.820782 130.732868 
L 884.559285 98.835561 
L 885.586767 196.756299 
L 885.972073 312.535369 
L 886.87112 143.541857 
L 887.095881 130.04469 
L 887.96282 122.045263 
L 888.316017 291.445486 
L 889.022411 131.197226 
L 889.953566 207.932432 
L 890.692069 144.779021 
L 891.526898 291.107946 
L 893.260775 230.350216 
L 895.123086 135.227274 
L 895.957915 171.395609 
L 898.783491 329.987872 
L 899.393559 255.348368 
L 901.705394 138.3276 
L 902.989746 191.430777 
L 903.599814 202.568343 
L 904.402534 389.083041 
L 905.365799 120.698471 
L 909.989469 118.946795 
L 911.755454 293.760789 
L 913.393003 240.143099 
L 916.282797 137.582467 
L 916.443341 280.42194 
L 916.668103 136.437992 
L 917.759803 182.897979 
L 919.397352 410.962598 
L 919.814767 118.367583 
L 920.489052 299.015093 
L 923.218302 182.554709 
L 923.443063 126.386594 
L 924.213675 202.445303 
L 927.039251 177.264009 
L 927.32823 242.137266 
L 927.681427 262.580688 
L 927.87408 216.523948 
L 928.484148 342.073406 
L 931.887683 111.072768 
L 932.786729 136.518717 
L 932.979382 205.51723 
L 933.204144 131.275841 
L 933.268362 415.384639 
L 934.841694 115.837307 
L 935.066455 115.057952 
L 936.57557 289.15197 
L 939.529581 434.461749 
L 940.043322 292.149484 
L 940.332302 324.026815 
L 940.65339 303.79528 
L 940.91026 326.316285 
L 944.44223 152.036779 
L 945.566039 310.981523 
L 946.465086 266.435244 
L 947.460459 238.859591 
L 947.556786 408.233784 
L 948.006309 178.555168 
L 948.455833 155.994887 
L 951.474061 230.525582 
L 952.886849 102.148309 
L 953.625352 154.121934 
L 954.139093 336.436208 
L 955.198684 262.478207 
L 956.579364 134.534405 
L 956.739908 269.461787 
L 959.148069 165.178019 
L 962.776365 275.873475 
L 963.033236 261.214313 
L 963.19378 242.195165 
L 963.418542 117.502812 
L 963.900174 123.881946 
L 964.478133 152.156324 
L 966.147791 249.543975 
L 966.693641 360.193465 
L 967.046838 158.831912 
L 967.239491 433.894761 
L 967.881667 235.961959 
L 970.964114 130.018212 
L 971.156767 221.887439 
L 971.831052 356.872043 
L 973.019078 150.883929 
L 977.225333 329.570001 
L 980.339889 151.877911 
L 984.3856 484.349003 
L 985.830497 107.937999 
L 986.536891 147.3955 
L 986.954305 315.315943 
L 987.179067 117.164736 
L 987.91757 263.442059 
L 989.81199 363.180511 
L 990.486275 130.059204 
L 992.380696 108.020204 
L 994.756748 242.710275 
L 994.98151 106.929629 
L 995.912666 191.531967 
L 996.586951 379.364192 
L 997.774977 212.896454 
L 998.2245 118.718252 
L 998.77035 146.083845 
L 999.284091 289.437955 
L 1000.504226 112.834803 
L 1001.724362 195.870275 
L 1002.494973 160.487845 
L 1004.068305 140.829414 
L 1004.100414 495.274016 
L 1004.678373 291.220501 
L 1006.765446 145.354454 
L 1006.990208 148.723685 
L 1009.334151 267.476326 
L 1009.558913 120.787697 
L 1009.944219 218.286517 
L 1010.201089 342.098372 
L 1011.324898 117.291176 
L 1012.512924 344.468883 
L 1013.668842 117.552714 
L 1013.700951 501.578928 
L 1017.232921 323.97707 
L 1017.971423 137.66357 
L 1018.549382 130.138796 
L 1020.475911 323.040468 
L 1022.241896 138.784842 
L 1022.755637 271.171668 
L 1025.67754 197.447152 
L 1028.824204 161.445904 
L 1029.75536 340.885026 
L 1030.140665 105.590677 
L 1030.55808 147.268777 
L 1031.264474 168.911173 
L 1031.489236 105.444748 
L 1032.163521 193.840753 
L 1033.576309 324.655188 
L 1035.374403 121.332559 
L 1036.915626 135.167612 
L 1036.979844 432.564136 
L 1037.557802 354.857837 
L 1039.965964 106.14977 
L 1041.121881 234.339147 
L 1041.507187 116.980177 
L 1042.149363 162.06828 
L 1043.305281 419.322691 
L 1044.429089 118.341672 
L 1046.484054 174.974428 
L 1046.740924 269.248199 
L 1046.933577 205.3299 
L 1047.350992 136.473443 
L 1048.539018 138.951204 
L 1048.988542 143.299807 
L 1049.341739 397.226885 
L 1049.5665 105.3718 
L 1049.951806 231.985937 
L 1050.850853 386.52838 
L 1050.979288 373.653086 
L 1053.676429 167.265126 
L 1055.795611 208.828939 
L 1056.63044 105.968926 
L 1057.208399 387.702514 
L 1058.749622 142.734103 
L 1059.199146 201.294499 
L 1060.322954 290.091594 
L 1061.25411 138.508129 
L 1062.05683 202.506508 
L 1062.217375 256.141734 
L 1063.598054 363.40293 
L 1065.267712 188.513531 
L 1067.386894 110.725909 
L 1072.556414 121.688077 
L 1076.987431 149.814354 
L 1077.629607 237.879115 
L 1077.758042 316.77921 
L 1077.790151 501.309825 
L 1078.36811 242.94672 
L 1080.487292 202.658954 
L 1081.932189 143.895013 
L 1082.734909 142.738573 
L 1083.184433 137.620311 
L 1087.968647 236.905126 
L 1088.321844 132.335688 
L 1088.803476 360.837407 
L 1089.156673 140.331809 
L 1089.349326 206.821424 
L 1090.826331 186.005766 
L 1093.04184 124.551422 
L 1093.876669 184.649026 
L 1094.101431 106.646997 
L 1095.931633 277.728104 
L 1097.183877 194.746926 
L 1097.37653 202.883844 
L 1099.01408 393.417209 
L 1101.647003 363.959142 
L 1103.0919 277.227178 
L 1104.408361 274.836502 
L 1104.793667 181.241762 
L 1105.789041 306.483999 
L 1105.853258 431.97389 
L 1106.270673 137.009018 
L 1108.293528 116.902317 
L 1108.807269 213.717777 
L 1109.481555 266.447082 
L 1112.114478 165.6607 
L 1112.307131 207.719789 
L 1113.39883 329.123463 
L 1115.132707 144.765829 
L 1115.678556 127.898047 
L 1116.513386 225.288059 
L 1117.669303 223.986037 
L 1120.302226 224.064401 
L 1121.55447 138.196941 
L 1122.164538 115.196419 
L 1122.838823 131.40905 
L 1123.577326 137.17031 
L 1125.214875 267.051166 
L 1126.113922 123.389599 
L 1126.756099 293.287096 
L 1127.301949 136.572334 
L 1127.751472 137.529637 
L 1128.200995 123.483579 
L 1129.774328 134.328531 
L 1130.705483 165.657961 
L 1131.122898 271.994487 
L 1131.219224 366.358507 
L 1132.214598 165.941538 
L 1132.985209 369.384735 
L 1135.586024 327.241112 
L 1136.452962 336.822328 
L 1137.287791 237.986696 
L 1137.673097 308.49268 
L 1138.764797 329.213995 
L 1138.989558 199.631167 
L 1140.209693 185.188851 
L 1140.659217 144.948531 
L 1142.136222 147.24189 
L 1142.328875 163.496773 
L 1142.425202 333.80756 
L 1143.099487 381.31447 
L 1143.998534 342.767471 
L 1144.897581 123.64506 
L 1145.443431 407.189491 
L 1146.470913 127.71185 
L 1152.411044 181.485071 
L 1153.438526 239.068267 
L 1154.048594 257.241156 
L 1154.209138 318.841743 
L 1155.5256 346.228257 
L 1155.943014 132.253042 
L 1156.87417 412.631464 
L 1158.51172 377.241965 
L 1159.892399 128.802268 
L 1160.085052 319.850019 
L 1161.176752 121.420211 
L 1161.722601 167.374218 
L 1163.552804 214.626154 
L 1164.837157 367.509327 
L 1165.061918 103.825148 
L 1167.694842 125.887163 
L 1169.10763 322.923095 
L 1169.300282 181.797172 
L 1169.589262 423.912258 
L 1175.818373 203.318733 
L 1177.23116 163.171952 
L 1177.77701 103.138796 
L 1177.905446 354.433983 
L 1179.831975 364.122969 
L 1182.208027 146.606826 
L 1183.331836 106.918767 
L 1187.184894 421.621166 
L 1187.859179 409.715477 
L 1188.726117 116.356384 
L 1188.950879 138.249393 
L 1190.55632 204.778961 
L 1191.326932 134.308476 
L 1192.964481 262.730111 
L 1193.799311 248.752435 
L 1195.147881 431.833219 
L 1199.771551 375.081201 
L 1200.477945 149.41394 
L 1202.886106 212.95706 
L 1205.23005 492.714798 
L 1205.583247 126.247088 
L 1206.867599 278.169321 
L 1211.009637 291.670171 
L 1211.330725 164.586655 
L 1214.220519 356.398649 
L 1214.445281 109.01513 
L 1217.463509 143.356258 
L 1218.683644 225.279716 
L 1218.876297 342.446066 
L 1221.412894 137.455304 
L 1223.756838 304.848184 
L 1224.110035 338.336158 
L 1225.490714 369.679001 
L 1225.58704 430.855987 
L 1226.550305 203.316749 
L 1226.67874 338.640011 
L 1227.128264 110.155796 
L 1227.706222 239.924286 
L 1229.632751 164.203463 
L 1230.724451 384.907489 
L 1231.687716 347.141309 
L 1231.912477 141.17259 
L 1232.137239 372.294157 
L 1232.779416 128.875878 
L 1234.160095 189.178411 
L 1235.155468 123.450268 
L 1235.316012 242.312915 
L 1236.215059 116.47574 
L 1237.724174 427.560704 
L 1239.104853 147.905919 
L 1239.265397 294.356781 
L 1239.907573 256.541675 
L 1245.526616 303.663142 
L 1250.760354 196.928768 
L 1251.595183 134.102791 
L 1251.819945 139.358922 
L 1251.819945 139.358922 
" style="fill:none;stroke:#add8e6;stroke-linecap:square;stroke-opacity:0.7;stroke-width:1.5;"/>
   </g>
   <g id="line2d_31">
    <path clip-path="url(#p0a071ce40b)" d="M 245.979113 508.911148 
L 262.033522 356.429251 
L 278.087931 278.407561 
L 294.14234 233.101384 
L 310.196749 136.891708 
L 326.251158 164.04025 
L 342.305567 160.094074 
L 358.359976 150.29713 
L 374.414385 207.917162 
L 390.468794 183.353836 
L 406.523203 159.027553 
L 422.577612 178.777697 
L 438.632021 127.245604 
L 454.68643 138.614262 
L 470.740839 127.048923 
L 486.795248 129.160304 
L 502.849657 124.038169 
L 518.904066 143.44476 
L 534.958475 111.098805 
L 551.012884 126.253448 
L 567.067293 136.613106 
L 583.121702 202.11894 
L 599.176111 114.153479 
L 615.23052 127.692456 
L 631.284929 127.64926 
L 647.339338 169.606214 
L 663.393747 111.014586 
L 679.448156 124.342211 
L 695.502565 145.591592 
L 711.556974 123.604005 
L 727.611383 117.742972 
L 743.665792 131.365539 
L 759.720201 122.742161 
L 775.77461 124.657901 
L 791.829019 123.185614 
L 807.883428 130.956782 
L 823.937837 110.561373 
L 839.992246 122.371028 
L 856.046654 127.23937 
L 872.101063 109.433364 
L 888.155472 118.563855 
L 904.209881 121.102285 
L 920.26429 110.38437 
L 936.318699 115.389069 
L 952.373108 113.548325 
L 968.427517 116.922656 
L 984.481926 134.518474 
L 1000.536335 123.915949 
L 1016.590744 115.467905 
L 1032.645153 112.80653 
L 1048.699562 115.119503 
L 1064.753971 161.894268 
L 1080.80838 108.789799 
L 1096.862789 134.885169 
L 1112.917198 119.400133 
L 1128.971607 121.851573 
L 1145.026016 114.029621 
L 1161.080425 114.329853 
L 1177.134834 143.040159 
L 1193.189243 128.120702 
L 1209.243652 129.705954 
L 1225.298061 130.888651 
L 1241.35247 113.465239 
" style="fill:none;stroke:#ff0000;stroke-linecap:square;stroke-width:1.5;"/>
   </g>
   <g id="patch_3">
    <path d="M 179.335656 554.862333 
L 179.335656 77.12 
" style="fill:none;stroke:#000000;stroke-linecap:square;stroke-linejoin:miter;stroke-width:0.8;"/>
   </g>
   <g id="patch_4">
    <path d="M 1302.890625 554.862333 
L 1302.890625 77.12 
" style="fill:none;stroke:#000000;stroke-linecap:square;stroke-linejoin:miter;stroke-width:0.8;"/>
   </g>
   <g id="patch_5">
    <path d="M 179.335656 554.862333 
L 1302.890625 554.862333 
" style="fill:none;stroke:#000000;stroke-linecap:square;stroke-linejoin:miter;stroke-width:0.8;"/>
   </g>
   <g id="patch_6">
    <path d="M 179.335656 77.12 
L 1302.890625 77.12 
" style="fill:none;stroke:#000000;stroke-linecap:square;stroke-linejoin:miter;stroke-width:0.8;"/>
   </g>
   <g id="text_17">
    <!-- Upward slope training -->
    <defs>
     <path d="M 8.6875 72.90625 
L 18.609375 72.90625 
L 18.609375 28.609375 
Q 18.609375 16.890625 22.84375 11.734375 
Q 27.09375 6.59375 36.625 6.59375 
Q 46.09375 6.59375 50.34375 11.734375 
Q 54.59375 16.890625 54.59375 28.609375 
L 54.59375 72.90625 
L 64.5 72.90625 
L 64.5 27.390625 
Q 64.5 13.140625 57.4375 5.859375 
Q 50.390625 -1.421875 36.625 -1.421875 
Q 22.796875 -1.421875 15.734375 5.859375 
Q 8.6875 13.140625 8.6875 27.390625 
z
" id="DejaVuSans-85"/>
     <path d="M 30.609375 48.390625 
Q 23.390625 48.390625 19.1875 42.75 
Q 14.984375 37.109375 14.984375 27.296875 
Q 14.984375 17.484375 19.15625 11.84375 
Q 23.34375 6.203125 30.609375 6.203125 
Q 37.796875 6.203125 41.984375 11.859375 
Q 46.1875 17.53125 46.1875 27.296875 
Q 46.1875 37.015625 41.984375 42.703125 
Q 37.796875 48.390625 30.609375 48.390625 
z
M 30.609375 56 
Q 42.328125 56 49.015625 48.375 
Q 55.71875 40.765625 55.71875 27.296875 
Q 55.71875 13.875 49.015625 6.21875 
Q 42.328125 -1.421875 30.609375 -1.421875 
Q 18.84375 -1.421875 12.171875 6.21875 
Q 5.515625 13.875 5.515625 27.296875 
Q 5.515625 40.765625 12.171875 48.375 
Q 18.84375 56 30.609375 56 
z
" id="DejaVuSans-111"/>
     <path d="M 9.421875 54.6875 
L 18.40625 54.6875 
L 18.40625 0 
L 9.421875 0 
z
M 9.421875 75.984375 
L 18.40625 75.984375 
L 18.40625 64.59375 
L 9.421875 64.59375 
z
" id="DejaVuSans-105"/>
     <path d="M 54.890625 33.015625 
L 54.890625 0 
L 45.90625 0 
L 45.90625 32.71875 
Q 45.90625 40.484375 42.875 44.328125 
Q 39.84375 48.1875 33.796875 48.1875 
Q 26.515625 48.1875 22.3125 43.546875 
Q 18.109375 38.921875 18.109375 30.90625 
L 18.109375 0 
L 9.078125 0 
L 9.078125 54.6875 
L 18.109375 54.6875 
L 18.109375 46.1875 
Q 21.34375 51.125 25.703125 53.5625 
Q 30.078125 56 35.796875 56 
Q 45.21875 56 50.046875 50.171875 
Q 54.890625 44.34375 54.890625 33.015625 
z
" id="DejaVuSans-110"/>
     <path d="M 45.40625 27.984375 
Q 45.40625 37.75 41.375 43.109375 
Q 37.359375 48.484375 30.078125 48.484375 
Q 22.859375 48.484375 18.828125 43.109375 
Q 14.796875 37.75 14.796875 27.984375 
Q 14.796875 18.265625 18.828125 12.890625 
Q 22.859375 7.515625 30.078125 7.515625 
Q 37.359375 7.515625 41.375 12.890625 
Q 45.40625 18.265625 45.40625 27.984375 
z
M 54.390625 6.78125 
Q 54.390625 -7.171875 48.1875 -13.984375 
Q 42 -20.796875 29.203125 -20.796875 
Q 24.46875 -20.796875 20.265625 -20.09375 
Q 16.0625 -19.390625 12.109375 -17.921875 
L 12.109375 -9.1875 
Q 16.0625 -11.328125 19.921875 -12.34375 
Q 23.78125 -13.375 27.78125 -13.375 
Q 36.625 -13.375 41.015625 -8.765625 
Q 45.40625 -4.15625 45.40625 5.171875 
L 45.40625 9.625 
Q 42.625 4.78125 38.28125 2.390625 
Q 33.9375 0 27.875 0 
Q 17.828125 0 11.671875 7.65625 
Q 5.515625 15.328125 5.515625 27.984375 
Q 5.515625 40.671875 11.671875 48.328125 
Q 17.828125 56 27.875 56 
Q 33.9375 56 38.28125 53.609375 
Q 42.625 51.21875 45.40625 46.390625 
L 45.40625 54.6875 
L 54.390625 54.6875 
z
" id="DejaVuSans-103"/>
    </defs>
    <g transform="translate(586.925016 71.12)scale(0.28 -0.28)">
     <use xlink:href="#DejaVuSans-85"/>
     <use x="73.193359" xlink:href="#DejaVuSans-112"/>
     <use x="136.669922" xlink:href="#DejaVuSans-119"/>
     <use x="218.457031" xlink:href="#DejaVuSans-97"/>
     <use x="279.736328" xlink:href="#DejaVuSans-114"/>
     <use x="320.833984" xlink:href="#DejaVuSans-100"/>
     <use x="384.310547" xlink:href="#DejaVuSans-32"/>
     <use x="416.097656" xlink:href="#DejaVuSans-115"/>
     <use x="468.197266" xlink:href="#DejaVuSans-108"/>
     <use x="495.980469" xlink:href="#DejaVuSans-111"/>
     <use x="557.162109" xlink:href="#DejaVuSans-112"/>
     <use x="620.638672" xlink:href="#DejaVuSans-101"/>
     <use x="682.162109" xlink:href="#DejaVuSans-32"/>
     <use x="713.949219" xlink:href="#DejaVuSans-116"/>
     <use x="753.158203" xlink:href="#DejaVuSans-114"/>
     <use x="794.271484" xlink:href="#DejaVuSans-97"/>
     <use x="855.550781" xlink:href="#DejaVuSans-105"/>
     <use x="883.333984" xlink:href="#DejaVuSans-110"/>
     <use x="946.712891" xlink:href="#DejaVuSans-105"/>
     <use x="974.496094" xlink:href="#DejaVuSans-110"/>
     <use x="1037.875" xlink:href="#DejaVuSans-103"/>
    </g>
   </g>
   <g id="legend_1">
    <g id="patch_7">
     <path d="M 625.754234 545.862333 
L 856.472047 545.862333 
Q 860.072047 545.862333 860.072047 542.262333 
L 860.072047 464.800458 
Q 860.072047 461.200458 856.472047 461.200458 
L 625.754234 461.200458 
Q 622.154234 461.200458 622.154234 464.800458 
L 622.154234 542.262333 
Q 622.154234 545.862333 625.754234 545.862333 
z
" style="fill:#ffffff;opacity:0.8;stroke:#cccccc;stroke-linejoin:miter;"/>
    </g>
    <g id="line2d_32">
     <path d="M 629.354234 475.777646 
L 665.354234 475.777646 
" style="fill:none;stroke:#0000ff;stroke-linecap:square;stroke-width:1.5;"/>
    </g>
    <g id="line2d_33"/>
    <g id="text_18">
     <!-- Mean reward -->
     <defs>
      <path d="M 9.8125 72.90625 
L 24.515625 72.90625 
L 43.109375 23.296875 
L 61.8125 72.90625 
L 76.515625 72.90625 
L 76.515625 0 
L 66.890625 0 
L 66.890625 64.015625 
L 48.09375 14.015625 
L 38.1875 14.015625 
L 19.390625 64.015625 
L 19.390625 0 
L 9.8125 0 
z
" id="DejaVuSans-77"/>
     </defs>
     <g transform="translate(679.754234 482.077646)scale(0.18 -0.18)">
      <use xlink:href="#DejaVuSans-77"/>
      <use x="86.279297" xlink:href="#DejaVuSans-101"/>
      <use x="147.802734" xlink:href="#DejaVuSans-97"/>
      <use x="209.082031" xlink:href="#DejaVuSans-110"/>
      <use x="272.460938" xlink:href="#DejaVuSans-32"/>
      <use x="304.248047" xlink:href="#DejaVuSans-114"/>
      <use x="345.330078" xlink:href="#DejaVuSans-101"/>
      <use x="406.853516" xlink:href="#DejaVuSans-119"/>
      <use x="488.640625" xlink:href="#DejaVuSans-97"/>
      <use x="549.919922" xlink:href="#DejaVuSans-114"/>
      <use x="591.017578" xlink:href="#DejaVuSans-100"/>
     </g>
    </g>
    <g id="line2d_34">
     <path d="M 629.354234 502.198271 
L 665.354234 502.198271 
" style="fill:none;stroke:#add8e6;stroke-linecap:square;stroke-opacity:0.7;stroke-width:1.5;"/>
    </g>
    <g id="line2d_35"/>
    <g id="text_19">
     <!-- Episode rewards -->
     <defs>
      <path d="M 9.8125 72.90625 
L 55.90625 72.90625 
L 55.90625 64.59375 
L 19.671875 64.59375 
L 19.671875 43.015625 
L 54.390625 43.015625 
L 54.390625 34.71875 
L 19.671875 34.71875 
L 19.671875 8.296875 
L 56.78125 8.296875 
L 56.78125 0 
L 9.8125 0 
z
" id="DejaVuSans-69"/>
     </defs>
     <g transform="translate(679.754234 508.498271)scale(0.18 -0.18)">
      <use xlink:href="#DejaVuSans-69"/>
      <use x="63.183594" xlink:href="#DejaVuSans-112"/>
      <use x="126.660156" xlink:href="#DejaVuSans-105"/>
      <use x="154.443359" xlink:href="#DejaVuSans-115"/>
      <use x="206.542969" xlink:href="#DejaVuSans-111"/>
      <use x="267.724609" xlink:href="#DejaVuSans-100"/>
      <use x="331.201172" xlink:href="#DejaVuSans-101"/>
      <use x="392.724609" xlink:href="#DejaVuSans-32"/>
      <use x="424.511719" xlink:href="#DejaVuSans-114"/>
      <use x="465.59375" xlink:href="#DejaVuSans-101"/>
      <use x="527.117188" xlink:href="#DejaVuSans-119"/>
      <use x="608.904297" xlink:href="#DejaVuSans-97"/>
      <use x="670.183594" xlink:href="#DejaVuSans-114"/>
      <use x="711.28125" xlink:href="#DejaVuSans-100"/>
      <use x="774.757812" xlink:href="#DejaVuSans-115"/>
     </g>
    </g>
    <g id="line2d_36">
     <path d="M 629.354234 528.618896 
L 665.354234 528.618896 
" style="fill:none;stroke:#ff0000;stroke-linecap:square;stroke-width:1.5;"/>
    </g>
    <g id="line2d_37"/>
    <g id="text_20">
     <!-- Evaluation rewards -->
     <g transform="translate(679.754234 534.918896)scale(0.18 -0.18)">
      <use xlink:href="#DejaVuSans-69"/>
      <use x="63.183594" xlink:href="#DejaVuSans-118"/>
      <use x="122.363281" xlink:href="#DejaVuSans-97"/>
      <use x="183.642578" xlink:href="#DejaVuSans-108"/>
      <use x="211.425781" xlink:href="#DejaVuSans-117"/>
      <use x="274.804688" xlink:href="#DejaVuSans-97"/>
      <use x="336.083984" xlink:href="#DejaVuSans-116"/>
      <use x="375.292969" xlink:href="#DejaVuSans-105"/>
      <use x="403.076172" xlink:href="#DejaVuSans-111"/>
      <use x="464.257812" xlink:href="#DejaVuSans-110"/>
      <use x="527.636719" xlink:href="#DejaVuSans-32"/>
      <use x="559.423828" xlink:href="#DejaVuSans-114"/>
      <use x="600.505859" xlink:href="#DejaVuSans-101"/>
      <use x="662.029297" xlink:href="#DejaVuSans-119"/>
      <use x="743.816406" xlink:href="#DejaVuSans-97"/>
      <use x="805.095703" xlink:href="#DejaVuSans-114"/>
      <use x="846.193359" xlink:href="#DejaVuSans-100"/>
      <use x="909.669922" xlink:href="#DejaVuSans-115"/>
     </g>
    </g>
   </g>
  </g>
 </g>
 <defs>
  <clipPath id="p0a071ce40b">
   <rect height="477.742333" width="1123.554969" x="179.335656" y="77.12"/>
  </clipPath>
 </defs>
</svg>
